<svg xmlns="http://www.w3.org/2000/svg" width="54.113" height="48" viewBox="0 0 54.113 48">
    <g id="iconfinder_Family_care_4042262" transform="translate(-9.058 -36.954)">
        <g id="Group_146" data-name="Group 146" transform="translate(9.058 36.954)">
        <path id="Path_459" data-name="Path 459" d="M56.815,66.062l-4.353-.987v-1.81a8.63,8.63,0,0,0,4.982-6.159,2.917,2.917,0,0,0,1.7-4.949V45.466A7.55,7.55,0,0,0,51.6,37.924v.022a2.708,2.708,0,0,0-2.091-.992h-.042a10.479,10.479,0,0,0-7.435,3.111,10.751,10.751,0,0,0-3.2,7.656v4.471a2.911,2.911,0,0,0-.434,3.457,9.029,9.029,0,0,0-2.352-.3,8.752,8.752,0,0,0-4.155,1.083V55.349a7.6,7.6,0,0,0-5.336-7.281l-.329,1.045A6.51,6.51,0,0,1,30.8,55.349v1.794a9.058,9.058,0,0,0-3.509,6,7.319,7.319,0,0,1-11.349-6.111v-1.4a6.237,6.237,0,0,1,3.555-5.618l.061-.028a7.332,7.332,0,0,0,4.252-6.642V42.4h-1.1v.937a6.234,6.234,0,0,1-3.55,5.617l-.065.03a7.335,7.335,0,0,0-4.252,6.642v8.535a11.64,11.64,0,0,0,.516,3.427,7.342,7.342,0,0,0-3.942,3.492,5.574,5.574,0,0,1,.888-7.932,3.236,3.236,0,0,0,1.256-2.563V49.367a9.685,9.685,0,0,1,16.524-6.9,9.835,9.835,0,0,1,2.942,7.025v4.756h1.1V49.489a10.924,10.924,0,0,0-3.265-7.8,10.794,10.794,0,0,0-18.391,7.68V60.588a2.146,2.146,0,0,1-.834,1.7,6.673,6.673,0,0,0-.684,9.916,7.317,7.317,0,0,0-.362,2.281v10.47h13.44v-1.1H11.68V74.484a6.265,6.265,0,0,1,4.881-6.111l4.705-1.066v-2.1a8.468,8.468,0,0,0,4.054-.018v2.118l1.883.427V70.36a4.191,4.191,0,0,0,4.186,4.186h.152v-1.1h-.152A3.094,3.094,0,0,1,28.3,70.36V64.368a7.89,7.89,0,0,1,7.757-7.921,7.816,7.816,0,0,1,7.875,7.816v6.1A3.094,3.094,0,0,1,40.84,73.45v1.1a4.191,4.191,0,0,0,4.186-4.186V66.332l.587-.133v4.99a.735.735,0,0,0,1.317.449L49.038,68.7l2.1,2.919.011.015a.735.735,0,0,0,1.317-.449V66.2l4.11.932a7.027,7.027,0,0,1,5.5,6.89v9.838H57.419V74.7h-1.1v9.155h-8.8v1.1H63.171V74.02a8.159,8.159,0,0,0-6.356-7.958ZM17.308,62.979c.03.03.062.059.093.089v1.067a11.646,11.646,0,0,0,.354,2.844l-1.345.3a10.547,10.547,0,0,1-.471-3.119V61.182A8.46,8.46,0,0,0,17.308,62.979Zm2.862,3.452-1.346.305a10.541,10.541,0,0,1-.327-2.6v-.168a8.341,8.341,0,0,0,1.673.892v1.573Zm6.245,0v-1.6a8.36,8.36,0,0,0,.787-.369V66.61ZM57.6,55.957c.013-.194.022-.388.022-.584v-.228a2.342,2.342,0,0,0,1.264-1.123A1.817,1.817,0,0,1,57.6,55.957Zm.448-10.491V52.96a1.233,1.233,0,0,1-.427.932v-.611a4.544,4.544,0,0,0-.79-2.566,3.452,3.452,0,0,1-.6-1.947V47.633a3.117,3.117,0,0,0-3.11-3.114l-1.261-.009a6.341,6.341,0,0,0,.357-2.106V39.665a2.7,2.7,0,0,0-.073-.62A6.454,6.454,0,0,1,58.045,45.466ZM39.929,47.721a9.662,9.662,0,0,1,2.876-6.88,9.391,9.391,0,0,1,6.663-2.791h.039a1.618,1.618,0,0,1,1.613,1.615V42.4A5.29,5.29,0,0,1,45.826,47.7a5.437,5.437,0,0,0-5.437,5.436V53.8a1.467,1.467,0,0,1-.46-1.071Zm-.791,6.219a2.553,2.553,0,0,0,1.251,1.146v.288c0,.2.007.39.02.583a1.826,1.826,0,0,1-1.294-1.744A1.806,1.806,0,0,1,39.138,53.94Zm2.613,3.42a7.512,7.512,0,0,1-.266-1.987v-2.24a4.341,4.341,0,0,1,4.341-4.34A6.364,6.364,0,0,0,51.358,45.6l1.758.013a2.021,2.021,0,0,1,2.018,2.018v1.135a4.55,4.55,0,0,0,.79,2.564,3.451,3.451,0,0,1,.6,1.949v2.092a7.515,7.515,0,0,1-11.952,6.072,8.87,8.87,0,0,0-2.179-3.508Q42.084,57.631,41.751,57.36Zm3.275,7.848v-.946a9.059,9.059,0,0,0-.094-1.3q.333.179.681.328v1.782Zm1.683,4.86V66.638l1.577,1.235Zm2.329-3-2.329-1.824V63.678a8.661,8.661,0,0,0,4.658-.019v1.587Zm2.329,3-1.577-2.2,1.577-1.235Z" transform="translate(-9.058 -36.954)" fill="#fff"/>
        <g id="Group_143" data-name="Group 143" transform="translate(16.653 23.437)">
            <path id="Path_460" data-name="Path 460" d="M272.266,312.886a.526.526,0,0,0,.526-.526V312a.526.526,0,1,0-1.052,0v.361A.526.526,0,0,0,272.266,312.886Z" transform="translate(-259.612 -304.832)" fill="#fff"/>
            <path id="Path_461" data-name="Path 461" d="M232.573,312.886a.526.526,0,0,0,.526-.526V312a.526.526,0,0,0-.526-.526h0a.526.526,0,0,0-.526.526v.361a.526.526,0,0,0,.526.526Z" transform="translate(-224.268 -304.832)" fill="#fff"/>
            <path id="Path_462" data-name="Path 462" d="M238.811,338.731l-.988-.473a1.644,1.644,0,0,1-2.968,0l-.989.472a2.74,2.74,0,0,0,4.945,0Z" transform="translate(-225.888 -328.683)" fill="#fff"/>
            <rect id="Rectangle_61" data-name="Rectangle 61" width="2.764" height="1.096" transform="translate(5.724 3.908) rotate(-135)" fill="#fff"/>
            <rect id="Rectangle_62" data-name="Rectangle 62" width="2.764" height="1.096" transform="translate(5.722 0) rotate(45)" fill="#fff"/>
            <path id="Path_463" data-name="Path 463" d="M181.858,282.923A6.038,6.038,0,0,0,177.13,277l-3.04-.689v-.85a7.685,7.685,0,0,0,4.7-6.3,1.949,1.949,0,0,0-.748-1.763,4.179,4.179,0,0,1-1.687-2.7,1.329,1.329,0,0,0-.857-1.1l-.052-.019a1.314,1.314,0,0,0-1.5.426c-2.014,2.593-5.877,3.358-8,3.584a1.946,1.946,0,0,0-1.7,2.341,7.834,7.834,0,0,0,2.552,4.307,7.293,7.293,0,0,0,2.019,1.218v.853l-3.04.689a6.038,6.038,0,0,0-4.728,5.92v3.757h20.805v-3.757Zm-16.538-13.217a.851.851,0,0,1,.742-1.022c2.3-.244,6.487-1.088,8.75-4a.22.22,0,0,1,.174-.085.229.229,0,0,1,.079.014l.052.019a.239.239,0,0,1,.148.2h0a5.262,5.262,0,0,0,2.109,3.443.848.848,0,0,1,.325.767,6.424,6.424,0,0,1-6.244,5.834A6.34,6.34,0,0,1,165.321,269.706Zm6.135,6.267a7.066,7.066,0,0,0,1.539-.171v.713a2.353,2.353,0,0,1-3.078,0V275.8A7.044,7.044,0,0,0,171.456,275.973Zm-2.249,1.377a3.451,3.451,0,0,0,4.5,0l1.929.437v3.156h-8.2v-3.191Zm-3.183.722.311-.071v4.038h10.395v-4l.159.036a5.041,5.041,0,0,1,1.062.369v7.143H165.056V278.4A5.065,5.065,0,0,1,166.023,278.072Zm-3.874,4.851a4.95,4.95,0,0,1,1.812-3.847v6.509h-1.812Zm18.614,2.662h-1.716v-6.428a4.95,4.95,0,0,1,1.716,3.766Z" transform="translate(-161.053 -262.118)" fill="#fff"/>
        </g>
        <g id="Group_144" data-name="Group 144" transform="translate(4.853 17.243)">
            <path id="Path_464" data-name="Path 464" d="M122.913,248.577a1.1,1.1,0,0,1-.988-.623l-.989.472a2.19,2.19,0,0,0,3.953,0l-.988-.473A1.1,1.1,0,0,1,122.913,248.577Z" transform="translate(-113.531 -242.079)" fill="#fff"/>
            <rect id="Rectangle_63" data-name="Rectangle 63" width="12.348" height="1.096" transform="translate(0 17.311)" fill="#fff"/>
            <path id="Path_465" data-name="Path 465" d="M160.991,195.427a.607.607,0,0,1,.606.606h1.1a1.7,1.7,0,1,0-3.4,0h1.1A.607.607,0,0,1,160.991,195.427Z" transform="translate(-147.682 -194.331)" fill="#fff"/>
            <path id="Path_466" data-name="Path 466" d="M87.6,196.033h1.1a.606.606,0,0,1,1.212,0h1.1a1.7,1.7,0,1,0-3.4,0Z" transform="translate(-83.85 -194.331)" fill="#fff"/>
        </g>
        <g id="Group_145" data-name="Group 145" transform="translate(34.352 15.834)">
            <path id="Path_467" data-name="Path 467" d="M357.593,234.976a2.244,2.244,0,0,0,2.014-1.27l-.988-.473a1.136,1.136,0,0,1-2.051,0l-.989.472A2.242,2.242,0,0,0,357.593,234.976Z" transform="translate(-351.964 -227.561)" fill="#fff"/>
            <path id="Path_468" data-name="Path 468" d="M395.975,182.563a.606.606,0,0,1,.606.606h1.1a1.7,1.7,0,0,0-3.4,0h1.1A.606.606,0,0,1,395.975,182.563Z" transform="translate(-386.418 -181.467)" fill="#fff"/>
            <path id="Path_469" data-name="Path 469" d="M324.287,182.563a.606.606,0,0,1,.606.606h1.1a1.7,1.7,0,1,0-3.4,0h1.1A.607.607,0,0,1,324.287,182.563Z" transform="translate(-322.585 -181.467)" fill="#fff"/>
            <rect id="Rectangle_64" data-name="Rectangle 64" width="1.096" height="11.244" transform="translate(5.08 18.589)" fill="#fff"/>
        </g>
        </g>
    </g>
</svg>