<svg xmlns="http://www.w3.org/2000/svg" width="36.079" height="48" viewBox="0 0 36.079 48">
    <g id="iconfinder_N_F009_08_TeacherArtboard_1_copy_7_6570713" transform="translate(-87.479 -31.799)">
        <path id="Path_423" data-name="Path 423" d="M175.634,208.05a3.607,3.607,0,0,0-3.561,3.057h-1.322a3.6,3.6,0,1,0,0,1.092h1.322a3.6,3.6,0,1,0,3.561-4.149Zm-8.443,6.113a2.511,2.511,0,1,1,2.51-2.51A2.511,2.511,0,0,1,167.191,214.163Zm8.443,0a2.511,2.511,0,1,1,2.51-2.51A2.511,2.511,0,0,1,175.634,214.163Z" transform="translate(-67.963 -157.385)" fill="#fff"/>
        <path id="Path_424" data-name="Path 424" d="M203.15,294.2a.547.547,0,0,0-.749.18,4.616,4.616,0,0,1-7.034,0,.546.546,0,1,0-.937.562,5.677,5.677,0,0,0,8.9,0,.544.544,0,0,0-.184-.745Z" transform="translate(-95.434 -234.245)" fill="#fff"/>
        <path id="Path_425" data-name="Path 425" d="M123.556,62.227a.546.546,0,0,0-.283-.428c-1.511-.822-3-4.739-.924-12.157,1.472-5.245,1.131-10.4-.909-13.8a8.191,8.191,0,0,0-13.706-.627A13,13,0,0,0,90.684,49.9a3.693,3.693,0,0,0,1.59,6.671,11.209,11.209,0,0,0,7.677,10.117l-.147.584a.907.907,0,0,1-.739.678l-5.858.933a6.445,6.445,0,0,0-5.447,5.981l-.28,4.346a.546.546,0,0,0,.51.58h.035a.546.546,0,0,0,.545-.511l.28-4.346a5.359,5.359,0,0,1,4.529-4.974l4.91-.781V79.244a.546.546,0,0,0,1.092,0V72.821a6.573,6.573,0,0,0,8.135,0v6.428a.546.546,0,0,0,1.092,0V69.187l4.91.781a5.362,5.362,0,0,1,4.53,4.974l.28,4.346a.546.546,0,0,0,.544.511h.035a.547.547,0,0,0,.511-.58l-.28-4.346a6.446,6.446,0,0,0-5.447-5.981l-5.86-.933a.909.909,0,0,1-.741-.678l-.146-.584a11.244,11.244,0,0,0,6.281-5.2,7.521,7.521,0,0,0,4.884,2.794,6.56,6.56,0,0,0,.671.035,7.782,7.782,0,0,0,4.58-1.624A.548.548,0,0,0,123.556,62.227Zm-32-14.75a11.9,11.9,0,1,1,23.641,1.917,3.662,3.662,0,0,0-1.1-.169h-.169c-4.217-.606-6.432-4.949-6.454-4.993a.546.546,0,0,0-.909-.107c-4.036,4.871-13.456,5.1-13.54,5.1H92.81a3.709,3.709,0,0,0-1.106.169,12.05,12.05,0,0,1-.154-1.917ZM106.034,67.54A2,2,0,0,0,107.52,69v2.264a5.356,5.356,0,0,1-8.135,0V69a2,2,0,0,0,1.486-1.463l.139-.558a11.228,11.228,0,0,0,4.893,0Zm.232-1.782a.52.52,0,0,0-.115.017.5.5,0,0,0-.131.051,10.11,10.11,0,0,1-5.154,0,.488.488,0,0,0-.13-.051.48.48,0,0,0-.116-.017,10.111,10.111,0,0,1-7.271-9.691.546.546,0,0,0-.546-.546,2.6,2.6,0,1,1,0-5.2h.214c.392-.006,9.3-.214,13.854-4.916.864,1.379,3.153,4.389,6.926,4.911a.586.586,0,0,0,.075.005h.208a2.6,2.6,0,1,1,0,5.2.546.546,0,0,0-.546.546A10.112,10.112,0,0,1,106.266,65.758ZM118.209,63.2a6.71,6.71,0,0,1-4.461-2.783,11.1,11.1,0,0,0,.871-3.845,3.692,3.692,0,0,0,1.591-6.674,13,13,0,0,0-7.432-14.27,7.1,7.1,0,0,1,11.725.776c1.888,3.143,2.185,7.982.793,12.942-2.111,7.525-.719,11.42.786,12.906a6.374,6.374,0,0,1-3.868.948Z" transform="translate(0)" fill="#fff"/>
        <path id="Path_426" data-name="Path 426" d="M310.546,448.11h-4.161a.546.546,0,1,0,0,1.092h4.161a.546.546,0,1,0,0-1.092Z" transform="translate(-194.988 -371.75)" fill="#fff"/>
    </g>
</svg>