<svg xmlns="http://www.w3.org/2000/svg" viewBox="0 0 95.08 127.39"><defs><style>.cls-1,.cls-4{fill:#c49669;}.cls-1,.cls-10,.cls-2,.cls-5,.cls-8,.cls-9{stroke:#000;}.cls-1,.cls-10,.cls-11,.cls-12,.cls-14,.cls-15,.cls-2,.cls-5,.cls-8,.cls-9{stroke-miterlimit:10;}.cls-2{fill:#b78a62;}.cls-3{fill:#dbd3ad;}.cls-11,.cls-14,.cls-5{fill:none;}.cls-6{fill:#fff;}.cls-7,.cls-8{fill:#634320;}.cls-9{fill:#472018;}.cls-10{fill:#8e2e1e;}.cls-11{stroke:#dbd3ad;}.cls-12{fill:#e98824;}.cls-12,.cls-14,.cls-15{stroke:#231f20;}.cls-13{fill:#cb6728;opacity:0.33;isolation:isolate;}.cls-15{fill:#54b148;}.cls-16{fill:#e5e1cf;}</style></defs><g id="Layer_2" data-name="Layer 2"><g id="Layer_1-2" data-name="Layer 1"><g id="Group_326" data-name="Group 326"><g id="Group_321" data-name="Group 321"><path id="Path_636" data-name="Path 636" class="cls-1" d="M84.79,80.61c18.13,4.58,6.18-18.16,2.47-15.34,0,0-4.12,1.35-3.87.54s-1.16-3.6-1.16-3.6c0-1.32,1.27-1.64,3.39-1.24-1.59-1.67-3.07-2.47-4.45-2.3L68,63.38l6,21.13,4.87-.44s8.22-1,9.14-2.64"/><path id="Path_637" data-name="Path 637" class="cls-1" d="M82.59,72.8a6.62,6.62,0,0,1,.83,3.62c0,2,6,1.61,5.22-.66s.82-1.35-1.58-4.91"/></g><path id="Path_638" data-name="Path 638" class="cls-2" d="M71.47,76.59l5.35,32.71C69.4,102.23,45.25,90.67,29,117.92,22.15,129.44.66,125.83.5,124.84c-.32-2,17.09-6.72,17.73-7,5.3-2.11,5.1-5.92,7.9-13.5C33.15,85.39,52.72,74.12,71.47,76.59Z"/><path id="Path_639" data-name="Path 639" class="cls-1" d="M81,111c4-5.39,5.47-15.22,2.75-21.59a20.31,20.31,0,0,1-1.31-10.23c1-8.77-5.48-26.55-5.48-26.55a17.68,17.68,0,0,0-10.59-3.43c-5.87.27-14.26,6.32-17.19,8.79s-3.88,22.12-3.67,26.24c0,0-5.79,15.9,2.86,29L50.83,116a11.43,11.43,0,0,0,8.54,4.19H69.43c4.85,0,9.31-3.56,11.54-9.23h0"/><path id="Path_640" data-name="Path 640" class="cls-3" d="M79.05,89.69a20.56,20.56,0,0,1-9.69,17.16c-.61.35.42-3.88-.24-3.63-1.36.5-3.47,4.84-5,4.84s-6.31-4.42-7.56-4.84.82,4-.24,3.23c-4.51-3.16-7.09-7.68-7.09-14.53,0-10.14,6.67-18.17,14.89-18.17S79.05,79.55,79.05,89.69Z"/><g id="Group_322" data-name="Group 322"><path id="Path_641" data-name="Path 641" class="cls-4" d="M54.32,18.49l-6.64,2.94a6.94,6.94,0,0,0-4.06,5.34,88.24,88.24,0,0,0-1.06,17.71c-6.29,0-8.47,7-3,5.3-3.31,5-.41,8.88,2.65,4.64,2,5.89,3.76,7.12,5.3,4,10,4.36,20.48,4.53,31.63,0,1.53,3.15,3.3,1.91,5.3-4,3.06,4.24,6,.33,2.65-4.64,5.5,1.7,3.31-5.3-3-5.3.4-6.5-.37-13.83-1.66-21.52l-10.1-4.47c-2.63-1.17-15.41-1.21-18.05,0"/><path id="Path_642" data-name="Path 642" class="cls-5" d="M54.32,18.49l-6.64,2.94a6.94,6.94,0,0,0-4.06,5.34,88.24,88.24,0,0,0-1.06,17.71c-6.29,0-8.47,7-3,5.3-3.31,5-.41,8.88,2.65,4.64,2,5.89,3.76,7.12,5.3,4,10,4.36,20.48,4.53,31.63,0,1.53,3.15,3.3,1.91,5.3-4,3.06,4.24,6,.33,2.65-4.64,5.5,1.7,3.31-5.3-3-5.3.4-6.5-.37-13.83-1.66-21.52l-10.1-4.47C69.74,17.31,57,17.28,54.32,18.49Z"/><path id="Path_643" data-name="Path 643" class="cls-6" d="M56.14,41c0,1.19-2,2.15-4.47,2.15s-4.47-1-4.47-2.15,2-2.15,4.47-2.15,4.47,1,4.47,2.15"/><ellipse id="Ellipse_151" data-name="Ellipse 151" class="cls-5" cx="51.67" cy="41" rx="4.47" ry="2.15"/><path id="Path_644" data-name="Path 644" class="cls-3" d="M70.38,46.79a6.3,6.3,0,1,1-6.63-5.95h.34a6.14,6.14,0,0,1,6.29,6"/><path id="Path_645" data-name="Path 645" class="cls-5" d="M70.38,46.79a6.3,6.3,0,1,1-6.63-5.95h.34A6.14,6.14,0,0,1,70.38,46.79Z"/><path id="Path_646" data-name="Path 646" d="M69.55,44c0,1.65-3.23,1.65-5,1.65S59,45.62,59,44s3.39-3.14,5.13-3.14,5.47,1.49,5.47,3.14"/><path id="Path_647" data-name="Path 647" class="cls-4" d="M37,16.13C34,9.53,34.63,2.76,38.46,1s9.36,2.2,12.36,8.81c2,4.47,3.52,9,1.66,11.6A7.52,7.52,0,0,1,50,22.77c-.76.35-3,2.61-3.1,2.55-3-1.86-7.5-3.9-9.91-9.19"/><path id="Path_648" data-name="Path 648" class="cls-5" d="M37,16.13C34,9.53,34.63,2.76,38.46,1s9.36,2.2,12.36,8.81c2,4.47,3.52,9,1.66,11.6A7.52,7.52,0,0,1,50,22.77c-.76.35-3,2.61-3.1,2.55C43.91,23.46,39.36,21.42,37,16.13Z"/><path id="Path_649" data-name="Path 649" class="cls-4" d="M89.42,17.7C94,11.42,94.8,4.16,91.16,1.49S80.83,1.75,76.23,8c-3.12,4.26-5.66,8.64-4.29,11.83.24.57,1.17,1.1,2.35,2,.73.53,2.59,3.41,2.7,3.37,3.51-1.31,8.74-2.46,12.43-7.49"/><path id="Path_650" data-name="Path 650" class="cls-5" d="M89.42,17.7C94,11.42,94.8,4.16,91.16,1.49S80.83,1.75,76.23,8c-3.12,4.26-5.66,8.64-4.29,11.83.24.57,1.17,1.1,2.35,2,.73.53,2.59,3.41,2.7,3.37C80.51,23.88,85.74,22.73,89.42,17.7Z"/><path id="Path_651" data-name="Path 651" class="cls-7" d="M37.63,16.58C34.8,10.34,35.43,4,39.05,2.31s8.84,2.08,11.68,8.32c1.92,4.23,3.32,8.46,1.56,10.95a7.15,7.15,0,0,1-2.37,1.27c-.72.33-2.84,2.47-2.93,2.41-2.8-1.75-7.1-3.68-9.36-8.68"/><path id="Path_652" data-name="Path 652" class="cls-5" d="M37.63,16.58C34.8,10.34,35.43,4,39.05,2.31s8.84,2.08,11.68,8.32c1.92,4.23,3.32,8.46,1.56,10.95a7.15,7.15,0,0,1-2.37,1.27c-.72.33-2.84,2.47-2.93,2.41C44.19,23.51,39.89,21.58,37.63,16.58Z"/><path id="Path_653" data-name="Path 653" class="cls-7" d="M88.43,18.11c4.29-5.85,5-12.61,1.62-15.09s-9.62.24-13.91,6.09c-2.9,4-5.27,8.05-4,11,.23.53,1.09,1,2.19,1.83.68.5,2.41,3.17,2.52,3.14,3.27-1.23,8.14-2.31,11.58-7"/><path id="Path_654" data-name="Path 654" class="cls-5" d="M88.43,18.11c4.29-5.85,5-12.61,1.62-15.09s-9.62.24-13.91,6.09c-2.9,4-5.27,8.05-4,11,.23.53,1.09,1,2.19,1.83.68.5,2.41,3.17,2.52,3.14C80.12,23.86,85,22.79,88.43,18.11Z"/><path id="Path_655" data-name="Path 655" d="M53.83,40.83a1.83,1.83,0,1,1-1.82-2,1.92,1.92,0,0,1,1.82,2"/><path id="Path_656" data-name="Path 656" class="cls-6" d="M72.37,41c0,1.19,2,2.15,4.47,2.15s4.47-1,4.47-2.15-2-2.15-4.47-2.15-4.47,1-4.47,2.15"/><ellipse id="Ellipse_152" data-name="Ellipse 152" class="cls-5" cx="76.83" cy="41" rx="4.47" ry="2.15"/><path id="Path_657" data-name="Path 657" d="M74.68,40.83a1.83,1.83,0,1,0,1.82-2,1.92,1.92,0,0,0-1.82,2"/><path id="Path_658" data-name="Path 658" class="cls-6" d="M54.16,40.34c0,.27-.3.5-.66.5s-.66-.22-.66-.5.3-.5.66-.5.66.22.66.5"/><path id="Path_659" data-name="Path 659" class="cls-6" d="M75.84,40.17c0,.27-.3.5-.66.5s-.66-.22-.66-.5.3-.5.66-.5.66.22.66.5"/><path id="Path_660" data-name="Path 660" class="cls-8" d="M73.07,33.71c.09-.51,1-1.15,1.14-1.25a3.22,3.22,0,0,1,1.4-.35,4.86,4.86,0,0,1,2.78.91l.93.6c.61.4,1.22.8,1.81,1.27a.12.12,0,0,1-.06.23h0c-1.1-.26-2.75-.92-3.86-1.09-1.42-.25-2.35.36-3.78.13a.47.47,0,0,1-.25-.11A.46.46,0,0,1,73.07,33.71Z"/><path id="Path_661" data-name="Path 661" class="cls-8" d="M55.69,33.71c-.09-.51-1-1.15-1.14-1.25a3.22,3.22,0,0,0-1.4-.35,4.86,4.86,0,0,0-2.78.91l-.93.6c-.61.4-1.22.8-1.81,1.27a.12.12,0,0,0,.06.23h0c1.1-.26,2.75-.92,3.86-1.09,1.42-.25,2.35.36,3.78.13a.47.47,0,0,0,.25-.11A.39.39,0,0,0,55.69,33.71Z"/><path id="Path_662" data-name="Path 662" class="cls-4" d="M65.16,18.39c2.82-2,.22-4-3.08-1.76,1.13-3.65-3.52-2.2-3.52,2"/><path id="Path_663" data-name="Path 663" class="cls-5" d="M65.16,18.39c2.82-2,.22-4-3.08-1.76,1.13-3.65-3.52-2.2-3.52,2"/><path id="Path_664" data-name="Path 664" class="cls-9" d="M60.87,49.89c-.4-.53.23-1.52.84-1.06,1.29,1,4,1.06,5.36.62.36-.12.58.37.42.65a4.71,4.71,0,0,1-1.35,1.39,3.42,3.42,0,0,1-4.57-.66Z"/><path id="Path_665" data-name="Path 665" class="cls-10" d="M63.79,50.46a4.57,4.57,0,0,0-2.11.49,3.43,3.43,0,0,0,4.46.52l.27-.2A4.44,4.44,0,0,0,63.79,50.46Z"/></g><path id="Path_666" data-name="Path 666" class="cls-1" d="M84.37,93.4c2.28,2,3.42-.59.9-3,3.33.25,1.19-3.43-2.38-2.61"/><path id="Path_667" data-name="Path 667" class="cls-1" d="M44.73,95.41c-2,2.76-3.88.22-1.73-3-3.58,1.11-2.16-3.45,1.94-3.45"/><ellipse id="Ellipse_153" data-name="Ellipse 153" class="cls-1" cx="84.83" cy="109.09" rx="9.66" ry="13.57"/><ellipse id="Ellipse_154" data-name="Ellipse 154" class="cls-1" cx="43.44" cy="110.16" rx="9.51" ry="13.57"/><path id="Path_668" data-name="Path 668" class="cls-1" d="M54.7,71.75s5.94-.57,8.71,1.69"/><path id="Path_669" data-name="Path 669" class="cls-1" d="M57.35,70.58a11.81,11.81,0,0,1-2.65-.21"/><path id="Path_670" data-name="Path 670" class="cls-1" d="M48.55,125.78H38.61c-2.11,0-3.77-1.48-3.56-3.2l.39-3.28A3.39,3.39,0,0,1,39,116.67h9.15a3.38,3.38,0,0,1,3.56,2.63l.39,3.28C52.31,124.3,50.66,125.78,48.55,125.78Z"/><line id="Line_13" data-name="Line 13" class="cls-5" x1="40.37" y1="119.63" x2="40.37" y2="125.78"/><line id="Line_14" data-name="Line 14" class="cls-5" x1="46.78" y1="119.63" x2="46.78" y2="125.78"/><line id="Line_15" data-name="Line 15" class="cls-5" x1="43.84" y1="119.63" x2="43.84" y2="125.78"/><path id="Path_671" data-name="Path 671" class="cls-1" d="M90.94,126.89H80.87c-2.14,0-3.82-1.48-3.61-3.2l.4-3.28a3.42,3.42,0,0,1,3.61-2.63h9.28a3.42,3.42,0,0,1,3.61,2.63l.4,3.28C94.75,125.4,93.08,126.89,90.94,126.89Z"/><line id="Line_16" data-name="Line 16" class="cls-5" x1="82.38" y1="120.74" x2="82.38" y2="126.89"/><line id="Line_17" data-name="Line 17" class="cls-5" x1="88.88" y1="120.74" x2="88.88" y2="126.89"/><line id="Line_18" data-name="Line 18" class="cls-5" x1="85.9" y1="120.74" x2="85.9" y2="126.89"/><path id="Path_672" data-name="Path 672" class="cls-11" d="M80.13,61.71s1.88.9,1.06,2.53"/><path id="Path_673" data-name="Path 673" class="cls-11" d="M42.48,72.84s.39.86,1.09.86"/><path id="Path_675" data-name="Path 675" class="cls-1" d="M58.32,93.12a12,12,0,0,1-2.56-.71"/><path id="Path_676" data-name="Path 676" class="cls-1" d="M65.72,54.93a9.38,9.38,0,0,1-2-.56"/><path id="Path_677" data-name="Path 677" class="cls-1" d="M36.66,110.11c-1,1.83-2.6.72-1.55-1.4-2.29,1.17-1.9-1.57.88-2.2"/><path id="Path_678" data-name="Path 678" class="cls-1" d="M89.68,107c2.28,2,3.42-.59.9-3,3.33.25,1.19-3.43-2.38-2.61"/><path id="Path_679" data-name="Path 679" class="cls-1" d="M50.69,84.21s-11.92.47-9.78-10.47c1.83-9.37,4.74-11.33,6.67-11.35,0,0,9.29,4.59,9.87,8.08,2.35-.46,5.29,2.33,5.29,2.33C67.45,76.53,65.39,88.4,50.69,84.21Z"/><path id="Path_680" data-name="Path 680" class="cls-1" d="M52,65.19c3-.54,1.67-3-1.76-2.55,2.27-2.45-1.94-3.07-3.53.23"/><g id="Group_324" data-name="Group 324"><g id="Group_10" data-name="Group 10"><path id="Path_17" data-name="Path 17" class="cls-12" d="M58.09,93.1l-.24.56a2,2,0,0,0,1,2.58,2.19,2.19,0,0,0,.67.16l8.22.42a.46.46,0,0,0,.43-.27h0a.62.62,0,0,0-.27-.78L61.19,92a2.22,2.22,0,0,0-3,.87Z"/><path id="Path_18" data-name="Path 18" class="cls-13" d="M68.07,96.73c-3.86-.68-9.94.63-10.44-2.07a13.66,13.66,0,0,1,.9-2.21c-.11,3.92,5.42,2.55,9.63,4Z"/><path id="Path_19" data-name="Path 19" class="cls-14" d="M58.09,93.1l-.24.56a2,2,0,0,0,1,2.58,2.19,2.19,0,0,0,.67.16l8.22.42a.46.46,0,0,0,.43-.27h0a.62.62,0,0,0-.27-.78L61.19,92a2.22,2.22,0,0,0-3,.87Z"/><g id="Group_8" data-name="Group 8"><path id="Path_20" data-name="Path 20" class="cls-15" d="M57.83,93.53s-.93-.37-1.44.1-1.14,1.55-1.47,1a1.5,1.5,0,0,1,.76-2l0,0a3.92,3.92,0,0,1,2.18.67Z"/></g><g id="Group_9" data-name="Group 9"><path id="Path_21" data-name="Path 21" class="cls-15" d="M58,93.05s-.91-.42-.92-1.11.34-1.89-.28-1.77a1.49,1.49,0,0,0-.89,1.91l0,0c.44.73,2,1.12,2,1.12Z"/></g><line id="Line_1" data-name="Line 1" class="cls-14" x1="62.06" y1="92.46" x2="61.45" y2="93.97"/><line id="Line_2" data-name="Line 2" class="cls-14" x1="62.7" y1="92.73" x2="62.09" y2="94.25"/><line id="Line_3" data-name="Line 3" class="cls-14" x1="63.31" y1="92.99" x2="62.7" y2="94.51"/></g></g><g id="Group_325" data-name="Group 325"><g id="Group_10-2" data-name="Group 10-2"><path id="Path_17-2" data-name="Path 17-2" class="cls-12" d="M71.13,90.8l-.43-.43a2,2,0,0,0-2.78,0,2.09,2.09,0,0,0-.4.57l-3.44,7.48a.44.44,0,0,0,.09.5h0A.61.61,0,0,0,65,99l6-4.87A2.21,2.21,0,0,0,71.27,91l-.14-.17Z"/><path id="Path_18-2" data-name="Path 18-2" class="cls-13" d="M64.06,98.72c2.07-3.33,3.11-9.47,5.8-8.92a13.42,13.42,0,0,1,1.72,1.65c-3.6-1.56-4.38,4.08-7.32,7.44Z"/><path id="Path_19-2" data-name="Path 19-2" class="cls-14" d="M71.13,90.8l-.43-.43a2,2,0,0,0-2.78,0,2.09,2.09,0,0,0-.4.57l-3.44,7.48a.44.44,0,0,0,.09.5h0A.61.61,0,0,0,65,99l6-4.87A2.21,2.21,0,0,0,71.27,91l-.14-.17Z"/><g id="Group_8-2" data-name="Group 8-2"><path id="Path_20-2" data-name="Path 20-2" class="cls-15" d="M70.84,90.4s.69-.72.44-1.37-1-1.63-.4-1.75a1.49,1.49,0,0,1,1.54,1.44v0c-.14.84-1.43,1.78-1.43,1.78Z"/></g><g id="Group_9-2" data-name="Group 9-2"><path id="Path_21-2" data-name="Path 21-2" class="cls-15" d="M71.24,90.7s.72-.69,1.37-.44,1.63,1,1.75.4a1.49,1.49,0,0,0-1.44-1.54h0c-.84.14-1.78,1.43-1.78,1.43Z"/></g><line id="Line_1-2" data-name="Line 1-2" class="cls-14" x1="70.25" y1="94.73" x2="69.08" y2="93.6"/><line id="Line_2-2" data-name="Line 2-2" class="cls-14" x1="69.76" y1="95.22" x2="68.58" y2="94.09"/><line id="Line_3-2" data-name="Line 3-2" class="cls-14" x1="69.29" y1="95.69" x2="68.11" y2="94.56"/></g></g><path id="Path_681" data-name="Path 681" class="cls-16" d="M79.42,92.59c0,4.29-6.1,13.24-10.54,14.92-.53.2.36-2.24-.2-2.1-1.17.29-3,2.8-4.3,2.8s-5.46-2.56-6.54-2.8.69,2.35-.2,1.87c-5.44-3-8.36-9.49-8.36-13.45,0-5.87,7.7.64,14.81.64S79.42,86.73,79.42,92.59Z"/></g></g></g></svg>