<svg id="Layer_1" data-name="Layer 1" xmlns="http://www.w3.org/2000/svg" xmlns:xlink="http://www.w3.org/1999/xlink" viewBox="0 0 96.9 129.86"><defs><style>.cls-1,.cls-12,.cls-6{fill:none;}.cls-2,.cls-5{fill:#c49669;}.cls-10,.cls-11,.cls-14,.cls-15,.cls-16,.cls-2,.cls-3,.cls-6,.cls-9{stroke:#000;}.cls-10,.cls-11,.cls-12,.cls-14,.cls-15,.cls-16,.cls-2,.cls-3,.cls-6,.cls-9{stroke-miterlimit:10;}.cls-3{fill:#b78a62;}.cls-4{fill:#dbd3ad;}.cls-14,.cls-7{fill:#fff;}.cls-8,.cls-9{fill:#634320;}.cls-10{fill:#472018;}.cls-11{fill:#8e2e1e;}.cls-12{stroke:#dbd3ad;}.cls-13{clip-path:url(#clip-path);}.cls-15{fill:#363636;}.cls-17{opacity:0.18;isolation:isolate;}.cls-18{fill:#e5e1cf;}</style><clipPath id="clip-path" transform="translate(-630.52 -318.61)"><circle class="cls-1" cx="695.48" cy="409.4" r="9.2"/></clipPath></defs><g id="Group_356" data-name="Group 356"><g id="Group_334" data-name="Group 334"><path id="Path_737" data-name="Path 737" class="cls-2" d="M717,400.79c18.49,4.66,6.3-18.52,2.53-15.65,0,0-4.2,1.37-4,.55s-1.19-3.67-1.19-3.67c0-1.35,1.3-1.67,3.45-1.27-1.61-1.7-3.13-2.51-4.53-2.35l-13.4,4.8,6.07,21.54,5-.45s8.38-1,9.32-2.68" transform="translate(-630.52 -318.61)"/><path id="Path_738" data-name="Path 738" class="cls-2" d="M714.71,392.83a6.68,6.68,0,0,1,.85,3.69c0,2.07,6.1,1.64,5.32-.67s.84-1.38-1.62-5" transform="translate(-630.52 -318.61)"/></g><path id="Path_739" data-name="Path 739" class="cls-3" d="M703.38,396.69,708.83,430c-7.57-7.2-32.19-19-48.74,8.8-7,11.74-28.9,8.06-29.07,7.05-.33-2,17.43-6.85,18.08-7.11,5.4-2.15,5.2-6,8-13.77C664.31,405.66,684.26,394.17,703.38,396.69Z" transform="translate(-630.52 -318.61)"/><path id="Path_740" data-name="Path 740" class="cls-2" d="M713.06,431.75c4.09-5.5,5.58-15.52,2.8-22a20.89,20.89,0,0,1-1.34-10.43c1-8.95-5.59-27.07-5.59-27.07a18.06,18.06,0,0,0-10.8-3.5c-6,.28-14.54,6.44-17.53,9s-4,22.55-3.74,26.75c0,0-5.9,16.2,2.92,29.53l2.53,2.9a11.64,11.64,0,0,0,8.7,4.27h10.25c5,0,9.52-3.63,11.79-9.41h0" transform="translate(-630.52 -318.61)"/><path id="Path_741" data-name="Path 741" class="cls-4" d="M711.1,410c0,7.57-4.64,14.54-9.88,17.5-.62.35.43-4-.24-3.7-1.38.51-3.54,4.94-5.06,4.94s-6.43-4.51-7.71-4.94.84,4-.24,3.29c-4.6-3.22-7.23-7.83-7.23-14.82,0-10.34,6.8-18.52,15.18-18.52S711.1,399.7,711.1,410Z" transform="translate(-630.52 -318.61)"/><g id="Group_335" data-name="Group 335"><path id="Path_742" data-name="Path 742" class="cls-5" d="M685.89,337.44l-6.77,3a7.06,7.06,0,0,0-4.13,5.44,90.26,90.26,0,0,0-1.09,18.06c-6.41,0-8.64,7.13-3,5.4-3.38,5.07-.42,9.05,2.7,4.73,2,6,3.83,7.26,5.4,4.05,10.16,4.45,20.88,4.62,32.25,0,1.56,3.21,3.35,1.95,5.4-4.05,3.11,4.32,6.07.34,2.7-4.73,5.6,1.73,3.37-5.4-3-5.4.4-6.62-.38-14.1-1.69-21.94l-10.29-4.55c-2.69-1.2-15.72-1.23-18.41,0" transform="translate(-630.52 -318.61)"/><path id="Path_743" data-name="Path 743" class="cls-6" d="M685.89,337.44l-6.77,3a7.06,7.06,0,0,0-4.13,5.44,90.26,90.26,0,0,0-1.09,18.06c-6.41,0-8.64,7.13-3,5.4-3.38,5.07-.42,9.05,2.7,4.73,2,6,3.83,7.26,5.4,4.05,10.16,4.45,20.88,4.62,32.25,0,1.56,3.21,3.35,1.95,5.4-4.05,3.11,4.32,6.07.34,2.7-4.73,5.6,1.73,3.37-5.4-3-5.4.4-6.62-.38-14.1-1.69-21.94l-10.29-4.55C701.6,336.25,688.57,336.21,685.89,337.44Z" transform="translate(-630.52 -318.61)"/><path id="Path_744" data-name="Path 744" class="cls-7" d="M687.74,360.4c0,1.21-2,2.19-4.56,2.19s-4.55-1-4.55-2.19,2-2.2,4.55-2.2,4.56,1,4.56,2.2" transform="translate(-630.52 -318.61)"/><ellipse id="Ellipse_159" data-name="Ellipse 159" class="cls-6" cx="52.67" cy="41.79" rx="4.56" ry="2.19"/><path id="Path_745" data-name="Path 745" class="cls-4" d="M702.25,366.3a6.42,6.42,0,1,1-6.76-6.06h.35a6.24,6.24,0,0,1,6.41,6.07" transform="translate(-630.52 -318.61)"/><path id="Path_746" data-name="Path 746" class="cls-6" d="M702.25,366.3a6.42,6.42,0,1,1-6.76-6.06h.35A6.24,6.24,0,0,1,702.25,366.3Z" transform="translate(-630.52 -318.61)"/><path id="Path_747" data-name="Path 747" d="M701.41,363.43c0,1.68-3.29,1.69-5.06,1.69s-5.74,0-5.74-1.69,3.46-3.2,5.23-3.2,5.57,1.53,5.57,3.2" transform="translate(-630.52 -318.61)"/><path id="Path_748" data-name="Path 748" class="cls-5" d="M668.18,335c-3.06-6.73-2.37-13.63,1.53-15.4s9.55,2.25,12.61,9c2.07,4.56,3.58,9.13,1.69,11.82a7.58,7.58,0,0,1-2.57,1.37c-.77.36-3.07,2.66-3.16,2.6-3-1.9-7.65-4-10.1-9.37" transform="translate(-630.52 -318.61)"/><path id="Path_749" data-name="Path 749" class="cls-6" d="M668.18,335c-3.06-6.73-2.37-13.63,1.53-15.4s9.55,2.25,12.61,9c2.07,4.56,3.58,9.13,1.69,11.82a7.58,7.58,0,0,1-2.57,1.37c-.77.36-3.07,2.66-3.16,2.6C675.26,342.52,670.63,340.43,668.18,335Z" transform="translate(-630.52 -318.61)"/><path id="Path_750" data-name="Path 750" class="cls-5" d="M721.67,336.64c4.7-6.4,5.49-13.8,1.78-16.53s-10.53.27-15.23,6.67c-3.18,4.34-5.77,8.81-4.37,12.06.25.58,1.19,1.12,2.39,2,.74.54,2.65,3.47,2.76,3.43,3.58-1.33,8.91-2.5,12.67-7.63" transform="translate(-630.52 -318.61)"/><path id="Path_751" data-name="Path 751" class="cls-6" d="M721.67,336.64c4.7-6.4,5.49-13.8,1.78-16.53s-10.53.27-15.23,6.67c-3.18,4.34-5.77,8.81-4.37,12.06.25.58,1.19,1.12,2.39,2,.74.54,2.65,3.47,2.76,3.43C712.58,342.94,717.91,341.77,721.67,336.64Z" transform="translate(-630.52 -318.61)"/><path id="Path_752" data-name="Path 752" class="cls-8" d="M668.86,335.5c-2.89-6.36-2.24-12.87,1.45-14.55s9,2.13,11.9,8.49c2,4.3,3.39,8.62,1.6,11.17a7.06,7.06,0,0,1-2.42,1.29c-.73.33-2.9,2.51-3,2.46-2.84-1.8-7.22-3.77-9.54-8.86" transform="translate(-630.52 -318.61)"/><path id="Path_753" data-name="Path 753" class="cls-6" d="M668.86,335.5c-2.89-6.36-2.24-12.87,1.45-14.55s9,2.13,11.9,8.49c2,4.3,3.39,8.62,1.6,11.17a7.06,7.06,0,0,1-2.42,1.29c-.73.33-2.9,2.51-3,2.46C675.56,342.56,671.18,340.59,668.86,335.5Z" transform="translate(-630.52 -318.61)"/><path id="Path_754" data-name="Path 754" class="cls-8" d="M720.65,337.06c4.38-6,5.12-12.86,1.66-15.39s-9.81.24-14.18,6.21c-3,4-5.37,8.2-4.07,11.23.23.54,1.11,1,2.23,1.86.69.51,2.46,3.23,2.56,3.2,3.34-1.24,8.3-2.33,11.8-7.11" transform="translate(-630.52 -318.61)"/><path id="Path_755" data-name="Path 755" class="cls-6" d="M720.65,337.06c4.38-6,5.12-12.86,1.66-15.39s-9.81.24-14.18,6.21c-3,4-5.37,8.2-4.07,11.23.23.54,1.11,1,2.23,1.86.69.51,2.46,3.23,2.56,3.2C712.19,342.93,717.15,341.83,720.65,337.06Z" transform="translate(-630.52 -318.61)"/><path id="Path_756" data-name="Path 756" d="M685.38,360.23a1.86,1.86,0,1,1-1.86-2,2,2,0,0,1,1.86,2" transform="translate(-630.52 -318.61)"/><path id="Path_757" data-name="Path 757" class="cls-7" d="M704.28,360.4c0,1.21,2,2.19,4.56,2.19s4.55-1,4.55-2.19-2-2.2-4.55-2.2-4.56,1-4.56,2.2" transform="translate(-630.52 -318.61)"/><ellipse id="Ellipse_160" data-name="Ellipse 160" class="cls-6" cx="78.32" cy="41.79" rx="4.56" ry="2.19"/><path id="Path_758" data-name="Path 758" d="M706.64,360.23a1.86,1.86,0,1,0,1.86-2,2,2,0,0,0-1.86,2" transform="translate(-630.52 -318.61)"/><path id="Path_759" data-name="Path 759" class="cls-7" d="M685.71,359.72a.61.61,0,0,1-.67.51c-.38,0-.68-.23-.68-.51s.3-.51.68-.51a.61.61,0,0,1,.67.51" transform="translate(-630.52 -318.61)"/><path id="Path_760" data-name="Path 760" class="cls-7" d="M707.82,359.55a.61.61,0,0,1-.67.51c-.38,0-.68-.23-.68-.51s.3-.5.68-.5.67.22.67.5" transform="translate(-630.52 -318.61)"/><path id="Path_761" data-name="Path 761" class="cls-9" d="M705,353c.09-.52,1-1.17,1.16-1.27a3.16,3.16,0,0,1,1.43-.36,5,5,0,0,1,2.84.93l1,.61c.63.4,1.25.82,1.85,1.29a.14.14,0,0,1,.06.11.12.12,0,0,1-.12.13h0c-1.13-.26-2.8-.93-3.94-1.11-1.46-.25-2.4.38-3.86.13a.36.36,0,0,1-.25-.11A.38.38,0,0,1,705,353Z" transform="translate(-630.52 -318.61)"/><path id="Path_762" data-name="Path 762" class="cls-9" d="M687.28,353c-.09-.52-1-1.17-1.16-1.27a3.16,3.16,0,0,0-1.43-.36,5,5,0,0,0-2.84.93l-1,.61c-.63.4-1.25.82-1.85,1.29a.14.14,0,0,0-.06.11.12.12,0,0,0,.12.13h0c1.13-.26,2.8-.93,3.94-1.11,1.46-.25,2.4.38,3.86.13a.36.36,0,0,0,.25-.11A.41.41,0,0,0,687.28,353Z" transform="translate(-630.52 -318.61)"/><path id="Path_763" data-name="Path 763" class="cls-5" d="M696.93,337.34c2.87-2.07.22-4-3.14-1.79,1.15-3.72-3.58-2.24-3.58,2" transform="translate(-630.52 -318.61)"/><path id="Path_764" data-name="Path 764" class="cls-6" d="M696.93,337.34c2.87-2.07.22-4-3.14-1.79,1.15-3.72-3.58-2.24-3.58,2" transform="translate(-630.52 -318.61)"/><path id="Path_765" data-name="Path 765" class="cls-10" d="M692.56,369.45c-.41-.54.23-1.55.86-1.08,1.32,1,4.08,1.08,5.47.63.37-.12.59.38.42.66a4.79,4.79,0,0,1-1.38,1.42,3.48,3.48,0,0,1-4.65-.67Z" transform="translate(-630.52 -318.61)"/><path id="Path_766" data-name="Path 766" class="cls-11" d="M695.54,370a4.85,4.85,0,0,0-2.15.5,3.48,3.48,0,0,0,4.54.54l.28-.21A4.56,4.56,0,0,0,695.54,370Z" transform="translate(-630.52 -318.61)"/></g><path id="Path_767" data-name="Path 767" class="cls-2" d="M716.53,413.82c2.33,2.05,3.49-.6.91-3,3.4.25,1.22-3.5-2.42-2.66" transform="translate(-630.52 -318.61)"/><path id="Path_768" data-name="Path 768" class="cls-2" d="M676.11,415.88c-2,2.81-4,.22-1.76-3.08-3.65,1.12-2.2-3.52,2-3.52" transform="translate(-630.52 -318.61)"/><ellipse id="Ellipse_161" data-name="Ellipse 161" class="cls-2" cx="86.48" cy="111.22" rx="9.85" ry="13.83"/><ellipse id="Ellipse_162" data-name="Ellipse 162" class="cls-2" cx="44.28" cy="112.3" rx="9.7" ry="13.83"/><path id="Path_769" data-name="Path 769" class="cls-2" d="M686.28,391.74s6.06-.58,8.88,1.73" transform="translate(-630.52 -318.61)"/><path id="Path_770" data-name="Path 770" class="cls-2" d="M689,390.56a12.2,12.2,0,0,1-2.7-.21" transform="translate(-630.52 -318.61)"/><path id="Path_771" data-name="Path 771" class="cls-2" d="M680,446.84H669.87c-2.16,0-3.84-1.51-3.63-3.26l.4-3.35a3.45,3.45,0,0,1,3.63-2.68h9.33a3.45,3.45,0,0,1,3.63,2.68l.4,3.35C683.84,445.33,682.16,446.84,680,446.84Z" transform="translate(-630.52 -318.61)"/><line id="Line_25" data-name="Line 25" class="cls-6" x1="41.15" y1="121.96" x2="41.15" y2="128.23"/><line id="Line_26" data-name="Line 26" class="cls-6" x1="47.69" y1="121.96" x2="47.69" y2="128.23"/><line id="Line_27" data-name="Line 27" class="cls-6" x1="44.69" y1="121.96" x2="44.69" y2="128.23"/><path id="Path_772" data-name="Path 772" class="cls-2" d="M723.22,448H713c-2.19,0-3.9-1.51-3.68-3.26l.4-3.35a3.5,3.5,0,0,1,3.69-2.68h9.45a3.49,3.49,0,0,1,3.68,2.68l.41,3.35C727.11,446.46,725.4,448,723.22,448Z" transform="translate(-630.52 -318.61)"/><line id="Line_28" data-name="Line 28" class="cls-6" x1="83.98" y1="123.09" x2="83.98" y2="129.36"/><line id="Line_29" data-name="Line 29" class="cls-6" x1="90.61" y1="123.09" x2="90.61" y2="129.36"/><line id="Line_30" data-name="Line 30" class="cls-6" x1="87.57" y1="123.09" x2="87.57" y2="129.36"/><path id="Path_773" data-name="Path 773" class="cls-12" d="M712.21,381.51s1.91.92,1.08,2.59" transform="translate(-630.52 -318.61)"/><path id="Path_774" data-name="Path 774" class="cls-12" d="M673.82,392.86s.4.87,1.11.87" transform="translate(-630.52 -318.61)"/><path id="Path_775" data-name="Path 775" class="cls-12" d="M693.72,375.2" transform="translate(-630.52 -318.61)"/><path id="Path_776" data-name="Path 776" class="cls-2" d="M690,413.54a12.41,12.41,0,0,1-2.6-.73" transform="translate(-630.52 -318.61)"/><path id="Path_777" data-name="Path 777" class="cls-2" d="M697.52,374.6a9.18,9.18,0,0,1-2-.57" transform="translate(-630.52 -318.61)"/><path id="Path_778" data-name="Path 778" class="cls-2" d="M667.88,430.86c-1,1.87-2.65.74-1.58-1.42-2.33,1.18-1.94-1.6.9-2.25" transform="translate(-630.52 -318.61)"/><path id="Path_779" data-name="Path 779" class="cls-2" d="M722,427.69c2.33,2.05,3.48-.6.91-3,3.4.25,1.21-3.5-2.42-2.66" transform="translate(-630.52 -318.61)"/><g id="Group_355" data-name="Group 355"><g id="Group_354" data-name="Group 354"><g class="cls-13"><g id="Group_353" data-name="Group 353"><circle id="Ellipse_163" data-name="Ellipse 163" class="cls-14" cx="64.96" cy="90.79" r="9.36"/><g id="Group_336" data-name="Group 336"><path id="Path_780" data-name="Path 780" class="cls-15" d="M690.68,402.86h0a.16.16,0,0,1-.15-.16h0a5.41,5.41,0,0,1,.34-1.78.15.15,0,1,1,.27.15h0a5.06,5.06,0,0,0-.3,1.64A.17.17,0,0,1,690.68,402.86Z" transform="translate(-630.52 -318.61)"/></g><g id="Group_337" data-name="Group 337"><path id="Path_781" data-name="Path 781" class="cls-15" d="M686.76,406.09a.16.16,0,0,1-.16-.15.16.16,0,0,1,.08-.14,4.94,4.94,0,0,1,1.3-.42.15.15,0,0,1,.16.14.15.15,0,0,1-.11.16,4.22,4.22,0,0,0-1.2.39Z" transform="translate(-630.52 -318.61)"/></g><g id="Group_338" data-name="Group 338"><path id="Path_782" data-name="Path 782" class="cls-15" d="M693.65,403.71a.16.16,0,0,1-.16-.15.14.14,0,0,1,.07-.13,10.27,10.27,0,0,1,4.18-1.27.15.15,0,0,1,.19.1.16.16,0,0,1-.11.19h-.05a10.3,10.3,0,0,0-4,1.22A.11.11,0,0,1,693.65,403.71Z" transform="translate(-630.52 -318.61)"/></g><g id="Group_339" data-name="Group 339"><path id="Path_783" data-name="Path 783" class="cls-15" d="M700.54,409.2a.16.16,0,0,1-.16-.15v0a16.14,16.14,0,0,0,.46-4,.16.16,0,1,1,.31,0h0a16.34,16.34,0,0,1-.47,4.12A.16.16,0,0,1,700.54,409.2Z" transform="translate(-630.52 -318.61)"/></g><g id="Group_340" data-name="Group 340"><path id="Path_784" data-name="Path 784" class="cls-15" d="M696.51,410.44a.18.18,0,0,1-.1,0c-2.39-2.1-3.68-3.16-3.69-3.17a.17.17,0,0,1,0-.22.15.15,0,0,1,.22,0s1.31,1.08,3.7,3.18a.16.16,0,0,1,0,.22.17.17,0,0,1-.12.05Z" transform="translate(-630.52 -318.61)"/></g><g id="Group_341" data-name="Group 341"><path id="Path_785" data-name="Path 785" class="cls-15" d="M688.88,412.6a.17.17,0,0,1-.16-.15,12.24,12.24,0,0,1,.52-4.08.15.15,0,0,1,.19-.1.16.16,0,0,1,.1.19,12.14,12.14,0,0,0-.5,4,.16.16,0,0,1-.14.17h0Z" transform="translate(-630.52 -318.61)"/></g><g id="Group_342" data-name="Group 342"><path id="Path_786" data-name="Path 786" class="cls-15" d="M691.92,415.63a.14.14,0,0,1-.14-.16.15.15,0,0,1,.11-.14,28.18,28.18,0,0,0,4.06-1.39.15.15,0,0,1,.2.08.14.14,0,0,1-.07.2h0a29.87,29.87,0,0,1-4.12,1.41Z" transform="translate(-630.52 -318.61)"/></g><g id="Group_343" data-name="Group 343"><path id="Path_787" data-name="Path 787" class="cls-15" d="M699.21,418.14h-.06a.14.14,0,0,1-.09-.19h0a6.33,6.33,0,0,0,.4-2.28.16.16,0,0,1,.15-.16h0a.16.16,0,0,1,.16.15,6.79,6.79,0,0,1-.43,2.4A.14.14,0,0,1,699.21,418.14Z" transform="translate(-630.52 -318.61)"/></g><g id="Group_344" data-name="Group 344"><path id="Path_788" data-name="Path 788" class="cls-15" d="M696,418.87h0a13.65,13.65,0,0,1-3.91-1.55.16.16,0,0,1-.06-.21.15.15,0,0,1,.21-.05,13.91,13.91,0,0,0,3.81,1.51.16.16,0,0,1,.11.19.15.15,0,0,1-.13.11Z" transform="translate(-630.52 -318.61)"/></g><g id="Group_345" data-name="Group 345"><path id="Path_789" data-name="Path 789" class="cls-15" d="M702.28,412.5h-.1a.16.16,0,0,1-.15-.17.16.16,0,0,1,.17-.14,5.08,5.08,0,0,0,2.26-.57.14.14,0,0,1,.2.07.15.15,0,0,1-.07.2A5.67,5.67,0,0,1,702.28,412.5Z" transform="translate(-630.52 -318.61)"/></g><g id="Group_346" data-name="Group 346"><path id="Path_790" data-name="Path 790" class="cls-15" d="M704.72,408.57a.15.15,0,0,1-.14-.12,8.11,8.11,0,0,0-2-3.53.16.16,0,0,1,0-.22.15.15,0,0,1,.21,0,8.21,8.21,0,0,1,2.12,3.69.14.14,0,0,1-.1.18h0Z" transform="translate(-630.52 -318.61)"/></g><g id="Group_351" data-name="Group 351"><g id="Group_347" data-name="Group 347"><path id="Path_791" data-name="Path 791" class="cls-16" d="M701.49,405l.41,0a1,1,0,0,0,.85-.88,2.41,2.41,0,0,0,0-.27h0a9.17,9.17,0,0,0-3.65-2.84,1,1,0,0,0-1.27.49l-.06.16v0a1,1,0,0,0,.44,1,11.44,11.44,0,0,1,2.48,2A1,1,0,0,0,701.49,405Z" transform="translate(-630.52 -318.61)"/></g><g id="Group_348" data-name="Group 348"><path id="Path_792" data-name="Path 792" class="cls-16" d="M688.17,406.23a8.33,8.33,0,0,0,.52,1.14,1.41,1.41,0,0,0,1.75.63c.42-.17,1-.38,1.63-.6a1.41,1.41,0,0,0,.93-1.07c.08-.43.21-1,.38-1.68a1.42,1.42,0,0,0-.9-1.68,7.69,7.69,0,0,0-1.24-.29,1.4,1.4,0,0,0-1,.25,8.2,8.2,0,0,0-1.87,2A1.4,1.4,0,0,0,688.17,406.23Z" transform="translate(-630.52 -318.61)"/></g><g id="Group_349" data-name="Group 349"><path id="Path_793" data-name="Path 793" class="cls-16" d="M699.22,409.42c-.45.14-1,.3-1.54.46a1.91,1.91,0,0,0-1.42,1.64c-.06.45-.12,1-.18,1.44a1.93,1.93,0,0,0,1,2,7.24,7.24,0,0,0,1.47.61,1.89,1.89,0,0,0,1.86-.51,9.25,9.25,0,0,0,1.53-2,1.86,1.86,0,0,0,.12-1.48,8.24,8.24,0,0,0-.54-1.21A1.93,1.93,0,0,0,699.22,409.42Z" transform="translate(-630.52 -318.61)"/></g><g id="Group_350" data-name="Group 350"><path id="Path_794" data-name="Path 794" class="cls-16" d="M689.38,413.08a1,1,0,0,0-1.18-.28,8.89,8.89,0,0,1-1,.38l0,.12a9.27,9.27,0,0,0,3.8,4.11l.18-.08h0a1,1,0,0,0,.93-1c0-.1,0-.22,0-.34a1,1,0,0,0-.4-.81A14.77,14.77,0,0,1,689.38,413.08Z" transform="translate(-630.52 -318.61)"/></g></g><g id="Group_352" data-name="Group 352"><path id="Path_795" data-name="Path 795" class="cls-6" d="M696.43,418.71a9.36,9.36,0,1,1,8.36-10.27,10.26,10.26,0,0,1,0,1.92A9.37,9.37,0,0,1,696.43,418.71Zm0-18.31a9.05,9.05,0,1,0,8.08,9.93,8.26,8.26,0,0,0,0-1.86,9.07,9.07,0,0,0-8.08-8.08Z" transform="translate(-630.52 -318.61)"/></g><path id="Path_796" data-name="Path 796" class="cls-17" d="M704.31,409.4c0,3.6-2.87,8.93-6.58,8.93s-2.56.42-1.61-8.93c.44-4.38-10-8.13-.4-8.83C699.42,400.31,704.31,405,704.31,409.4Z" transform="translate(-630.52 -318.61)"/></g></g><circle id="Ellipse_165" data-name="Ellipse 165" class="cls-6" cx="64.96" cy="90.79" r="9.2"/></g></g><path id="Path_797" data-name="Path 797" class="cls-18" d="M711.48,413c0,4.38-6.23,13.5-10.75,15.21-.54.2.37-2.29-.21-2.14-1.2.3-3.06,2.85-4.38,2.85s-5.57-2.6-6.67-2.85.7,2.4-.21,1.9c-5.55-3-8.52-9.68-8.52-13.72,0-6,7.85.65,15.1.65S711.48,407,711.48,413Z" transform="translate(-630.52 -318.61)"/><path id="Path_798" data-name="Path 798" class="cls-2" d="M682.19,404.46s-12.16.48-10-10.67c1.87-9.56,4.83-11.55,6.8-11.58,0,0,9.47,4.69,10.06,8.25,2.41-.48,5.41,2.37,5.41,2.37C699.28,396.63,697.18,408.73,682.19,404.46Z" transform="translate(-630.52 -318.61)"/><path id="Path_799" data-name="Path 799" class="cls-2" d="M683.49,385.06c3-.55,1.7-3.1-1.8-2.6,2.32-2.5-2-3.13-3.59.24" transform="translate(-630.52 -318.61)"/></g></svg>