<svg id="Layer_1" data-name="Layer 1" xmlns="http://www.w3.org/2000/svg" viewBox="0 0 95.85 128.45"><defs><style>.cls-1,.cls-6{fill:#c49669;}.cls-1,.cls-10,.cls-11,.cls-2,.cls-7,.cls-9{stroke:#000;}.cls-1,.cls-10,.cls-11,.cls-12,.cls-2,.cls-7,.cls-9{stroke-miterlimit:10;}.cls-2{fill:#b78a62;}.cls-3{fill:#dbd3ad;}.cls-4{fill:#fff;}.cls-5{fill:#e5e1cf;}.cls-12,.cls-7{fill:none;}.cls-8,.cls-9{fill:#634320;}.cls-10{fill:#472018;}.cls-11{fill:#8e2e1e;}.cls-12{stroke:#dbd3ad;}</style></defs><g id="Group_360" data-name="Group 360"><g id="Group_357" data-name="Group 357"><path id="Path_800" data-name="Path 800" class="cls-1" d="M716.58,400.6c18.29,4.61,6.23-18.32,2.5-15.47,0,0-4.16,1.35-3.9.54S714,382,714,382c0-1.33,1.28-1.65,3.42-1.26-1.6-1.68-3.1-2.48-4.48-2.32l-13.25,4.75,6,21.3,4.91-.44s8.29-1,9.22-2.66" transform="translate(-631.09 -319.32)"/><path id="Path_801" data-name="Path 801" class="cls-1" d="M714.37,392.73a6.64,6.64,0,0,1,.83,3.65c0,2.05,6,1.63,5.26-.66s.83-1.36-1.6-5" transform="translate(-631.09 -319.32)"/></g><path id="Path_802" data-name="Path 802" class="cls-2" d="M703.15,396.55l5.4,33c-7.48-7.13-31.84-18.79-48.21,8.7-6.92,11.61-28.58,8-28.75,7-.32-2,17.24-6.77,17.89-7,5.34-2.13,5.14-6,8-13.62C664.51,405.42,684.25,394.06,703.15,396.55Z" transform="translate(-631.09 -319.32)"/><path id="Path_803" data-name="Path 803" class="cls-1" d="M712.73,431.22c4-5.43,5.52-15.35,2.78-21.77a20.55,20.55,0,0,1-1.33-10.32c1-8.84-5.53-26.76-5.53-26.76A17.9,17.9,0,0,0,698,368.9c-5.92.28-14.37,6.38-17.33,8.87s-3.92,22.3-3.7,26.46c0,0-5.84,16,2.88,29.21l2.51,2.86a11.48,11.48,0,0,0,8.6,4.23h10.14c4.91,0,9.41-3.59,11.66-9.31h0" transform="translate(-631.09 -319.32)"/><path id="Path_804" data-name="Path 804" class="cls-3" d="M710.8,409.76a20.72,20.72,0,0,1-9.78,17.3c-.62.35.43-3.91-.23-3.67-1.37.51-3.5,4.89-5,4.89s-6.36-4.46-7.63-4.89.83,4-.24,3.26c-4.55-3.18-7.15-7.74-7.15-14.66,0-10.23,6.73-18.32,15-18.32S710.8,399.52,710.8,409.76Z" transform="translate(-631.09 -319.32)"/><g id="Group_358" data-name="Group 358"><path id="Path_805" data-name="Path 805" class="cls-4" d="M696.18,414.31a2.77,2.77,0,1,1,2.78-2.76,2.77,2.77,0,0,1-2.78,2.76Zm-.49-4.4a.65.65,0,1,0,.64.65h0a.64.64,0,0,0-.63-.65Zm1.28,2.4a.33.33,0,0,0-.33.32h0a.32.32,0,0,0,.33.32.32.32,0,1,0,0-.64Z" transform="translate(-631.09 -319.32)"/><path id="Path_806" data-name="Path 806" class="cls-4" d="M700.76,412.16l1,.68.93.63a.13.13,0,0,1,.06.18h0a6.87,6.87,0,0,1-4.26,4.36h-.06l.09-.92.18-1.57a.17.17,0,0,1,.07-.13A4.8,4.8,0,0,0,700.76,412.16Z" transform="translate(-631.09 -319.32)"/><path id="Path_807" data-name="Path 807" class="cls-4" d="M691.6,410.8l-2-1.41a6.93,6.93,0,0,1,4.27-4.36c0,.26,0,.51-.07.75l-.14,1.46a2.58,2.58,0,0,1,0,.39.22.22,0,0,1-.11.14,4.54,4.54,0,0,0-1.64,2.06C691.77,410.14,691.7,410.47,691.6,410.8Z" transform="translate(-631.09 -319.32)"/><path id="Path_808" data-name="Path 808" class="cls-4" d="M700.63,406.31l-2.32,1.05a.22.22,0,0,1-.16,0,5,5,0,0,0-1.78-.42,4.81,4.81,0,0,0-1.8.28c0-.37.07-.74.11-1.11s.08-.72.11-1.07c0-.15.05-.25.22-.26.49,0,1-.1,1.46-.08a6.78,6.78,0,0,1,3.39,1.07C700.11,405.93,700.36,406.12,700.63,406.31Z" transform="translate(-631.09 -319.32)"/><path id="Path_809" data-name="Path 809" class="cls-4" d="M697.67,415.64l-.18,2.42a6.9,6.9,0,0,1-6-1.38l.68-.33,1.32-.64.36-.17a.28.28,0,0,1,.18,0,4.41,4.41,0,0,0,2.61.33A9.4,9.4,0,0,0,697.67,415.64Z" transform="translate(-631.09 -319.32)"/><path id="Path_810" data-name="Path 810" class="cls-4" d="M689.13,410.26c.73.5,1.43,1,2.12,1.44a.22.22,0,0,1,.08.13,4.68,4.68,0,0,0,.56,1.74,4.81,4.81,0,0,0,1.18,1.4l-1,.49-1,.46c-.14.06-.24.08-.33-.06-.28-.4-.6-.78-.84-1.2a6.84,6.84,0,0,1-.84-3.46C689.08,410.9,689.11,410.59,689.13,410.26Z" transform="translate(-631.09 -319.32)"/><path id="Path_811" data-name="Path 811" class="cls-4" d="M698.83,407.8l1.08-.52,1-.49a.13.13,0,0,1,.19,0h0a6.88,6.88,0,0,1,1.67,5.87l0,0c-.26-.18-.51-.35-.76-.54-.42-.3-.85-.61-1.27-.93a.2.2,0,0,1-.08-.12A4.81,4.81,0,0,0,698.83,407.8Z" transform="translate(-631.09 -319.32)"/></g><path id="Path_812" data-name="Path 812" class="cls-5" d="M711.16,412.68c0,4.33-6.15,13.35-10.63,15-.53.2.37-2.26-.2-2.12-1.19.3-3,2.83-4.33,2.83s-5.51-2.58-6.6-2.83.7,2.38-.21,1.89c-5.49-3-8.43-9.57-8.43-13.57,0-5.92,7.77.65,14.94.65S711.16,406.76,711.16,412.68Z" transform="translate(-631.09 -319.32)"/><g id="Group_359" data-name="Group 359"><path id="Path_813" data-name="Path 813" class="cls-6" d="M685.85,338l-6.69,3a7,7,0,0,0-4.09,5.38A89.1,89.1,0,0,0,674,364.16c-6.34,0-8.55,7-3,5.34-3.34,5-.41,8.95,2.67,4.67,2,5.94,3.8,7.19,5.34,4,10.06,4.4,20.66,4.57,31.9,0,1.55,3.18,3.33,1.93,5.35-4,3.08,4.28,6,.34,2.67-4.67,5.54,1.71,3.33-5.34-3-5.34.4-6.56-.38-14-1.67-21.7L704.06,338c-2.66-1.18-15.55-1.22-18.21,0" transform="translate(-631.09 -319.32)"/><path id="Path_814" data-name="Path 814" class="cls-7" d="M685.85,338l-6.69,3a7,7,0,0,0-4.09,5.38A89.1,89.1,0,0,0,674,364.16c-6.34,0-8.55,7-3,5.34-3.34,5-.41,8.95,2.67,4.67,2,5.94,3.8,7.19,5.34,4,10.06,4.4,20.66,4.57,31.9,0,1.55,3.18,3.33,1.93,5.35-4,3.08,4.28,6,.34,2.67-4.67,5.54,1.71,3.33-5.34-3-5.34.4-6.56-.38-14-1.67-21.7L704.06,338C701.4,336.77,688.51,336.73,685.85,338Z" transform="translate(-631.09 -319.32)"/><path id="Path_815" data-name="Path 815" class="cls-4" d="M687.69,360.65c0,1.2-2,2.17-4.51,2.17s-4.51-1-4.51-2.17,2-2.17,4.51-2.17,4.51,1,4.51,2.17" transform="translate(-631.09 -319.32)"/><ellipse id="Ellipse_166" data-name="Ellipse 166" class="cls-7" cx="52.09" cy="41.33" rx="4.51" ry="2.17"/><path id="Path_816" data-name="Path 816" class="cls-3" d="M702,366.49a6.35,6.35,0,1,1-6.68-6h.34a6.18,6.18,0,0,1,6.34,6" transform="translate(-631.09 -319.32)"/><path id="Path_817" data-name="Path 817" class="cls-7" d="M702,366.49a6.35,6.35,0,1,1-6.68-6h.34A6.18,6.18,0,0,1,702,366.49Z" transform="translate(-631.09 -319.32)"/><path id="Path_818" data-name="Path 818" d="M701.21,363.66c0,1.66-3.26,1.67-5,1.67s-5.67,0-5.67-1.67,3.42-3.18,5.17-3.18,5.51,1.52,5.51,3.18" transform="translate(-631.09 -319.32)"/><path id="Path_819" data-name="Path 819" class="cls-6" d="M668.34,335.57c-3-6.66-2.35-13.48,1.51-15.23s9.45,2.22,12.47,8.88c2,4.51,3.55,9,1.67,11.7a7.45,7.45,0,0,1-2.53,1.35c-.77.35-3,2.64-3.13,2.58-3-1.88-7.57-3.94-10-9.27" transform="translate(-631.09 -319.32)"/><path id="Path_820" data-name="Path 820" class="cls-7" d="M668.34,335.57c-3-6.66-2.35-13.48,1.51-15.23s9.45,2.22,12.47,8.88c2,4.51,3.55,9,1.67,11.7a7.45,7.45,0,0,1-2.53,1.35c-.77.35-3,2.64-3.13,2.58C675.35,343,670.76,340.9,668.34,335.57Z" transform="translate(-631.09 -319.32)"/><path id="Path_821" data-name="Path 821" class="cls-6" d="M721.25,337.16c4.64-6.34,5.43-13.66,1.75-16.35s-10.41.26-15,6.6c-3.15,4.29-5.71,8.72-4.33,11.93.25.57,1.18,1.11,2.37,2,.73.53,2.61,3.43,2.72,3.39,3.55-1.32,8.82-2.48,12.54-7.55" transform="translate(-631.09 -319.32)"/><path id="Path_822" data-name="Path 822" class="cls-7" d="M721.25,337.16c4.64-6.34,5.43-13.66,1.75-16.35s-10.41.26-15,6.6c-3.15,4.29-5.71,8.72-4.33,11.93.25.57,1.18,1.11,2.37,2,.73.53,2.61,3.43,2.72,3.39C712.25,343.39,717.53,342.23,721.25,337.16Z" transform="translate(-631.09 -319.32)"/><path id="Path_823" data-name="Path 823" class="cls-8" d="M669,336c-2.86-6.29-2.22-12.73,1.43-14.39s8.91,2.1,11.77,8.39c1.94,4.26,3.35,8.53,1.58,11.05a7.09,7.09,0,0,1-2.39,1.28c-.73.33-2.87,2.49-3,2.43-2.81-1.77-7.15-3.72-9.43-8.76" transform="translate(-631.09 -319.32)"/><path id="Path_824" data-name="Path 824" class="cls-7" d="M669,336c-2.86-6.29-2.22-12.73,1.43-14.39s8.91,2.1,11.77,8.39c1.94,4.26,3.35,8.53,1.58,11.05a7.09,7.09,0,0,1-2.39,1.28c-.73.33-2.87,2.49-3,2.43C675.64,343,671.3,341.07,669,336Z" transform="translate(-631.09 -319.32)"/><path id="Path_825" data-name="Path 825" class="cls-8" d="M720.24,337.57c4.33-5.9,5.06-12.72,1.64-15.22s-9.7.24-14,6.14c-2.93,4-5.32,8.12-4,11.11.23.53,1.1,1,2.2,1.84.68.5,2.43,3.2,2.54,3.16,3.3-1.23,8.21-2.31,11.67-7" transform="translate(-631.09 -319.32)"/><path id="Path_826" data-name="Path 826" class="cls-7" d="M720.24,337.57c4.33-5.9,5.06-12.72,1.64-15.22s-9.7.24-14,6.14c-2.93,4-5.32,8.12-4,11.11.23.53,1.1,1,2.2,1.84.68.5,2.43,3.2,2.54,3.16C711.87,343.37,716.78,342.29,720.24,337.57Z" transform="translate(-631.09 -319.32)"/><path id="Path_827" data-name="Path 827" d="M685.35,360.48a1.84,1.84,0,1,1-1.83-2,1.93,1.93,0,0,1,1.83,2" transform="translate(-631.09 -319.32)"/><path id="Path_828" data-name="Path 828" class="cls-4" d="M704.05,360.65c0,1.2,2,2.17,4.5,2.17s4.51-1,4.51-2.17-2-2.17-4.51-2.17-4.5,1-4.5,2.17" transform="translate(-631.09 -319.32)"/><ellipse id="Ellipse_167" data-name="Ellipse 167" class="cls-7" cx="77.46" cy="41.33" rx="4.51" ry="2.17"/><path id="Path_829" data-name="Path 829" d="M706.38,360.48a1.85,1.85,0,1,0,1.84-2,1.93,1.93,0,0,0-1.84,2" transform="translate(-631.09 -319.32)"/><path id="Path_830" data-name="Path 830" class="cls-4" d="M685.68,360c0,.28-.3.5-.66.5s-.67-.22-.67-.5.3-.5.67-.5.66.23.66.5" transform="translate(-631.09 -319.32)"/><path id="Path_831" data-name="Path 831" class="cls-4" d="M707.55,359.82c0,.27-.3.5-.67.5s-.66-.23-.66-.5.3-.5.66-.5.67.22.67.5" transform="translate(-631.09 -319.32)"/><path id="Path_832" data-name="Path 832" class="cls-9" d="M704.76,353.3c.09-.52,1-1.16,1.15-1.26a3.17,3.17,0,0,1,1.41-.36,5,5,0,0,1,2.8.92l.94.61c.62.4,1.24.81,1.84,1.28a.13.13,0,0,1,.05.11.11.11,0,0,1-.11.12h0c-1.11-.26-2.77-.93-3.9-1.1-1.43-.25-2.37.36-3.81.12a.35.35,0,0,1-.33-.44Z" transform="translate(-631.09 -319.32)"/><path id="Path_833" data-name="Path 833" class="cls-9" d="M687.23,353.3c-.08-.52-1-1.16-1.15-1.26a3.17,3.17,0,0,0-1.41-.36,5,5,0,0,0-2.8.92l-.94.61a22.31,22.31,0,0,0-1.83,1.28.11.11,0,0,0-.06.11.12.12,0,0,0,.12.12h0c1.11-.26,2.77-.93,3.9-1.1,1.44-.25,2.38.36,3.81.12a.36.36,0,0,0,.26-.11A.39.39,0,0,0,687.23,353.3Z" transform="translate(-631.09 -319.32)"/><path id="Path_834" data-name="Path 834" class="cls-6" d="M696.78,337.85c2.83-2.05.22-4-3.1-1.77,1.13-3.68-3.55-2.22-3.55,2" transform="translate(-631.09 -319.32)"/><path id="Path_835" data-name="Path 835" class="cls-7" d="M696.78,337.85c2.83-2.05.22-4-3.1-1.77,1.13-3.68-3.55-2.22-3.55,2" transform="translate(-631.09 -319.32)"/><path id="Path_836" data-name="Path 836" class="cls-10" d="M692.46,369.61c-.4-.54.23-1.53.85-1.07,1.3,1,4,1.07,5.4.62.37-.12.59.37.42.65a4.54,4.54,0,0,1-1.36,1.4,3.45,3.45,0,0,1-4.61-.66Z" transform="translate(-631.09 -319.32)"/><path id="Path_837" data-name="Path 837" class="cls-11" d="M695.4,370.19a4.72,4.72,0,0,0-2.12.5,3.46,3.46,0,0,0,4.49.53L698,371A4.44,4.44,0,0,0,695.4,370.19Z" transform="translate(-631.09 -319.32)"/></g><path id="Path_838" data-name="Path 838" class="cls-1" d="M716.16,413.49c2.3,2,3.45-.59.91-3,3.36.25,1.2-3.46-2.4-2.64" transform="translate(-631.09 -319.32)"/><path id="Path_839" data-name="Path 839" class="cls-1" d="M676.18,415.52c-2,2.79-3.91.22-1.74-3-3.61,1.11-2.17-3.48,2-3.48" transform="translate(-631.09 -319.32)"/><ellipse id="Ellipse_168" data-name="Ellipse 168" class="cls-1" cx="85.54" cy="110" rx="9.74" ry="13.68"/><ellipse id="Ellipse_169" data-name="Ellipse 169" class="cls-1" cx="43.8" cy="111.07" rx="9.59" ry="13.68"/><path id="Path_840" data-name="Path 840" class="cls-1" d="M682.2,404.23s-12,.47-9.86-10.55c1.84-9.45,4.78-11.43,6.72-11.45,0,0,9.36,4.63,10,8.15,2.37-.47,5.33,2.35,5.33,2.35C699.1,396.49,697,408.46,682.2,404.23Z" transform="translate(-631.09 -319.32)"/><path id="Path_841" data-name="Path 841" class="cls-1" d="M686.24,391.66s6-.58,8.78,1.7" transform="translate(-631.09 -319.32)"/><path id="Path_842" data-name="Path 842" class="cls-1" d="M688.91,390.48a12,12,0,0,1-2.67-.21" transform="translate(-631.09 -319.32)"/><path id="Path_843" data-name="Path 843" class="cls-1" d="M680,446.15H670c-2.13,0-3.8-1.5-3.59-3.23l.4-3.31a3.41,3.41,0,0,1,3.59-2.65h9.22a3.41,3.41,0,0,1,3.6,2.65l.4,3.31C683.83,444.65,682.17,446.15,680,446.15Z" transform="translate(-631.09 -319.32)"/><line id="Line_31" data-name="Line 31" class="cls-7" x1="40.7" y1="120.63" x2="40.7" y2="126.83"/><line id="Line_32" data-name="Line 32" class="cls-7" x1="47.16" y1="120.63" x2="47.16" y2="126.83"/><line id="Line_33" data-name="Line 33" class="cls-7" x1="44.2" y1="120.63" x2="44.2" y2="126.83"/><path id="Path_844" data-name="Path 844" class="cls-1" d="M722.78,447.27H712.62c-2.16,0-3.85-1.5-3.64-3.22l.4-3.32a3.45,3.45,0,0,1,3.64-2.65h9.35a3.46,3.46,0,0,1,3.65,2.65l.4,3.32C726.63,445.77,724.94,447.27,722.78,447.27Z" transform="translate(-631.09 -319.32)"/><line id="Line_34" data-name="Line 34" class="cls-7" x1="83.07" y1="121.74" x2="83.07" y2="127.95"/><line id="Line_35" data-name="Line 35" class="cls-7" x1="89.62" y1="121.74" x2="89.62" y2="127.95"/><line id="Line_36" data-name="Line 36" class="cls-7" x1="86.61" y1="121.74" x2="86.61" y2="127.95"/><path id="Path_845" data-name="Path 845" class="cls-12" d="M711.89,381.54s1.9.91,1.07,2.55" transform="translate(-631.09 -319.32)"/><path id="Path_846" data-name="Path 846" class="cls-12" d="M673.92,392.76s.4.87,1.1.87" transform="translate(-631.09 -319.32)"/><path id="Path_847" data-name="Path 847" class="cls-12" d="M693.6,375.3" transform="translate(-631.09 -319.32)"/><path id="Path_848" data-name="Path 848" class="cls-1" d="M689.89,413.21a11.64,11.64,0,0,1-2.58-.72" transform="translate(-631.09 -319.32)"/><path id="Path_849" data-name="Path 849" class="cls-1" d="M697.36,374.7a9.55,9.55,0,0,1-2-.56" transform="translate(-631.09 -319.32)"/><path id="Path_850" data-name="Path 850" class="cls-1" d="M668.05,430.34c-1,1.85-2.63.73-1.57-1.4-2.3,1.17-1.91-1.58.89-2.23" transform="translate(-631.09 -319.32)"/><path id="Path_851" data-name="Path 851" class="cls-1" d="M721.52,427.21c2.3,2,3.45-.59.91-3,3.36.25,1.2-3.46-2.4-2.64" transform="translate(-631.09 -319.32)"/><path id="Path_852" data-name="Path 852" class="cls-1" d="M683.49,385.05c3-.55,1.69-3.07-1.78-2.58,2.29-2.47-2-3.09-3.55.24" transform="translate(-631.09 -319.32)"/></g></svg>