<svg id="Layer_1" data-name="Layer 1" xmlns="http://www.w3.org/2000/svg" viewBox="0 0 96.9 129.86"><defs><style>.cls-1,.cls-4{fill:#c49669;}.cls-1,.cls-10,.cls-2,.cls-5,.cls-8,.cls-9{stroke:#000;}.cls-1,.cls-10,.cls-11,.cls-2,.cls-5,.cls-8,.cls-9{stroke-miterlimit:10;}.cls-2{fill:#b78a62;}.cls-3{fill:#dbd3ad;}.cls-11,.cls-5{fill:none;}.cls-6{fill:#fff;}.cls-7,.cls-8{fill:#634320;}.cls-9{fill:#472018;}.cls-10{fill:#8e2e1e;}.cls-11{stroke:#dbd3ad;}.cls-12{fill:#458747;}.cls-13{opacity:0.2;isolation:isolate;}.cls-14{fill:#7f7865;}.cls-15{fill:#e5e1cf;}</style></defs><g id="Group_333" data-name="Group 333"><g id="Group_327" data-name="Group 327"><path id="Path_682" data-name="Path 682" class="cls-1" d="M717,400.79c18.49,4.66,6.3-18.52,2.53-15.65,0,0-4.2,1.38-4,.55s-1.19-3.67-1.19-3.67c0-1.35,1.3-1.67,3.45-1.27-1.62-1.7-3.13-2.51-4.53-2.35l-13.4,4.8,6.07,21.54,5-.45s8.39-1,9.32-2.68" transform="translate(-630.52 -318.61)"/><path id="Path_683" data-name="Path 683" class="cls-1" d="M714.71,392.83a6.68,6.68,0,0,1,.85,3.69c0,2.07,6.1,1.64,5.32-.67s.84-1.38-1.62-5" transform="translate(-630.52 -318.61)"/></g><path id="Path_684" data-name="Path 684" class="cls-2" d="M703.38,396.69,708.83,430c-7.57-7.2-32.19-19-48.74,8.8-7,11.74-28.9,8.06-29.07,7.05-.33-2,17.43-6.85,18.08-7.11,5.4-2.15,5.2-6,8-13.77C664.31,405.66,684.26,394.17,703.38,396.69Z" transform="translate(-630.52 -318.61)"/><path id="Path_685" data-name="Path 685" class="cls-1" d="M713.06,431.75c4.09-5.5,5.58-15.52,2.8-22a20.77,20.77,0,0,1-1.33-10.43c1-8.95-5.6-27.07-5.6-27.07a18.06,18.06,0,0,0-10.8-3.5c-6,.28-14.53,6.45-17.53,9s-4,22.55-3.74,26.75c0,0-5.9,16.21,2.92,29.54l2.53,2.89a11.64,11.64,0,0,0,8.7,4.27h10.26c5,0,9.51-3.63,11.78-9.41h0" transform="translate(-630.52 -318.61)"/><path id="Path_686" data-name="Path 686" class="cls-3" d="M711.1,410c0,7.57-4.64,14.54-9.88,17.5-.62.35.43-4-.24-3.7-1.38.51-3.54,4.94-5.06,4.94s-6.43-4.51-7.71-4.94.84,4.05-.24,3.29c-4.6-3.22-7.23-7.83-7.23-14.82,0-10.34,6.8-18.52,15.18-18.52S711.1,399.7,711.1,410Z" transform="translate(-630.52 -318.61)"/><g id="Group_328" data-name="Group 328"><path id="Path_687" data-name="Path 687" class="cls-4" d="M685.88,337.44l-6.76,3a7.07,7.07,0,0,0-4.14,5.44A90.31,90.31,0,0,0,673.9,364c-6.41,0-8.64,7.12-3,5.4-3.37,5.06-.41,9,2.7,4.72,2,6,3.84,7.26,5.4,4.05,10.17,4.45,20.88,4.62,32.25,0,1.57,3.21,3.36,1.95,5.4-4.05,3.12,4.33,6.08.34,2.7-4.72,5.6,1.72,3.38-5.4-3-5.4.41-6.63-.37-14.1-1.68-21.94l-10.3-4.56c-2.69-1.19-15.72-1.23-18.41,0" transform="translate(-630.52 -318.61)"/><path id="Path_688" data-name="Path 688" class="cls-5" d="M685.88,337.44l-6.76,3a7.07,7.07,0,0,0-4.14,5.44A90.31,90.31,0,0,0,673.9,364c-6.41,0-8.64,7.12-3,5.4-3.37,5.06-.41,9,2.7,4.72,2,6,3.84,7.26,5.4,4.05,10.17,4.45,20.88,4.62,32.25,0,1.57,3.21,3.36,1.95,5.4-4.05,3.12,4.33,6.08.34,2.7-4.72,5.6,1.72,3.38-5.4-3-5.4.41-6.63-.37-14.1-1.68-21.94l-10.3-4.56C701.6,336.25,688.57,336.21,685.88,337.44Z" transform="translate(-630.52 -318.61)"/><path id="Path_689" data-name="Path 689" class="cls-6" d="M687.74,360.4c0,1.21-2,2.19-4.56,2.19s-4.55-1-4.55-2.19,2-2.2,4.55-2.2,4.56,1,4.56,2.2" transform="translate(-630.52 -318.61)"/><ellipse id="Ellipse_155" data-name="Ellipse 155" class="cls-5" cx="52.67" cy="41.79" rx="4.56" ry="2.19"/><path id="Path_690" data-name="Path 690" class="cls-3" d="M702.25,366.3a6.42,6.42,0,1,1-6.76-6.06h.35a6.24,6.24,0,0,1,6.41,6.07" transform="translate(-630.52 -318.61)"/><path id="Path_691" data-name="Path 691" class="cls-5" d="M702.25,366.3a6.42,6.42,0,1,1-6.76-6.06h.35A6.24,6.24,0,0,1,702.25,366.3Z" transform="translate(-630.52 -318.61)"/><path id="Path_692" data-name="Path 692" d="M701.41,363.43c0,1.68-3.29,1.69-5.06,1.69s-5.74,0-5.74-1.69,3.46-3.2,5.23-3.2,5.57,1.53,5.57,3.2" transform="translate(-630.52 -318.61)"/><path id="Path_693" data-name="Path 693" class="cls-4" d="M668.18,335c-3.06-6.73-2.38-13.63,1.53-15.4s9.55,2.25,12.6,9c2.08,4.56,3.59,9.13,1.69,11.83-.33.48-1.3.8-2.56,1.36-.78.36-3.07,2.66-3.16,2.6-3-1.9-7.65-4-10.1-9.37" transform="translate(-630.52 -318.61)"/><path id="Path_694" data-name="Path 694" class="cls-5" d="M668.18,335c-3.06-6.73-2.38-13.63,1.53-15.4s9.55,2.25,12.6,9c2.08,4.56,3.59,9.13,1.69,11.83-.33.48-1.3.8-2.56,1.36-.78.36-3.07,2.66-3.16,2.6C675.27,342.52,670.63,340.43,668.18,335Z" transform="translate(-630.52 -318.61)"/><path id="Path_695" data-name="Path 695" class="cls-4" d="M721.67,336.64c4.7-6.4,5.49-13.8,1.78-16.52s-10.53.26-15.23,6.66c-3.18,4.34-5.77,8.82-4.37,12.06.25.58,1.19,1.12,2.39,2,.74.55,2.65,3.48,2.76,3.43,3.58-1.33,8.91-2.5,12.67-7.63" transform="translate(-630.52 -318.61)"/><path id="Path_696" data-name="Path 696" class="cls-5" d="M721.67,336.64c4.7-6.4,5.49-13.8,1.78-16.52s-10.53.26-15.23,6.66c-3.18,4.34-5.77,8.82-4.37,12.06.25.58,1.19,1.12,2.39,2,.74.55,2.65,3.48,2.76,3.43C712.58,342.94,717.91,341.77,721.67,336.64Z" transform="translate(-630.52 -318.61)"/><path id="Path_697" data-name="Path 697" class="cls-7" d="M668.86,335.5c-2.89-6.36-2.24-12.87,1.45-14.54s9,2.12,11.9,8.48c2,4.3,3.39,8.62,1.6,11.17a7.16,7.16,0,0,1-2.42,1.29c-.73.33-2.9,2.51-3,2.46-2.84-1.79-7.22-3.77-9.53-8.86" transform="translate(-630.52 -318.61)"/><path id="Path_698" data-name="Path 698" class="cls-5" d="M668.86,335.5c-2.89-6.36-2.24-12.87,1.45-14.54s9,2.12,11.9,8.48c2,4.3,3.39,8.62,1.6,11.17a7.16,7.16,0,0,1-2.42,1.29c-.73.33-2.9,2.51-3,2.46C675.56,342.57,671.17,340.59,668.86,335.5Z" transform="translate(-630.52 -318.61)"/><path id="Path_699" data-name="Path 699" class="cls-7" d="M720.65,337.06c4.38-6,5.12-12.86,1.66-15.39s-9.81.24-14.18,6.21c-3,4-5.38,8.2-4.07,11.23.23.54,1.11,1,2.23,1.86.69.51,2.46,3.24,2.56,3.2,3.34-1.24,8.3-2.33,11.8-7.11" transform="translate(-630.52 -318.61)"/><path id="Path_700" data-name="Path 700" class="cls-5" d="M720.65,337.06c4.38-6,5.12-12.86,1.66-15.39s-9.81.24-14.18,6.21c-3,4-5.38,8.2-4.07,11.23.23.54,1.11,1,2.23,1.86.69.51,2.46,3.24,2.56,3.2C712.19,342.93,717.15,341.83,720.65,337.06Z" transform="translate(-630.52 -318.61)"/><path id="Path_701" data-name="Path 701" d="M685.38,360.23a1.87,1.87,0,1,1-1.86-2,2,2,0,0,1,1.86,2" transform="translate(-630.52 -318.61)"/><path id="Path_702" data-name="Path 702" class="cls-6" d="M704.28,360.4c0,1.21,2,2.19,4.56,2.19s4.55-1,4.55-2.19-2-2.2-4.55-2.2-4.56,1-4.56,2.2" transform="translate(-630.52 -318.61)"/><ellipse id="Ellipse_156" data-name="Ellipse 156" class="cls-5" cx="78.32" cy="41.79" rx="4.56" ry="2.19"/><path id="Path_703" data-name="Path 703" d="M706.64,360.23a1.87,1.87,0,1,0,1.86-2,2,2,0,0,0-1.86,2" transform="translate(-630.52 -318.61)"/><path id="Path_704" data-name="Path 704" class="cls-6" d="M685.71,359.72a.61.61,0,0,1-.67.51c-.38,0-.68-.23-.68-.51s.3-.51.68-.51a.61.61,0,0,1,.67.51" transform="translate(-630.52 -318.61)"/><path id="Path_705" data-name="Path 705" class="cls-6" d="M707.82,359.55a.61.61,0,0,1-.67.51c-.38,0-.68-.23-.68-.51s.3-.5.68-.5.67.22.67.5" transform="translate(-630.52 -318.61)"/><path id="Path_706" data-name="Path 706" class="cls-8" d="M705,353c.09-.52,1-1.17,1.16-1.27a3.29,3.29,0,0,1,1.43-.36,5,5,0,0,1,2.84.93l1,.61a20.62,20.62,0,0,1,1.85,1.3.11.11,0,0,1,.06.1.12.12,0,0,1-.12.13h0c-1.13-.26-2.8-.93-3.94-1.1-1.46-.25-2.4.37-3.86.13a.42.42,0,0,1-.25-.12A.41.41,0,0,1,705,353Z" transform="translate(-630.52 -318.61)"/><path id="Path_707" data-name="Path 707" class="cls-8" d="M687.28,353c-.09-.52-1-1.17-1.16-1.27a3.29,3.29,0,0,0-1.43-.36,5,5,0,0,0-2.84.93l-1,.61a20.62,20.62,0,0,0-1.85,1.3.11.11,0,0,0-.06.1.12.12,0,0,0,.12.13h0c1.13-.26,2.8-.93,3.94-1.1,1.45-.25,2.4.37,3.86.13a.42.42,0,0,0,.25-.12A.41.41,0,0,0,687.28,353Z" transform="translate(-630.52 -318.61)"/><path id="Path_708" data-name="Path 708" class="cls-4" d="M696.93,337.34c2.87-2.07.22-4-3.14-1.79,1.15-3.72-3.58-2.24-3.58,2" transform="translate(-630.52 -318.61)"/><path id="Path_709" data-name="Path 709" class="cls-5" d="M696.93,337.34c2.87-2.07.22-4-3.14-1.79,1.15-3.72-3.58-2.24-3.58,2" transform="translate(-630.52 -318.61)"/><path id="Path_710" data-name="Path 710" class="cls-9" d="M692.56,369.46c-.41-.55.23-1.56.86-1.09,1.31,1,4.08,1.08,5.47.63.36-.12.59.38.42.66a4.79,4.79,0,0,1-1.38,1.42,3.48,3.48,0,0,1-4.65-.67Z" transform="translate(-630.52 -318.61)"/><path id="Path_711" data-name="Path 711" class="cls-10" d="M695.54,370a4.85,4.85,0,0,0-2.15.5,3.48,3.48,0,0,0,4.54.54l.28-.21A4.56,4.56,0,0,0,695.54,370Z" transform="translate(-630.52 -318.61)"/></g><path id="Path_712" data-name="Path 712" class="cls-1" d="M716.53,413.82c2.33,2,3.49-.6.91-3,3.4.25,1.22-3.5-2.42-2.67" transform="translate(-630.52 -318.61)"/><path id="Path_713" data-name="Path 713" class="cls-1" d="M676.11,415.88c-2,2.81-4,.22-1.76-3.08-3.65,1.12-2.2-3.52,2-3.52" transform="translate(-630.52 -318.61)"/><ellipse id="Ellipse_157" data-name="Ellipse 157" class="cls-1" cx="86.48" cy="111.22" rx="9.85" ry="13.83"/><ellipse id="Ellipse_158" data-name="Ellipse 158" class="cls-1" cx="44.28" cy="112.3" rx="9.7" ry="13.83"/><path id="Path_714" data-name="Path 714" class="cls-1" d="M686.28,391.75s6.06-.59,8.88,1.72" transform="translate(-630.52 -318.61)"/><path id="Path_715" data-name="Path 715" class="cls-1" d="M689,390.56a12.2,12.2,0,0,1-2.7-.21" transform="translate(-630.52 -318.61)"/><path id="Path_716" data-name="Path 716" class="cls-1" d="M680,446.84H669.87c-2.16,0-3.84-1.51-3.63-3.26l.4-3.35a3.45,3.45,0,0,1,3.63-2.68h9.33a3.45,3.45,0,0,1,3.63,2.68l.4,3.35C683.84,445.33,682.15,446.84,680,446.84Z" transform="translate(-630.52 -318.61)"/><line id="Line_19" data-name="Line 19" class="cls-5" x1="41.15" y1="121.96" x2="41.15" y2="128.23"/><line id="Line_20" data-name="Line 20" class="cls-5" x1="47.69" y1="121.96" x2="47.69" y2="128.23"/><line id="Line_21" data-name="Line 21" class="cls-5" x1="44.69" y1="121.96" x2="44.69" y2="128.23"/><path id="Path_717" data-name="Path 717" class="cls-1" d="M723.22,448H713c-2.19,0-3.89-1.51-3.68-3.26l.4-3.35a3.5,3.5,0,0,1,3.69-2.68h9.45a3.5,3.5,0,0,1,3.69,2.68l.4,3.35C727.11,446.46,725.41,448,723.22,448Z" transform="translate(-630.52 -318.61)"/><line id="Line_22" data-name="Line 22" class="cls-5" x1="83.98" y1="123.09" x2="83.98" y2="129.36"/><line id="Line_23" data-name="Line 23" class="cls-5" x1="90.61" y1="123.09" x2="90.61" y2="129.36"/><line id="Line_24" data-name="Line 24" class="cls-5" x1="87.57" y1="123.09" x2="87.57" y2="129.36"/><path id="Path_718" data-name="Path 718" class="cls-11" d="M712.21,381.52s1.91.91,1.08,2.58" transform="translate(-630.52 -318.61)"/><path id="Path_719" data-name="Path 719" class="cls-11" d="M673.82,392.86s.4.88,1.11.88" transform="translate(-630.52 -318.61)"/><path id="Path_720" data-name="Path 720" class="cls-11" d="M693.72,375.21" transform="translate(-630.52 -318.61)"/><path id="Path_721" data-name="Path 721" class="cls-1" d="M690,413.54a12.41,12.41,0,0,1-2.6-.73" transform="translate(-630.52 -318.61)"/><path id="Path_722" data-name="Path 722" class="cls-1" d="M697.52,374.6a9.18,9.18,0,0,1-2-.57" transform="translate(-630.52 -318.61)"/><path id="Path_723" data-name="Path 723" class="cls-1" d="M667.88,430.86c-1,1.87-2.65.74-1.58-1.42-2.33,1.19-1.94-1.6.9-2.25" transform="translate(-630.52 -318.61)"/><path id="Path_724" data-name="Path 724" class="cls-1" d="M722,427.69c2.33,2.05,3.48-.6.91-3,3.4.25,1.21-3.5-2.42-2.66" transform="translate(-630.52 -318.61)"/><g id="Group_332" data-name="Group 332"><g id="Group_331" data-name="Group 331"><g id="Group_329" data-name="Group 329"><path id="Rectangle_95" data-name="Rectangle 95" class="cls-12" d="M687.86,402.83h16.19a1.87,1.87,0,0,1,1.86,1.86h0v10.87a1.86,1.86,0,0,1-1.86,1.86H687.86a1.86,1.86,0,0,1-1.86-1.86V404.69a1.86,1.86,0,0,1,1.86-1.86Z" transform="translate(-630.52 -318.61)"/><path id="Path_726" data-name="Path 726" class="cls-13" d="M705.91,403.35H686.52v14.07H686V402.83h19.91Z" transform="translate(-630.52 -318.61)"/><path id="Path_727" data-name="Path 727" class="cls-13" d="M701.91,417.05c0-.19.2-.33.45-.33h1.53c.24,0,.44.14.44.33v.29c0,.18-.2.33-.44.33h-1.53c-.25,0-.45-.15-.45-.33Z" transform="translate(-630.52 -318.61)"/><path id="Path_728" data-name="Path 728" class="cls-14" d="M705.39,418.46H686.52A1.56,1.56,0,0,1,685,416.9V403.35a1.56,1.56,0,0,1,1.56-1.56h18.87a1.56,1.56,0,0,1,1.56,1.56V416.9A1.56,1.56,0,0,1,705.39,418.46Zm-18.87-15.63a.52.52,0,0,0-.52.52V416.9a.52.52,0,0,0,.52.52h18.87a.52.52,0,0,0,.52-.52V403.35a.53.53,0,0,0-.52-.52Z" transform="translate(-630.52 -318.61)"/><path id="Path_729" data-name="Path 729" class="cls-6" d="M702.25,416.66h1.8c.29,0,.29.75,0,.75h-1.8c-.29,0-.52-.11-.52-.26C701.73,417.15,702,416.66,702.25,416.66Z" transform="translate(-630.52 -318.61)"/></g><g id="Group_330" data-name="Group 330"><path id="Path_730" data-name="Path 730" class="cls-6" d="M689.5,412.21a.24.24,0,0,1-.25-.25v-4.21l-.65.23a.28.28,0,0,1-.13,0,.29.29,0,0,1-.18-.07.24.24,0,0,1-.07-.18.32.32,0,0,1,0-.14.26.26,0,0,1,.13-.1l1-.34.07,0h.06a.25.25,0,0,1,.18.08.29.29,0,0,1,.07.18V412a.26.26,0,0,1-.24.25Z" transform="translate(-630.52 -318.61)"/><path id="Path_731" data-name="Path 731" class="cls-6" d="M692.16,411.2a.21.21,0,0,1-.17-.07.25.25,0,0,1-.08-.18v-1h-1a.24.24,0,0,1-.18-.07.27.27,0,0,1,0-.36.24.24,0,0,1,.18-.07h1v-1a.26.26,0,0,1,.25-.25h0a.25.25,0,0,1,.18.08.21.21,0,0,1,.07.17v1h1a.25.25,0,0,1,.25.25.29.29,0,0,1-.07.18.24.24,0,0,1-.18.07h-1v1a.24.24,0,0,1-.23.25Z" transform="translate(-630.52 -318.61)"/><path id="Path_732" data-name="Path 732" class="cls-6" d="M695.49,412.21a.24.24,0,0,1-.18-.07.21.21,0,0,1-.07-.18v-4.21l-.65.23a.31.31,0,0,1-.13,0,.27.27,0,0,1-.18-.07.21.21,0,0,1-.07-.18.22.22,0,0,1,0-.14.22.22,0,0,1,.13-.1l1-.34.07,0h.06a.27.27,0,0,1,.18.08.28.28,0,0,1,.06.18V412a.24.24,0,0,1-.23.25Z" transform="translate(-630.52 -318.61)"/><path id="Path_733" data-name="Path 733" class="cls-6" d="M696.89,409.43a.25.25,0,0,1-.18-.08.26.26,0,0,1,0-.35.25.25,0,0,1,.18-.08h2.28a.25.25,0,0,1,.18.08.26.26,0,0,1,0,.35.25.25,0,0,1-.18.08Zm0,1.52a.25.25,0,0,1-.18-.08.27.27,0,0,1,0-.36.29.29,0,0,1,.18-.07h2.28a.25.25,0,0,1,.18.08.27.27,0,0,1,.07.18.24.24,0,0,1-.24.24h-2.29Z" transform="translate(-630.52 -318.61)"/><path id="Path_734" data-name="Path 734" class="cls-6" d="M700.39,412.21a.22.22,0,0,1-.17-.07.25.25,0,0,1-.08-.18.29.29,0,0,1,.07-.18l2-2.31a1.31,1.31,0,0,0,.26-.4.91.91,0,0,0,.1-.4,1.08,1.08,0,0,0-.12-.53.91.91,0,0,0-.33-.37,1,1,0,0,0-1.34.38,1.07,1.07,0,0,0-.13.53.28.28,0,0,1-.07.17.26.26,0,0,1-.18.07.24.24,0,0,1-.18-.07.25.25,0,0,1-.08-.17,1.62,1.62,0,0,1,.2-.78,1.47,1.47,0,0,1,.53-.55,1.54,1.54,0,0,1,1.5,0,1.4,1.4,0,0,1,.51.54,1.53,1.53,0,0,1,.18.79,1.39,1.39,0,0,1-.06.4,1.93,1.93,0,0,1-.19.38l-.25.33-1.66,1.92h2a.25.25,0,0,1,.18.08.29.29,0,0,1,.07.18.26.26,0,0,1-.07.18.31.31,0,0,1-.18.07Z" transform="translate(-630.52 -318.61)"/></g></g></g><path id="Path_735" data-name="Path 735" class="cls-15" d="M711.48,413c0,4.38-6.22,13.5-10.75,15.21-.54.2.37-2.29-.21-2.14-1.2.3-3.06,2.85-4.38,2.85s-5.56-2.6-6.67-2.85.7,2.4-.21,1.9c-5.55-3-8.52-9.68-8.52-13.72,0-6,7.85.65,15.1.65S711.48,407,711.48,413Z" transform="translate(-630.52 -318.61)"/><path id="Path_736" data-name="Path 736" class="cls-1" d="M682.19,404.46s-12.15.48-10-10.67c1.87-9.56,4.83-11.55,6.8-11.58,0,0,9.47,4.69,10.07,8.25,2.4-.48,5.4,2.37,5.4,2.37C699.28,396.63,697.18,408.73,682.19,404.46Z" transform="translate(-630.52 -318.61)"/><path id="Path_725" data-name="Path 725" class="cls-1" d="M683.5,386.06c2-.36,2.11-1.61.63-2.39a4.29,4.29,0,0,0-2.43-.21c2.31-2.5-2-3.13-3.6.23" transform="translate(-630.52 -318.61)"/></g></svg>