<svg class="mx-auto" xmlns="http://www.w3.org/2000/svg" width="33.735" height="48" viewBox="0 0 33.735 48">
    <g id="Group_149" data-name="Group 149" transform="translate(-1127.825 -221.272)">
        <g id="Group_148" data-name="Group 148" transform="translate(1127.825 221.272)">
        <path id="Path_470" data-name="Path 470" d="M1170.338,237.252c0-.51-.005-1.02-.005-1.53a14.4,14.4,0,0,0-4.271-10.256q-.5-.5-1.039-.936l-1.305-.922-.474-.321a5.609,5.609,0,0,0-1.151-.6l-1.195-.455-.729-.265a9.731,9.731,0,0,0-1.359-.394,14.636,14.636,0,0,0-3.036-.3,14.192,14.192,0,0,0-6.737,1.756l-1.776,1.15a14.7,14.7,0,0,0-5.472,8.508,12.559,12.559,0,0,0-.263,1.926l-.093,1.433v9.562a6.788,6.788,0,0,0,6.788,6.788h.247v-1.777h-.247a5.011,5.011,0,0,1-5.011-5.011v-9.716a12.793,12.793,0,0,1,12.577-12.843,12.57,12.57,0,0,1,9,3.653,12.889,12.889,0,0,1,3.771,9.186v9.721a5.017,5.017,0,0,1-5.011,5.011V252.4a6.8,6.8,0,0,0,6.788-6.788v-3.86c0-.581-.009-1.162,0-1.743C1170.346,239.088,1170.342,238.17,1170.338,237.252Z" transform="translate(-1139.015 -221.272)" fill="#fff"/>
        <g id="Group_147" data-name="Group 147" transform="translate(0 8.173)">
            <path id="Path_471" data-name="Path 471" d="M1239.364,330.174a.852.852,0,0,0,.853-.852v-.586a.852.852,0,1,0-1.7,0v.586A.853.853,0,0,0,1239.364,330.174Z" transform="translate(-1218.848 -317.115)" fill="#fff"/>
            <path id="Path_472" data-name="Path 472" d="M1199.672,330.174a.853.853,0,0,0,.853-.852v-.586a.853.853,0,0,0-.853-.853h0a.853.853,0,0,0-.853.853v.586a.852.852,0,0,0,.853.852Z" transform="translate(-1186.206 -317.115)" fill="#fff"/>
            <path id="Path_473" data-name="Path 473" d="M1208.656,355.434l-1.6-.766a2.666,2.666,0,0,1-4.812,0l-1.6.765a4.443,4.443,0,0,0,8.018,0Z" transform="translate(-1187.702 -339.142)" fill="#fff"/>
            <rect id="Rectangle_65" data-name="Rectangle 65" width="1.777" height="4.482" transform="translate(6.111 3.168) rotate(-45)" fill="#fff"/>
            <rect id="Rectangle_66" data-name="Rectangle 66" width="1.777" height="4.482" transform="translate(8.022 1.256) rotate(-45)" fill="#fff"/>
            <path id="Path_474" data-name="Path 474" d="M1161.56,311.4a9.79,9.79,0,0,0-7.666-9.6l-4.93-1.117v-1.379a12.46,12.46,0,0,0,7.618-10.208,3.16,3.16,0,0,0-1.213-2.858,6.777,6.777,0,0,1-2.735-4.384,2.155,2.155,0,0,0-1.39-1.781l-.084-.031a2.13,2.13,0,0,0-2.428.691c-3.265,4.2-9.529,5.445-12.972,5.811a3.156,3.156,0,0,0-2.752,3.8,12.7,12.7,0,0,0,4.139,6.984,11.826,11.826,0,0,0,3.274,1.974v1.383l-4.93,1.117a9.79,9.79,0,0,0-7.666,9.6v6.093h33.735V311.4Zm-26.815-21.43a1.379,1.379,0,0,1,1.2-1.657c3.724-.4,10.519-1.765,14.187-6.488a.357.357,0,0,1,.282-.137.372.372,0,0,1,.129.023l.084.031a.387.387,0,0,1,.24.325h0a8.531,8.531,0,0,0,3.419,5.583,1.376,1.376,0,0,1,.527,1.244,10.416,10.416,0,0,1-10.124,9.46A10.28,10.28,0,0,1,1134.745,289.972Zm9.948,10.161a11.456,11.456,0,0,0,2.495-.277v1.157a3.815,3.815,0,0,1-4.99,0v-1.157A11.421,11.421,0,0,0,1144.693,300.133Zm-3.647,2.233a5.6,5.6,0,0,0,7.293,0l3.127.709v5.118h-13.3V303.02Zm-5.162,1.17.5-.115v6.548h16.854v-6.492l.258.058a8.172,8.172,0,0,1,1.723.6v11.583h-20.908V304.063A8.213,8.213,0,0,1,1135.884,303.536ZM1129.6,311.4a8.027,8.027,0,0,1,2.938-6.238v10.554H1129.6Zm30.182,4.316H1157V305.3a8.027,8.027,0,0,1,2.783,6.106v4.316Z" transform="translate(-1127.825 -277.667)" fill="#fff"/>
        </g>
        </g>
    </g>
</svg>