<svg id="Layer_1" data-name="Layer 1" xmlns="http://www.w3.org/2000/svg" viewBox="0 0 32 32"><defs><style>.cls-1{fill:#fff;}</style></defs><path id="Icon_ionic-ios-person-2" data-name="Icon ionic-ios-person-2" class="cls-1" d="M32,31.19c-.6-2.65-4-3.94-5.21-4.36A40,40,0,0,0,22.43,26a4.32,4.32,0,0,1-2-.93c-.33-.4-.13-4.1-.13-4.1a12.48,12.48,0,0,0,.95-1.81,22.86,22.86,0,0,0,.7-3.16s.68,0,.93-1.2A12.09,12.09,0,0,0,23.48,12c-.05-1-.57-.93-.57-.93a14.39,14.39,0,0,0,.56-4.28C23.55,3.37,20.87,0,16,0S8.46,3.37,8.53,6.8a15.8,15.8,0,0,0,.56,4.27s-.52,0-.57.94a12.09,12.09,0,0,0,.61,2.79c.24,1.2.93,1.2.93,1.2a22.86,22.86,0,0,0,.7,3.16,12.37,12.37,0,0,0,1,1.8s.2,3.71-.13,4.11a4.32,4.32,0,0,1-2,.93,37.74,37.74,0,0,0-4.34.83C4,27.25.62,28.54,0,31.19a.66.66,0,0,0,.5.79.41.41,0,0,0,.16,0H31.33a.67.67,0,0,0,.67-.66A.77.77,0,0,0,32,31.19Z" transform="translate(0)"/></svg>