<svg id="Layer_1" data-name="Layer 1" xmlns="http://www.w3.org/2000/svg" viewBox="0 0 31.98 26.17"><defs><style>.cls-1{fill:#fff;}</style></defs><path id="photo" class="cls-1" d="M26.18,8.39h-.59a1.39,1.39,0,0,1-1.3-.87L22.54,4.17a2.75,2.75,0,0,0-2.61-1.6h-8a3.08,3.08,0,0,0-2.62,1.6L7.71,7.52a1.39,1.39,0,0,1-1.3.87H5.82A5.83,5.83,0,0,0,0,14.2v8.73a5.83,5.83,0,0,0,5.81,5.81H26.18A5.83,5.83,0,0,0,32,22.93V14.2A5.83,5.83,0,0,0,26.18,8.39ZM16,22.93a5.82,5.82,0,1,1,5.82-5.82h0A5.84,5.84,0,0,1,16,22.93Z" transform="translate(-0.01 -2.57)"/></svg>