<svg id="Layer_1" data-name="Layer 1" xmlns="http://www.w3.org/2000/svg" viewBox="0 0 31.88 29.61"><defs><style>.cls-1{fill:#fff;}</style></defs><path id="Icon_ionic-ios-star-outline" data-name="Icon ionic-ios-star-outline" class="cls-1" d="M30.73,11.62H20.27L17.08,2.13a1.15,1.15,0,0,0-2.16,0l-3.18,9.49H1.2A1.15,1.15,0,0,0,.06,12.76a1.36,1.36,0,0,0,0,.2,1.1,1.1,0,0,0,.48.8l8.6,6.06-3.3,9.6a1.14,1.14,0,0,0,.39,1.28,1.1,1.1,0,0,0,.64.28,1.48,1.48,0,0,0,.71-.25l8.4-6,8.4,6a1.33,1.33,0,0,0,.71.25,1,1,0,0,0,.64-.28,1.14,1.14,0,0,0,.39-1.28l-3.31-9.6,8.54-6.12.2-.18a1.22,1.22,0,0,0,.37-.76A1.21,1.21,0,0,0,30.73,11.62Zm-9,6.58A2,2,0,0,0,21,20.47l2.14,6.24a.28.28,0,0,1-.18.36.27.27,0,0,1-.26,0l-5.51-3.92A1.91,1.91,0,0,0,16,22.74a1.86,1.86,0,0,0-1.15.37L8.57,24.49A4.28,4.28,0,0,0,8.9,26.7l2.84.33c.28-.84-.71-8.34-1.43-8.85L4.54,14.12c-.22-.15,8,11.57,8.22,11.57l2.08-2.81c.86,0,9.29,7.36,9.56,6.54L15.72,6c.09-.26-3,18.52-3,18.77l11.42-6.55c.27.8-4.78-4.59-3.92-4.59L8.9,28.12,27.18,13.6c.28,0,.23-1,0-.84Z" transform="translate(-0.06 -1.37)"/></svg>