<svg xmlns="http://www.w3.org/2000/svg" width="178.017" height="238.883" viewBox="0 0 178.017 238.883">
  <g id="Group_139" data-name="Group 139" transform="translate(-481.013 -75.706)">
    <g id="Group_136" data-name="Group 136" transform="translate(608.572 185.664)">
      <path id="Path_356" data-name="Path 356" d="M758.821,329.21c34.121,8.61,11.626-34.175,4.653-28.869,0,0-7.755,2.532-7.284,1.013s-2.19-6.781-2.19-6.781c.042-2.483,2.388-3.08,6.373-2.336-2.989-3.137-5.784-4.639-8.365-4.337l-24.723,8.867,11.193,39.754,9.166-.831s15.468-1.919,17.2-4.96" transform="translate(-727.285 -287.862)" fill="#c49669" stroke="#000" stroke-miterlimit="10" stroke-width="1"/>
      <path id="Path_357" data-name="Path 357" d="M780.285,336s1.568,2.215,1.559,6.809c-.008,3.827,11.254,3.039,9.815-1.238s1.551-2.532-2.979-9.242" transform="translate(-752.884 -309.34)" fill="#c49669" stroke="#000" stroke-miterlimit="10" stroke-width="1"/>
    </g>
    <path id="Path_358" data-name="Path 358" d="M615.049,352.624l10.069,61.537c-13.968-13.3-59.409-35.051-89.96,16.227-12.909,21.667-53.335,14.88-53.641,13.015-.61-3.73,32.164-12.64,33.365-13.119,9.975-3.971,9.591-11.143,14.866-25.408C542.949,369.176,579.773,347.975,615.049,352.624Z" transform="translate(0 -133.172)" fill="#b78a62" stroke="#000" stroke-miterlimit="10" stroke-width="1"/>
    <path id="Path_359" data-name="Path 359" d="M708.649,369.7c7.539-10.141,10.29-28.642,5.175-40.62a38.408,38.408,0,0,1-2.468-19.251c1.886-16.5-10.32-49.946-10.32-49.946s-8.878-6.979-19.925-6.462-26.83,11.891-32.353,16.544-7.3,41.618-6.9,49.372c0,0-10.9,29.908,5.386,54.509l4.677,5.339c4.451,5.082,10.155,7.88,16.059,7.88h18.92c9.16,0,17.554-6.7,21.754-17.366h0" transform="translate(-75.724 -85.551)" fill="#c49669" stroke="#000" stroke-miterlimit="10" stroke-width="1"/>
    <path id="Path_360" data-name="Path 360" d="M715.043,372.859c0,13.959-8.578,26.828-18.234,32.283-1.157.654.791-7.293-.445-6.836-2.553.944-6.537,9.115-9.339,9.115-2.562,0-11.875-8.321-14.232-9.115-2.258-.761,1.547,7.469-.445,6.077-8.493-5.938-13.342-14.444-13.342-27.346,0-19.088,12.544-34.183,28.019-34.183S715.043,353.771,715.043,372.859Z" transform="translate(-85.733 -128.76)" fill="#dbd3ad"/>
    <g id="Group_137" data-name="Group 137" transform="translate(588.78 234.653)">
      <path id="Path_361" data-name="Path 361" d="M709.838,407.688a5.161,5.161,0,1,1,5.172-5.16A5.138,5.138,0,0,1,709.838,407.688Zm-.918-8.21a1.2,1.2,0,1,0,1.185,1.2A1.188,1.188,0,0,0,708.92,399.478Zm2.389,4.477a.6.6,0,0,0-.613.592.608.608,0,0,0,1.216.007A.586.586,0,0,0,711.309,403.954Z" transform="translate(-696.57 -389.742)" fill="#fff"/>
      <path id="Path_362" data-name="Path 362" d="M727.114,409.57l1.854,1.265c.578.4,1.154.8,1.737,1.185a.249.249,0,0,1,.112.344,12.827,12.827,0,0,1-7.955,8.147.338.338,0,0,1-.1,0c.055-.582.1-1.156.164-1.729q.155-1.461.326-2.921a.383.383,0,0,1,.126-.251A8.92,8.92,0,0,0,727.114,409.57Z" transform="translate(-705.309 -395.637)" fill="#fff"/>
      <path id="Path_363" data-name="Path 363" d="M694.666,394.592l-3.684-2.633a12.923,12.923,0,0,1,7.967-8.136c-.047.5-.09.949-.133,1.4q-.13,1.366-.26,2.731a7.059,7.059,0,0,1-.075.723.506.506,0,0,1-.2.271,8.378,8.378,0,0,0-3.062,3.837C694.995,393.364,694.853,393.973,694.666,394.592Z" transform="translate(-689.957 -383.201)" fill="#fff"/>
      <path id="Path_364" data-name="Path 364" d="M720.143,385.631c-1.5.68-2.918,1.329-4.345,1.97a.406.406,0,0,1-.3,0,8.761,8.761,0,0,0-3.316-.785,8.88,8.88,0,0,0-3.366.524c.067-.7.129-1.395.2-2.085.067-.666.152-1.33.21-2,.024-.273.093-.456.411-.474.911-.05,1.824-.2,2.731-.156a12.586,12.586,0,0,1,6.324,2C719.174,384.932,719.632,385.275,720.143,385.631Z" transform="translate(-698.573 -382.62)" fill="#fff"/>
      <path id="Path_365" data-name="Path 365" d="M709.334,421.954,709,426.47a12.924,12.924,0,0,1-11.092-2.579l1.267-.615,2.468-1.2a6.879,6.879,0,0,1,.657-.311.507.507,0,0,1,.337.032,8.371,8.371,0,0,0,4.87.622C708.114,422.312,708.708,422.117,709.334,421.954Z" transform="translate(-693.302 -401.52)" fill="#fff"/>
      <path id="Path_366" data-name="Path 366" d="M689.111,402.7c1.357.924,2.651,1.8,3.94,2.689a.406.406,0,0,1,.154.254,8.759,8.759,0,0,0,1.052,3.241,8.878,8.878,0,0,0,2.2,2.6c-.637.309-1.259.615-1.885.914-.6.288-1.215.561-1.815.858-.246.122-.438.158-.618-.1-.517-.752-1.116-1.457-1.552-2.252a12.588,12.588,0,0,1-1.58-6.441C689.017,403.893,689.072,403.323,689.111,402.7Z" transform="translate(-689 -392.32)" fill="#fff"/>
      <path id="Path_367" data-name="Path 367" d="M724.2,392.024l2.02-.978c.631-.3,1.265-.6,1.892-.916a.249.249,0,0,1,.355.074,12.824,12.824,0,0,1,3.1,10.956.342.342,0,0,1-.047.084c-.478-.338-.951-.665-1.418-1q-1.191-.862-2.37-1.738a.383.383,0,0,1-.155-.234A8.921,8.921,0,0,0,724.2,392.024Z" transform="translate(-706 -386.226)" fill="#fff"/>
    </g>
    <path id="Path_368" data-name="Path 368" d="M715.732,407.588c0,8.074-11.483,24.91-19.837,28.065-1,.378.684-4.219-.385-3.955-2.209.547-5.655,5.273-8.081,5.273-2.216,0-10.273-4.814-12.312-5.273-1.954-.44,1.3,4.427-.385,3.516-10.243-5.546-15.726-17.854-15.726-25.317,0-11.042,14.488,1.208,27.876,1.208S715.732,396.547,715.732,407.588Z" transform="translate(-85.733 -158.029)" fill="#e5e1cf"/>
    <g id="Group_138" data-name="Group 138" transform="translate(546.562 76.276)">
      <path id="Path_369" data-name="Path 369" d="M645.956,140.158l-12.49,5.528a13.035,13.035,0,0,0-7.63,10.04c-1.717,11.854-2.619,23.132-2,33.331-11.835,0-15.945,13.158-5.606,9.967-6.229,9.344-.77,16.7,4.983,8.721,3.767,11.075,7.081,13.4,9.967,7.475,18.76,8.2,38.535,8.52,59.515,0,2.886,5.927,6.2,3.6,9.967-7.475,5.753,7.98,11.213.623,4.983-8.721,10.34,3.191,6.229-9.967-5.606-9.967.749-12.233-.7-26.02-3.114-40.491l-19-8.409c-4.964-2.2-29.01-2.273-33.975,0" transform="translate(-609.752 -106.321)" fill="#c49669"/>
      <path id="Path_370" data-name="Path 370" d="M645.956,140.158l-12.49,5.528a13.035,13.035,0,0,0-7.63,10.04c-1.717,11.854-2.619,23.132-2,33.331-11.835,0-15.945,13.158-5.606,9.967-6.229,9.344-.77,16.7,4.983,8.721,3.767,11.075,7.081,13.4,9.967,7.475,18.76,8.2,38.535,8.52,59.515,0,2.886,5.927,6.2,3.6,9.967-7.475,5.753,7.98,11.213.623,4.983-8.721,10.34,3.191,6.229-9.967-5.606-9.967.749-12.233-.7-26.02-3.114-40.491l-19-8.409C674.968,137.957,650.921,137.886,645.956,140.158Z" transform="translate(-609.752 -106.321)" fill="none" stroke="#000" stroke-miterlimit="10" stroke-width="1"/>
      <path id="Path_371" data-name="Path 371" d="M668.283,219.878c0,2.236-3.765,4.049-8.409,4.049s-8.41-1.813-8.41-4.049,3.765-4.049,8.41-4.049,8.409,1.813,8.409,4.049" transform="translate(-628.653 -143.681)" fill="#fff"/>
      <ellipse id="Ellipse_133" data-name="Ellipse 133" cx="8.41" cy="4.049" rx="8.41" ry="4.049" transform="translate(22.812 72.147)" fill="none" stroke="#000" stroke-miterlimit="10" stroke-width="1"/>
      <path id="Path_372" data-name="Path 372" d="M713.693,234.271c0,6.193-5.3,11.212-11.835,11.212s-11.836-5.02-11.836-11.212,5.3-11.213,11.836-11.213,11.835,5.02,11.835,11.213" transform="translate(-647.277 -147.173)" fill="#dbd3ad"/>
      <path id="Path_373" data-name="Path 373" d="M713.693,234.271c0,6.193-5.3,11.212-11.835,11.212s-11.836-5.02-11.836-11.212,5.3-11.213,11.836-11.213S713.693,228.078,713.693,234.271Z" transform="translate(-647.277 -147.173)" fill="none" stroke="#000" stroke-miterlimit="10" stroke-width="1"/>
      <path id="Path_374" data-name="Path 374" d="M714.173,228.976c0,3.1-6.075,3.114-9.344,3.114s-10.59-.018-10.59-3.114,6.387-5.918,9.656-5.918,10.278,2.821,10.278,5.918" transform="translate(-649.313 -147.173)"/>
      <path id="Path_375" data-name="Path 375" d="M610.869,105.866c-5.645-12.425-4.381-25.152,2.823-28.425s17.62,4.147,23.266,16.572c3.824,8.417,6.616,16.853,3.118,21.825-.623.885-2.4,1.468-4.728,2.523-1.436.653-5.668,4.913-5.841,4.8-5.557-3.5-14.117-7.351-18.638-17.3" transform="translate(-607.34 -76.466)" fill="#c49669"/>
      <path id="Path_376" data-name="Path 376" d="M610.869,105.866c-5.645-12.425-4.381-25.152,2.823-28.425s17.62,4.147,23.266,16.572c3.824,8.417,6.616,16.853,3.118,21.825-.623.885-2.4,1.468-4.728,2.523-1.436.653-5.668,4.913-5.841,4.8C623.949,119.665,615.389,115.815,610.869,105.866Z" transform="translate(-607.34 -76.466)" fill="none" stroke="#000" stroke-miterlimit="10" stroke-width="1"/>
      <path id="Path_377" data-name="Path 377" d="M773.725,108.63c8.663-11.819,10.13-25.473,3.278-30.5s-19.431.487-28.094,12.307c-5.868,8.006-10.656,16.26-8.072,22.254.459,1.066,2.2,2.07,4.414,3.691,1.366,1,4.878,6.409,5.085,6.333,6.609-2.459,16.453-4.626,23.39-14.089" transform="translate(-671.474 -76.276)" fill="#c49669"/>
      <path id="Path_378" data-name="Path 378" d="M773.725,108.63c8.663-11.819,10.13-25.473,3.278-30.5s-19.431.487-28.094,12.307c-5.868,8.006-10.656,16.26-8.072,22.254.459,1.066,2.2,2.07,4.414,3.691,1.366,1,4.878,6.409,5.085,6.333C756.945,120.26,766.788,118.093,773.725,108.63Z" transform="translate(-671.474 -76.276)" fill="none" stroke="#000" stroke-miterlimit="10" stroke-width="1"/>
      <path id="Path_379" data-name="Path 379" d="M613.494,109.037c-5.331-11.736-4.138-23.756,2.667-26.847s16.643,3.917,21.974,15.653c3.612,7.95,6.248,15.918,2.945,20.613-.587.835-2.269,1.387-4.465,2.384-1.357.616-5.354,4.64-5.517,4.537-5.249-3.306-13.334-6.944-17.6-16.34" transform="translate(-608.703 -78.78)" fill="#634320"/>
      <path id="Path_380" data-name="Path 380" d="M613.494,109.037c-5.331-11.736-4.138-23.756,2.667-26.847s16.643,3.917,21.974,15.653c3.612,7.95,6.248,15.918,2.945,20.613-.587.835-2.269,1.387-4.465,2.384-1.357.616-5.354,4.64-5.517,4.537C625.848,122.071,617.763,118.433,613.494,109.037Z" transform="translate(-608.703 -78.78)" fill="none" stroke="#000" stroke-miterlimit="10" stroke-width="1"/>
      <path id="Path_381" data-name="Path 381" d="M772.253,112.2c8.068-11.008,9.434-23.724,3.052-28.4s-18.1.454-26.164,11.462c-5.465,7.456-9.923,15.143-7.517,20.726.428.993,2.052,1.928,4.111,3.437,1.272.933,4.542,5.969,4.735,5.9,6.156-2.29,15.323-4.308,21.783-13.121" transform="translate(-671.878 -79.073)" fill="#634320"/>
      <path id="Path_382" data-name="Path 382" d="M772.253,112.2c8.068-11.008,9.434-23.724,3.052-28.4s-18.1.454-26.164,11.462c-5.465,7.456-9.923,15.143-7.517,20.726.428.993,2.052,1.928,4.111,3.437,1.272.933,4.542,5.969,4.735,5.9C756.627,123.03,765.794,121.012,772.253,112.2Z" transform="translate(-671.878 -79.073)" fill="none" stroke="#000" stroke-miterlimit="10" stroke-width="1"/>
      <path id="Path_383" data-name="Path 383" d="M669.161,219.566a3.439,3.439,0,1,1-3.426-3.737,3.592,3.592,0,0,1,3.426,3.737" transform="translate(-633.891 -143.681)"/>
      <path id="Path_384" data-name="Path 384" d="M743.038,219.878c0,2.236,3.765,4.049,8.409,4.049s8.41-1.813,8.41-4.049-3.765-4.049-8.41-4.049-8.409,1.813-8.409,4.049" transform="translate(-672.884 -143.681)" fill="#fff"/>
      <ellipse id="Ellipse_134" data-name="Ellipse 134" cx="8.41" cy="4.049" rx="8.41" ry="4.049" transform="translate(70.154 72.147)" fill="none" stroke="#000" stroke-miterlimit="10" stroke-width="1"/>
      <path id="Path_385" data-name="Path 385" d="M751.473,219.566a3.439,3.439,0,1,0,3.426-3.737,3.592,3.592,0,0,0-3.426,3.737" transform="translate(-676.958 -143.681)"/>
      <path id="Path_386" data-name="Path 386" d="M674.44,220.378c0,.516-.558.934-1.246.934s-1.246-.418-1.246-.934.558-.934,1.246-.934,1.246.418,1.246.934" transform="translate(-638.547 -145.428)" fill="#fff"/>
      <path id="Path_387" data-name="Path 387" d="M753.362,219.775c0,.516-.558.935-1.246.935s-1.246-.418-1.246-.935.558-.934,1.246-.934,1.246.418,1.246.934" transform="translate(-676.667 -145.136)" fill="#fff"/>
      <path id="Path_388" data-name="Path 388" d="M745.6,194.3c.164-.967,1.8-2.164,2.15-2.352a5.862,5.862,0,0,1,2.639-.659,9.257,9.257,0,0,1,5.234,1.715l1.754,1.131c1.156.745,2.305,1.507,3.416,2.388a.243.243,0,0,1,.11.2.226.226,0,0,1-.286.222c-2.071-.486-5.173-1.727-7.271-2.044-2.678-.464-4.428.686-7.11.24a.72.72,0,0,1-.473-.215A.733.733,0,0,1,745.6,194.3Z" transform="translate(-674.113 -131.829)" fill="#634320" stroke="#000" stroke-miterlimit="10" stroke-width="1"/>
      <path id="Path_389" data-name="Path 389" d="M668.059,194.3c-.165-.967-1.8-2.164-2.15-2.352a5.862,5.862,0,0,0-2.639-.659,9.259,9.259,0,0,0-5.234,1.715l-1.754,1.131c-1.156.745-2.3,1.507-3.415,2.388a.245.245,0,0,0-.111.2.227.227,0,0,0,.286.222c2.07-.486,5.172-1.727,7.271-2.044,2.679-.464,4.428.686,7.11.24a.722.722,0,0,0,.473-.215A.734.734,0,0,0,668.059,194.3Z" transform="translate(-629.277 -131.829)" fill="#634320" stroke="#000" stroke-miterlimit="10" stroke-width="1"/>
      <path id="Path_390" data-name="Path 390" d="M705.2,134.609c5.3-3.82.413-7.444-5.79-3.308,2.119-6.865-6.617-4.136-6.617,3.722" transform="translate(-648.617 -100.96)" fill="#c49669"/>
      <path id="Path_391" data-name="Path 391" d="M705.2,134.609c5.3-3.82.413-7.444-5.79-3.308,2.119-6.865-6.617-4.136-6.617,3.722" transform="translate(-648.617 -100.96)" fill="none" stroke="#000" stroke-miterlimit="10" stroke-width="1"/>
      <path id="Path_392" data-name="Path 392" d="M700.986,253.924c-.755-1,.427-2.863,1.587-2,2.424,1.8,7.533,1.992,10.089,1.156.677-.221,1.1.7.786,1.22a8.946,8.946,0,0,1-2.546,2.617,6.423,6.423,0,0,1-8.593-1.235Z" transform="translate(-652.457 -161.009)" fill="#472018" stroke="#000" stroke-miterlimit="10" stroke-width="1"/>
      <path id="Path_393" data-name="Path 393" d="M708.132,258.1a8.67,8.67,0,0,0-3.963.92,6.443,6.443,0,0,0,8.385.988c.179-.128.347-.256.506-.383A8.215,8.215,0,0,0,708.132,258.1Z" transform="translate(-654.11 -164.099)" fill="#8e2e1e" stroke="#000" stroke-miterlimit="10" stroke-width="1"/>
    </g>
    <path id="Path_394" data-name="Path 394" d="M784.163,404.347c4.3,3.774,6.434-1.1,1.69-5.589,6.274.464,2.234-6.457-4.472-4.919" transform="translate(-144.842 -153.278)" fill="#c49669" stroke="#000" stroke-miterlimit="10" stroke-width="1"/>
    <path id="Path_395" data-name="Path 395" d="M635.846,410.327c-3.75,5.2-7.308.406-3.248-5.684-6.74,2.08-4.06-6.5,3.654-6.5" transform="translate(-71.119 -155.467)" fill="#c49669" stroke="#000" stroke-miterlimit="10" stroke-width="1"/>
    <ellipse id="Ellipse_135" data-name="Ellipse 135" cx="18.179" cy="25.527" rx="18.179" ry="25.527" transform="translate(622.012 255.076)" fill="#c49669" stroke="#000" stroke-miterlimit="10" stroke-width="1"/>
    <ellipse id="Ellipse_136" data-name="Ellipse 136" cx="17.893" cy="25.527" rx="17.893" ry="25.527" transform="translate(544.415 257.077)" fill="#c49669" stroke="#000" stroke-miterlimit="10" stroke-width="1"/>
    <path id="Path_396" data-name="Path 396" d="M646.536,342.6s-22.427.882-18.4-19.7c3.45-17.632,8.92-21.314,12.546-21.357,0,0,17.473,8.64,18.58,15.21,4.426-.876,9.958,4.38,9.958,4.38C678.071,328.142,674.2,350.48,646.536,342.6Z" transform="translate(-70.588 -108.807)" fill="#c49669" stroke="#000" stroke-miterlimit="10" stroke-width="1"/>
    <path id="Path_397" data-name="Path 397" d="M678.786,335.455s11.186-1.079,16.381,3.183" transform="translate(-95.287 -125.127)" fill="#c49669" stroke="#000" stroke-miterlimit="10" stroke-width="1"/>
    <path id="Path_398" data-name="Path 398" d="M683.765,330.967s-3.872.05-4.979-.388" transform="translate(-95.287 -122.831)" fill="#c49669" stroke="#000" stroke-miterlimit="10" stroke-width="1"/>
    <path id="Path_399" data-name="Path 399" d="M632.605,516.224H613.9c-3.978,0-7.09-2.793-6.7-6.017l.741-6.179c.337-2.809,3.237-4.95,6.7-4.95h17.219c3.466,0,6.366,2.141,6.7,4.95l.741,6.179C639.7,513.431,636.583,516.224,632.605,516.224Z" transform="translate(-60.695 -204.218)" fill="#c49669" stroke="#000" stroke-miterlimit="10" stroke-width="1"/>
    <line id="Line_6" data-name="Line 6" y2="11.577" transform="translate(556.53 300.429)" fill="#c49669" stroke="#000" stroke-miterlimit="10" stroke-width="1"/>
    <line id="Line_7" data-name="Line 7" y2="11.577" transform="translate(568.59 300.429)" fill="#c49669" stroke="#000" stroke-miterlimit="10" stroke-width="1"/>
    <line id="Line_8" data-name="Line 8" y2="11.577" transform="translate(563.056 300.429)" fill="#c49669" stroke="#000" stroke-miterlimit="10" stroke-width="1"/>
    <path id="Path_400" data-name="Path 400" d="M786.563,520.253H767.607c-4.032,0-7.187-2.793-6.794-6.017l.751-6.179c.342-2.809,3.281-4.951,6.794-4.951h17.453c3.513,0,6.453,2.142,6.794,4.951l.752,6.179C793.749,517.46,790.6,520.253,786.563,520.253Z" transform="translate(-134.891 -206.163)" fill="#c49669" stroke="#000" stroke-miterlimit="10" stroke-width="1"/>
    <line id="Line_9" data-name="Line 9" y2="11.577" transform="translate(635.579 302.512)" fill="#c49669" stroke="#000" stroke-miterlimit="10" stroke-width="1"/>
    <line id="Line_10" data-name="Line 10" y2="11.577" transform="translate(647.802 302.512)" fill="#c49669" stroke="#000" stroke-miterlimit="10" stroke-width="1"/>
    <line id="Line_11" data-name="Line 11" y2="11.577" transform="translate(642.194 302.512)" fill="#c49669" stroke="#000" stroke-miterlimit="10" stroke-width="1"/>
    <path id="Path_401" data-name="Path 401" d="M771.337,299.05s3.537,1.69,2,4.768" transform="translate(-139.99 -107.602)" fill="none" stroke="#dbd3ad" stroke-miterlimit="10" stroke-width="1"/>
    <path id="Path_402" data-name="Path 402" d="M634.315,339.556s.733,1.612,2.052,1.612" transform="translate(-73.807 -127.167)" fill="none" stroke="#dbd3ad" stroke-miterlimit="10" stroke-width="1"/>
    <path id="Path_403" data-name="Path 403" d="M705.339,276.524" transform="translate(-108.112 -96.722)" fill="none" stroke="#dbd3ad" stroke-miterlimit="10" stroke-width="1"/>
    <path id="Path_404" data-name="Path 404" d="M687.445,412.116s-3.809-.7-4.81-1.344" transform="translate(-97.146 -161.565)" fill="#c49669" stroke="#000" stroke-miterlimit="10" stroke-width="1"/>
    <path id="Path_405" data-name="Path 405" d="M715.369,273.393a18.1,18.1,0,0,1-3.776-1.055" transform="translate(-111.133 -94.7)" fill="#c49669" stroke="#000" stroke-miterlimit="10" stroke-width="1"/>
    <path id="Path_406" data-name="Path 406" d="M607.765,468.869c-1.885,3.447-4.9,1.36-2.919-2.625-4.3,2.193-3.572-2.947,1.656-4.146" transform="translate(-58.219 -186.356)" fill="#c49669" stroke="#000" stroke-miterlimit="10" stroke-width="1"/>
    <path id="Path_407" data-name="Path 407" d="M803.508,453.856c4.3,3.774,6.434-1.1,1.691-5.589,6.273.465,2.234-6.457-4.473-4.919" transform="translate(-154.185 -177.192)" fill="#c49669" stroke="#000" stroke-miterlimit="10" stroke-width="1"/>
    <path id="Path_408" data-name="Path 408" d="M659.546,303.628c5.63-1.011,3.144-5.722-3.319-4.8,4.271-4.618-3.659-5.771-6.634.434" transform="translate(-81.187 -105.635)" fill="#c49669" stroke="#000" stroke-miterlimit="10" stroke-width="1"/>
  </g>
</svg>
