<svg id="Layer_1" data-name="Layer 1" xmlns="http://www.w3.org/2000/svg" viewBox="0 0 37.63 36.89"><path id="Path_361" data-name="Path 361" d="M683.19,391.33a7.51,7.51,0,1,1,.08,0Zm-1.34-12a1.75,1.75,0,1,0,1.73,1.76h0a1.73,1.73,0,0,0-1.71-1.75Zm3.49,6.53a.88.88,0,0,0-.9.86h0a.89.89,0,0,0,1.78,0,.86.86,0,0,0-.84-.87Z" transform="translate(-663.83 -365.14)"/><path id="Path_362" data-name="Path 362" d="M695.65,385.47l2.7,1.85,2.54,1.73a.35.35,0,0,1,.17.48v0a18.69,18.69,0,0,1-11.61,11.88h-.14c.08-.85.15-1.68.24-2.52q.23-2.13.48-4.26a.59.59,0,0,1,.18-.37A13,13,0,0,0,695.65,385.47Z" transform="translate(-663.83 -365.14)"/><path id="Path_363" data-name="Path 363" d="M670.7,381.76l-5.37-3.84A18.85,18.85,0,0,1,677,366.05c-.06.72-.13,1.38-.19,2-.13,1.33-.25,2.66-.38,4a9.35,9.35,0,0,1-.11,1.05.72.72,0,0,1-.3.4,12.3,12.3,0,0,0-4.47,5.6C671.18,380,671,380.86,670.7,381.76Z" transform="translate(-663.83 -365.14)"/><path id="Path_364" data-name="Path 364" d="M695.31,369.54c-2.19,1-4.26,1.94-6.34,2.87a.56.56,0,0,1-.44,0,12.87,12.87,0,0,0-9.75-.38c.1-1,.19-2,.29-3s.22-1.94.31-2.92c0-.4.13-.66.6-.69,1.33-.07,2.66-.28,4-.23a18.38,18.38,0,0,1,9.23,2.92C693.89,368.52,694.56,369,695.31,369.54Z" transform="translate(-663.83 -365.14)"/><path id="Path_365" data-name="Path 365" d="M687.22,395l-.49,6.59a18.89,18.89,0,0,1-16.18-3.77l1.85-.9,3.6-1.74a10.59,10.59,0,0,1,1-.46.75.75,0,0,1,.49.05,12.27,12.27,0,0,0,7.1.91C685.44,395.48,686.31,395.19,687.22,395Z" transform="translate(-663.83 -365.14)"/><path id="Path_366" data-name="Path 366" d="M664,380.29l5.74,3.92a.63.63,0,0,1,.23.37,12.92,12.92,0,0,0,4.73,8.53L672,394.45c-.88.42-1.77.81-2.64,1.25-.36.17-.64.23-.9-.16-.76-1.1-1.63-2.12-2.27-3.28a18.38,18.38,0,0,1-2.3-9.4C663.86,382,663.94,381.2,664,380.29Z" transform="translate(-663.83 -365.14)"/><path id="Path_367" data-name="Path 367" d="M690.39,373.6l2.94-1.43c.92-.44,1.85-.88,2.76-1.33a.36.36,0,0,1,.51.09v0a18.71,18.71,0,0,1,4.53,16,.54.54,0,0,1-.07.13L699,385.59l-3.46-2.53a.6.6,0,0,1-.22-.34A13,13,0,0,0,690.39,373.6Z" transform="translate(-663.83 -365.14)"/></svg>