<svg id="Layer_1" data-name="Layer 1" xmlns="http://www.w3.org/2000/svg" viewBox="0 0 59.37 62.24"><defs><style>.cls-1{fill:#fff;}</style></defs><g id="Group_294" data-name="Group 294"><g id="Group_291" data-name="Group 291"><path id="Path_589" data-name="Path 589" class="cls-1" d="M296.27,383.91l-6.75,3a7,7,0,0,0-4.12,5.43,89,89,0,0,0-1.08,18c-6.4,0-8.62,7.11-3,5.39-3.37,5-.42,9,2.69,4.71,2,6,3.83,7.25,5.39,4,10.14,4.44,20.83,4.6,32.16,0,1.56,3.2,3.35,1.95,5.39-4,3.11,4.32,6.06.34,2.69-4.71,5.59,1.72,3.37-5.39-3-5.39.4-6.61-.37-14.06-1.68-21.88l-10.27-4.55c-2.68-1.19-15.68-1.22-18.36,0" transform="translate(-276.7 -365.63)"/><path id="Path_590" data-name="Path 590" class="cls-1" d="M296.27,383.91l-6.75,3a7,7,0,0,0-4.12,5.43,89,89,0,0,0-1.08,18c-6.4,0-8.62,7.11-3,5.39-3.37,5-.42,9,2.69,4.71,2,6,3.83,7.25,5.39,4,10.14,4.44,20.83,4.6,32.16,0,1.56,3.2,3.35,1.95,5.39-4,3.11,4.32,6.06.34,2.69-4.71,5.59,1.72,3.37-5.39-3-5.39.4-6.61-.37-14.06-1.68-21.88l-10.27-4.55C312,382.73,299,382.69,296.27,383.91Z" transform="translate(-276.7 -365.63)"/><path id="Path_591" data-name="Path 591" class="cls-1" d="M298.12,406.81c0,1.21-2,2.19-4.54,2.19s-4.55-1-4.55-2.19,2-2.19,4.55-2.19,4.54,1,4.54,2.19" transform="translate(-276.7 -365.63)"/><ellipse id="Ellipse_142" data-name="Ellipse 142" class="cls-1" cx="16.87" cy="41.18" rx="4.55" ry="2.19"/><path id="Path_592" data-name="Path 592" class="cls-1" d="M312.6,412.7a6.41,6.41,0,1,1-6.74-6.05h.34a6.24,6.24,0,0,1,6.4,6.06" transform="translate(-276.7 -365.63)"/><path id="Path_593" data-name="Path 593" class="cls-1" d="M312.6,412.7a6.41,6.41,0,1,1-6.74-6.05h.34A6.24,6.24,0,0,1,312.6,412.7Z" transform="translate(-276.7 -365.63)"/><path id="Path_594" data-name="Path 594" class="cls-1" d="M311.76,409.84c0,1.67-3.29,1.68-5.05,1.68s-5.73,0-5.73-1.68,3.46-3.2,5.22-3.2,5.56,1.52,5.56,3.2" transform="translate(-276.7 -365.63)"/><path id="Path_595" data-name="Path 595" class="cls-1" d="M278.61,381.52c-3.05-6.72-2.37-13.6,1.53-15.36s9.52,2.24,12.57,8.95c2.07,4.55,3.58,9.11,1.68,11.8a7.65,7.65,0,0,1-2.55,1.36c-.77.35-3.06,2.66-3.15,2.6-3-1.89-7.63-4-10.08-9.35" transform="translate(-276.7 -365.63)"/><path id="Path_596" data-name="Path 596" class="cls-1" d="M278.61,381.52c-3.05-6.72-2.37-13.6,1.53-15.36s9.52,2.24,12.57,8.95c2.07,4.55,3.58,9.11,1.68,11.8a7.65,7.65,0,0,1-2.55,1.36c-.77.35-3.06,2.66-3.15,2.6C285.68,389,281.05,386.89,278.61,381.52Z" transform="translate(-276.7 -365.63)"/><path id="Path_597" data-name="Path 597" class="cls-1" d="M332,383.11c4.68-6.38,5.47-13.76,1.77-16.48s-10.5.26-15.19,6.65c-3.17,4.33-5.76,8.79-4.36,12,.25.58,1.19,1.12,2.39,2,.74.54,2.63,3.46,2.74,3.42,3.58-1.33,8.9-2.5,12.64-7.62" transform="translate(-276.7 -365.63)"/><path id="Path_598" data-name="Path 598" class="cls-1" d="M332,383.11c4.68-6.38,5.47-13.76,1.77-16.48s-10.5.26-15.19,6.65c-3.17,4.33-5.76,8.79-4.36,12,.25.58,1.19,1.12,2.39,2,.74.54,2.63,3.46,2.74,3.42C322.9,389.4,328.22,388.23,332,383.11Z" transform="translate(-276.7 -365.63)"/><path id="Path_599" data-name="Path 599" class="cls-1" d="M279.29,382c-2.88-6.34-2.23-12.84,1.44-14.51s9,2.12,11.88,8.46c1.95,4.3,3.38,8.6,1.59,11.14a7.11,7.11,0,0,1-2.41,1.29c-.74.33-2.9,2.51-3,2.45-2.84-1.79-7.21-3.75-9.52-8.83" transform="translate(-276.7 -365.63)"/><path id="Path_600" data-name="Path 600" class="cls-1" d="M279.29,382c-2.88-6.34-2.23-12.84,1.44-14.51s9,2.12,11.88,8.46c1.95,4.3,3.38,8.6,1.59,11.14a7.11,7.11,0,0,1-2.41,1.29c-.74.33-2.9,2.51-3,2.45C286,389,281.6,387.06,279.29,382Z" transform="translate(-276.7 -365.63)"/><path id="Path_601" data-name="Path 601" class="cls-1" d="M331,383.53c4.36-5.95,5.1-12.82,1.65-15.35s-9.78.25-14.14,6.2c-2.95,4-5.36,8.18-4.06,11.2.23.53,1.11,1,2.22,1.85.69.5,2.46,3.23,2.56,3.19,3.33-1.23,8.28-2.33,11.77-7.09" transform="translate(-276.7 -365.63)"/><path id="Path_602" data-name="Path 602" class="cls-1" d="M331,383.53c4.36-5.95,5.1-12.82,1.65-15.35s-9.78.25-14.14,6.2c-2.95,4-5.36,8.18-4.06,11.2.23.53,1.11,1,2.22,1.85.69.5,2.46,3.23,2.56,3.19C322.51,389.38,327.46,388.29,331,383.53Z" transform="translate(-276.7 -365.63)"/><path id="Path_603" data-name="Path 603" class="cls-1" d="M295.77,406.64a1.86,1.86,0,1,1-1.86-2,2,2,0,0,1,1.86,2" transform="translate(-276.7 -365.63)"/><path id="Path_604" data-name="Path 604" class="cls-1" d="M314.62,406.81c0,1.21,2,2.19,4.54,2.19s4.55-1,4.55-2.19-2-2.19-4.55-2.19-4.54,1-4.54,2.19" transform="translate(-276.7 -365.63)"/><ellipse id="Ellipse_143" data-name="Ellipse 143" class="cls-1" cx="42.46" cy="41.18" rx="4.55" ry="2.19"/><path id="Path_605" data-name="Path 605" class="cls-1" d="M317,406.64a1.86,1.86,0,1,0,1.85-2,1.93,1.93,0,0,0-1.85,2" transform="translate(-276.7 -365.63)"/><path id="Path_606" data-name="Path 606" class="cls-1" d="M296.1,406.14c0,.27-.3.5-.67.5s-.67-.23-.67-.5.3-.5.67-.5.67.22.67.5" transform="translate(-276.7 -365.63)"/><path id="Path_607" data-name="Path 607" class="cls-1" d="M318.15,406c0,.28-.3.5-.67.5s-.67-.22-.67-.5.3-.5.67-.5.67.22.67.5" transform="translate(-276.7 -365.63)"/><path id="Path_608" data-name="Path 608" class="cls-1" d="M315.34,399.39c.09-.52,1-1.17,1.16-1.27a3.08,3.08,0,0,1,1.43-.35,5,5,0,0,1,2.82.92l.95.61a20.62,20.62,0,0,1,1.85,1.3.13.13,0,0,1,.06.1.13.13,0,0,1-.12.13h0c-1.12-.26-2.8-.93-3.93-1.1-1.45-.25-2.39.37-3.84.13a.36.36,0,0,1-.26-.11A.4.4,0,0,1,315.34,399.39Z" transform="translate(-276.7 -365.63)"/><path id="Path_609" data-name="Path 609" class="cls-1" d="M297.66,399.39c-.08-.52-1-1.17-1.16-1.27a3.07,3.07,0,0,0-1.42-.35,4.93,4.93,0,0,0-2.83.92l-.95.61a22.16,22.16,0,0,0-1.85,1.3.13.13,0,0,0-.06.1.13.13,0,0,0,.12.13h0c1.12-.26,2.8-.93,3.93-1.1,1.45-.25,2.39.37,3.84.13a.36.36,0,0,0,.26-.11A.4.4,0,0,0,297.66,399.39Z" transform="translate(-276.7 -365.63)"/><path id="Path_610" data-name="Path 610" class="cls-1" d="M307.29,383.81c2.86-2.06.22-4-3.13-1.78,1.14-3.71-3.58-2.24-3.58,2" transform="translate(-276.7 -365.63)"/><path id="Path_611" data-name="Path 611" class="cls-1" d="M307.29,383.81c2.86-2.06.22-4-3.13-1.78,1.14-3.71-3.58-2.24-3.58,2" transform="translate(-276.7 -365.63)"/><path id="Path_612" data-name="Path 612" class="cls-1" d="M302.94,415.85c-.41-.55.23-1.55.85-1.09,1.31,1,4.07,1.08,5.46.63.36-.12.59.38.42.66a4.76,4.76,0,0,1-1.38,1.41,3.46,3.46,0,0,1-4.64-.66Z" transform="translate(-276.7 -365.63)"/><path id="Path_613" data-name="Path 613" class="cls-1" d="M305.9,416.43a4.8,4.8,0,0,0-2.14.5,3.49,3.49,0,0,0,4.53.54l.27-.21A4.38,4.38,0,0,0,305.9,416.43Z" transform="translate(-276.7 -365.63)"/></g><g id="Group_293" data-name="Group 293"><path id="Rectangle_71" data-name="Rectangle 71" class="cls-1" d="M316.81,400.87h1.8a.9.9,0,0,1,.9.9h0a.9.9,0,0,1-.9.9h-1.8a.9.9,0,0,1-.9-.9h0a.9.9,0,0,1,.9-.9Z" transform="translate(-276.7 -365.63)"/><path id="Rectangle_72" data-name="Rectangle 72" class="cls-1" d="M317.8,401.77h13a4.29,4.29,0,0,1,4.29,4.29h0v4.61A4.29,4.29,0,0,1,330.8,415h-13a4.29,4.29,0,0,1-4.29-4.29h0v-4.61a4.29,4.29,0,0,1,4.29-4.29Z" transform="translate(-276.7 -365.63)"/><g id="Group_292" data-name="Group 292"><path id="Rectangle_73" data-name="Rectangle 73" class="cls-1" d="M316.21,403h4.19a.9.9,0,0,1,.9.9h0a.9.9,0,0,1-.9.9h-4.19a.9.9,0,0,1-.9-.9h0A.9.9,0,0,1,316.21,403Z" transform="translate(-276.7 -365.63)"/><path id="Rectangle_74" data-name="Rectangle 74" class="cls-1" d="M317.4,403h1.8a.9.9,0,0,1,.9.9h0a.9.9,0,0,1-.9.9h-1.8a.9.9,0,0,1-.89-.9h0A.89.89,0,0,1,317.4,403Z" transform="translate(-276.7 -365.63)"/></g><path id="Path_614" data-name="Path 614" class="cls-1" d="M323.09,402.75a.36.36,0,0,1,0,.5.32.32,0,1,1-.41-.5A.36.36,0,0,1,323.09,402.75Z" transform="translate(-276.7 -365.63)"/><path id="Path_361" data-name="Path 361" class="cls-1" d="M327.58,410.38a2.09,2.09,0,1,1,2.1-2.08,2.09,2.09,0,0,1-2.1,2.08Zm-.37-3.33a.48.48,0,0,0-.49.48.5.5,0,0,0,.48.49.49.49,0,0,0,.49-.48h0a.48.48,0,0,0-.48-.49Zm1,1.81a.25.25,0,0,0-.25.24h0a.25.25,0,0,0,.25.25.25.25,0,0,0,.25-.25.24.24,0,0,0-.24-.24Z" transform="translate(-276.7 -365.63)"/><path id="Path_362" data-name="Path 362" class="cls-1" d="M331.05,408.75l.75.51c.24.16.47.33.71.48a.11.11,0,0,1,.05.14h0a5.24,5.24,0,0,1-3.23,3.31h0l.06-.7c0-.39.09-.79.14-1.19a.16.16,0,0,1,.05-.1A3.6,3.6,0,0,0,331.05,408.75Z" transform="translate(-276.7 -365.63)"/><path id="Path_363" data-name="Path 363" class="cls-1" d="M324.11,407.72l-1.5-1.07a5.24,5.24,0,0,1,3.23-3.3c0,.2,0,.38,0,.57,0,.37-.07.74-.11,1.11a1.5,1.5,0,0,1,0,.29.21.21,0,0,1-.08.11,3.4,3.4,0,0,0-1.24,1.56A7,7,0,0,0,324.11,407.72Z" transform="translate(-276.7 -365.63)"/><path id="Path_364" data-name="Path 364" class="cls-1" d="M331,404.31l-1.76.8a.13.13,0,0,1-.12,0,3.6,3.6,0,0,0-2.71-.11c0-.28.05-.56.08-.84s.06-.54.08-.81c0-.11,0-.19.17-.2a10.32,10.32,0,0,1,1.11-.06,5.22,5.22,0,0,1,2.57.81Z" transform="translate(-276.7 -365.63)"/><path id="Path_365" data-name="Path 365" class="cls-1" d="M328.7,411.39l-.13,1.83a5.24,5.24,0,0,1-4.5-1l.51-.25,1-.49.27-.13a.2.2,0,0,1,.13,0,3.37,3.37,0,0,0,2,.25C328.21,411.53,328.45,411.46,328.7,411.39Z" transform="translate(-276.7 -365.63)"/><path id="Path_366" data-name="Path 366" class="cls-1" d="M322.24,407.31l1.6,1.09a.17.17,0,0,1,.06.1,3.66,3.66,0,0,0,.43,1.32,3.58,3.58,0,0,0,.89,1.05l-.76.37-.74.35c-.1.05-.18.07-.25,0a10.59,10.59,0,0,1-.63-.91,5,5,0,0,1-.64-2.62C322.2,407.79,322.22,407.56,322.24,407.31Z" transform="translate(-276.7 -365.63)"/><path id="Path_367" data-name="Path 367" class="cls-1" d="M329.58,405.45l.82-.4.77-.38a.1.1,0,0,1,.14,0h0a5.21,5.21,0,0,1,1.26,4.45.08.08,0,0,1,0,0l-.57-.41c-.33-.23-.65-.47-1-.71a.14.14,0,0,1-.07-.1A3.59,3.59,0,0,0,329.58,405.45Z" transform="translate(-276.7 -365.63)"/></g></g></svg>