<?xml version="1.0" encoding="utf-8"?>
<!-- Generator: Adobe Illustrator 23.0.1, SVG Export Plug-In . SVG Version: 6.00 Build 0)  -->
<svg version="1.1" id="Layer_1" xmlns="http://www.w3.org/2000/svg" xmlns:xlink="http://www.w3.org/1999/xlink" x="0px" y="0px"
	 viewBox="0 0 217.2 217.6" style="enable-background:new 0 0 217.2 217.6;" xml:space="preserve">
<style type="text/css">
	.st0{enable-background:new    ;}
	.st1{fill:#C49669;}
	.st2{fill:#FFFFFF;}
	.st3{fill:#DBD3AD;}
	.st4{fill:#634320;}
	.st5{fill:#472018;}
	.st6{fill:#8E2E1E;}
	.st7{fill:#2D2D2D;}
	.st8{fill:#AFAFAF;}
	.st9{fill:#F6C700;}
	.st10{fill:#BC3B31;}
</style>
<g>
	<g id="SCANEROO">
		<g class="st0">
			<path d="M31.5,184.4c-0.2,0.2-0.9,0.3-2.1,0.3c-0.8,0.2-1.7,0-2.8-0.4l-1-0.3l-1.5-0.7c-0.1,0-0.2,0-0.2,0s-0.1,0-0.2-0.1
				c-0.2-0.2-0.4-0.3-0.7-0.4c-0.6-0.4-1.1-0.8-1.3-1.2c-1-1.6-1.5-3-1.5-4.1c0-0.1,0.2-0.4,0.5-0.7c0.6-0.8,1.4-1.2,2.4-1.2
				c0.4,0,0.7,0.2,0.9,0.4l1.6,2.1c0.3,0.3,0.5,0.5,0.9,0.8l0.6,0.7l1,0.8c0.1,0.1,0.3,0.1,0.4,0.1c0.1,0.1,0.5,0.1,1.1,0.2
				c0.6-0.2,1.2-0.3,1.6-0.5c0.3-0.3,0.5-0.5,0.8-0.7l0.7-0.8c0.1-0.1,0.2-0.3,0.3-0.8c0-0.4,0-0.7,0-0.8s0-0.5-0.2-1.2
				c0-0.1-0.3-0.4-0.7-0.8c-0.2-0.4-0.5-0.8-0.8-1.2c-0.2-0.2-1.1-0.7-2.8-1.5l-0.9-0.5l-0.9-0.8c-0.4-0.1-1-0.6-1.8-1.3
				c-0.3-0.2-0.6-0.4-0.7-0.5c-0.2-0.1-0.7-0.6-1.6-1.6c0-0.1-0.3-0.7-0.8-1.8l-0.4-1.9l0.2-1.2c-0.2-0.8-0.3-1.5-0.2-1.9
				c0.1-0.2,0.3-0.6,0.5-1.2c-0.1-0.5,0.3-1.4,1.3-2.8c0-0.2,0.7-1,2.1-2.3l1.6-0.9l0.8-0.3c0.3,0,0.7-0.1,1.2-0.1
				c0.5-0.1,1.2-0.1,2.2,0s1.6,0.2,1.9,0.4c0.2,0.1,0.9,0.5,1.9,1.3c1.4,1.2,2.2,2.4,2.3,3.4c0.5,1.6,0.6,3.4,0.1,5.2
				c0,0.1-0.4,0.4-1.3,0.8h-1.2c-1-0.1-2-0.7-2.9-1.6c-0.3-0.2-0.4-0.6-0.6-1.3c0-0.8-0.2-1.2-0.5-1.4c0,0-0.2-0.3-0.4-0.9
				c-0.5-0.7-0.9-1.1-1.1-1.1s-0.4,0-0.6,0.1c-1.2,0.9-1.8,2-1.8,3.1c-0.2,0.9,0.1,2.1,0.9,3.4c0.4,0.5,0.6,0.8,0.7,0.8
				c0.2,0.3,0.6,0.7,1.1,1.2l0.7,0.7l2,1.5l0.8,0.8l0.9,0.6c0.5,0.2,1,0.5,1.5,0.9c0.6,0.5,1.4,1.4,2.4,2.7c0.2,0.3,0.4,1.2,0.8,2.6
				v1.9l-0.2,1.1c-0.2,0.2-0.3,0.5-0.5,1c0,0-0.2,0.5-0.5,1.3c-0.1,0.2-0.5,0.5-1.2,1c-1,0.8-2,1.3-3.2,1.7
				C32.4,184.4,32,184.4,31.5,184.4z"/>
			<path d="M42,163.9l0.2-0.8c0-0.5,0.1-0.9,0.3-1.2l0.2-0.5c0.1,0,0.2-0.2,0.3-0.5c0.1-0.4,0.2-0.6,0.1-0.8c0-0.2,0.1-0.5,0.5-0.9
				l1-2.3c0.1-0.4,0.1-0.6,0.1-0.7c0-0.1,0.1-0.3,0.4-0.6c0.3-0.3,0.4-0.5,0.3-0.6c0-0.3,0.5-0.8,1.4-1.5c0.4-0.2,0.6-0.3,0.8-0.3
				s0.4-0.1,0.6-0.2c0.2-0.1,0.4-0.2,0.5-0.2s0.2-0.1,0.4-0.2c0.2-0.1,0.4-0.2,0.5-0.2s0.3,0,0.5-0.1c0.2,0,0.4-0.1,0.6-0.1
				c0.7,0,1.3,0.1,1.7,0.3s0.6,0.3,0.7,0.3c1.7,0.9,2.6,1.5,2.8,1.7c0.3,0,0.7,0.4,1.2,1.1c0.3,0.1,0.5,0.3,0.5,0.4
				c0,0.1,0.2,0.2,0.4,0.5c0.3,0.2,0.5,0.3,0.7,0.4c0.2,0,0.3,0.3,0.4,0.8l-0.2,3.7c0,0.2,0,0.6-0.1,1.2c-0.1,0.6-0.3,1.1-0.6,1.5
				c-0.7,0.3-1.5,0.4-2.4,0.4s-1.4,0-1.4,0c-0.4-0.1-0.5-0.5-0.5-1.4c0-0.8,0-1.5-0.1-2c0-0.9,0-1.6,0-2.1c0-0.1-0.2-0.3-0.6-0.7
				c-0.4-0.4-0.6-0.5-0.8-0.6c-0.8-0.1-1.4,0.3-1.8,1.1c-0.4,0.3-0.7,0.7-1.1,1.2c-0.2,0.1-0.4,0.4-0.6,1c-0.2,0.6-0.3,1.2-0.4,1.7
				c-1,3-1.4,4.5-1.4,4.5c-0.2,2.3-0.3,3.6-0.2,3.8c0,0.2,0,0.6-0.1,1.1c0,1.2,0.1,2.5,0.2,3.9c0.4,1,0.7,1.6,1,1.8
				c0.5,0.5,1.3,0.7,2.5,0.7s2-0.2,2.4-0.6l1.2-1.1l0.3-0.4c0.1,0,0.3-0.3,0.4-0.8c0.8-1.1,1.3-1.7,1.6-1.9c0.2-0.2,0.5-0.3,0.7-0.2
				c0.1,0.1,0.2,0.2,0.5,0.3c0.2,0.1,0.4,0.2,0.5,0.4c0.3,0.4,0.5,0.7,0.6,0.7c0.2,0,0.5,0.5,0.8,1.5c0.3,1.2,0.3,2,0,2.5l-0.3,0.8
				c-0.3,0.3-0.4,0.5-0.6,0.7l-0.3,1c0,0.1-0.1,0.2-0.4,0.5c-0.3,0.2-0.5,0.4-0.6,0.4s-0.4,0.2-0.9,0.6c-0.8,0.6-1.8,1-2.9,1
				c-1.1,0-1.8,0-2-0.2c-0.4,0-0.6,0-0.6,0c-0.1-0.2-0.4-0.3-0.9-0.3h-0.4l-0.9-0.3H48c-0.5,0-0.9-0.1-1.4-0.4
				c-0.4-0.3-0.8-0.4-0.9-0.4c-0.2,0-0.6-0.3-1.3-0.9c-0.7-0.6-1.1-1.1-1.3-1.3s-0.4-0.6-0.7-1.1s-0.5-1-0.8-1.5s-0.4-1-0.4-1.6
				s-0.1-1-0.1-1.2s-0.1-0.6-0.2-1.1c-0.1-0.5-0.1-1,0.1-1.4c0.1-0.4,0.1-1.2,0-2.4c0-0.7,0.1-1.3,0.2-1.9c0.2-0.8,0.4-1.6,0.6-2.3
				C41.9,164.4,42,164,42,163.9z"/>
			<path d="M63.7,171.5l0.3-2.1c0-0.4,0.1-0.8,0.2-1.2c0-0.5,0.3-1.4,0.8-2.5c0-0.1,0.1-0.5,0.4-1.2c0-0.1,0.3-1,0.9-2.8l0.6-1.4
				c0-0.1,0.1-0.4,0.2-0.7c0.2-0.4,0.3-0.7,0.4-1.1c0.1-0.4,0.2-0.7,0.3-1.1c0.4-0.9,0.8-1.6,1.2-2.2c0.7-1.3,1.9-1.9,3.7-1.7
				l1.5,0.1c1,0.3,1.7,0.5,2.2,0.8c0.7,0.3,1.2,0.6,1.5,0.9c0.3,0.3,0.4,0.9,0.3,1.7c0,0.4,0.1,2.1,0.3,5c0.2,2.9,0.2,4.4,0.2,4.5
				l0.2,2.1c0,0.2,0.4,2.5,1.1,6.9l1.1,3.4c0.6,1.8,1,2.7,1,2.8s0.2,0.4,0.4,1c0.4,1.1,0,1.8-0.9,2.1c-0.9,0.1-1.5,0-1.9-0.2
				c-0.2,0-0.5-0.1-1.1-0.4c-0.1-0.2-0.2-0.3-0.6-0.5c-0.3-0.1-0.5-0.3-0.6-0.4c-0.4-0.1-0.7-0.6-1-1.5c-0.1-0.1-0.3-0.3-0.5-0.8
				c-0.2-0.4-0.3-0.8-0.2-1.1c-0.2-0.3-0.3-0.9-0.3-1.8c-0.3-0.5-0.4-1.2-0.4-2.3c0-1-0.2-1.8-0.5-2.4c-1.6,0.7-3.4,1.1-5.2,1.2
				c-0.4,0-0.5,0.1-0.5,0.2c0,0.3-0.1,0.8-0.3,1.5l-0.8,5.3c0.3,2.4,0,3.6-0.9,3.7c-0.3,0-0.7,0.1-1.3,0.2c-0.6,0.1-1.1,0-1.5-0.3
				c-0.7-0.4-1.3-0.8-1.6-1.3c-0.3-0.4-0.4-0.9-0.4-1.5c0-0.4,0.1-1.4,0.2-2.9c0.1-0.1,0.1-0.4,0.1-1.1c0-0.7,0-1.2,0.1-1.5l0.8-3
				c0.1-0.1,0.2-0.5,0.4-1.4c0-0.1,0-0.2,0-0.5L63.7,171.5z M70.2,170.1c0.1-0.1,0.4-0.1,1.1-0.2c0.7-0.1,1.5-0.4,2.4-0.8
				c0,0,0-0.4,0-1.2c-0.1-1.3-0.2-2.3-0.2-2.9c-0.1-0.8-0.1-1.3-0.2-1.6c0-0.6-0.2-1.9-0.7-3.8l-2.1,7.2c-0.4,2-0.6,3.2-0.5,3.7
				L70.2,170.1z"/>
			<path d="M100.7,174.1c-0.1-0.4,0-1.1,0.2-2.4c0-0.8,0-1.4,0.1-1.8v-1c0.1-2.4,0.2-3.9,0.2-4.5c0-1.8,0.2-3.2,0.5-4.1v-1
				c0-0.4,0-0.9,0.1-1.4c0-0.5,0-0.7,0-0.8l0.6-2.1l0.1-0.6c0.1-0.1,0.3-0.4,0.8-0.8c0.1-0.1,0.5-0.1,1.1-0.1s1.2,0.1,1.5,0.2
				c0.3,0,0.4,0.1,0.5,0.2s0.2,0.5,0.2,0.9c0.2,0.4,0.2,0.9,0.1,1.6c0,0.2,0,0.3,0,0.5c0,0.1,0,0.3,0,0.5c0.1,0.5,0,1.2-0.1,2v1.2
				c0,0.5-0.1,1-0.2,1.7v1.2c0,0.4-0.1,0.8-0.2,1.2c0,0.4-0.1,1-0.3,2c0,0.5,0,0.8-0.1,0.9c0,0.1,0,0.5,0.1,1.2
				c-0.1,1-0.1,1.7,0,2.3v1c0,1.5-0.1,2.5-0.2,3v0.3c0,0.6,0,1.1-0.1,1.4c0.1,0.7,0,1.5-0.1,2.4l-0.1,1.2c-0.4,2.3-1.5,3.5-3.2,3.8
				c-2.1,0.3-3.7-0.3-4.9-1.9c-0.1-0.2-0.2-0.5-0.2-0.7c-0.2,0-0.3-0.1-0.4-0.2c-0.4-0.6-1-2.1-1.8-4.4c-0.2-0.4-0.3-0.8-0.3-1
				c-0.3-0.5-0.4-0.9-0.4-1.2c-0.3-0.5-0.4-0.9-0.4-1.2v-0.8l-0.4-1.1c0-0.2,0-0.6-0.1-1c-0.3-1.5-0.5-2.9-0.6-4.2s-0.2-2-0.2-2.3
				l-0.2,1.1c-0.1,1.2-0.3,2.2-0.4,3c-0.3,1.3-0.4,2.5-0.4,3.6c-0.1,0.6-0.1,1.1-0.1,1.5c-0.1,0.2-0.1,0.4-0.1,0.7l-0.1,3.3
				c-0.2,1.2-0.2,2.6-0.1,4.3c0,0.9-0.2,1.5-0.6,1.9c-0.4,0.3-0.8,0.5-1.4,0.5c-0.5-0.2-1.1-0.4-1.8-0.8c-0.2-0.1-0.3-0.3-0.4-0.7
				s-0.2-0.7-0.3-0.9c-0.4-0.4-0.7-1-0.8-1.5l-0.4-3.4c0-0.3,0-0.8,0.1-1.6s0.1-1.4,0.1-1.9s0.1-1.2,0.3-2.2
				c0.2-0.5,0.3-1.1,0.3-1.7l0.3-3.9c0-0.5,0.1-1,0.2-1.2c0-0.4,0-0.8,0.1-1.2c-0.1-0.1,0-0.4,0.1-0.7l0.2-0.7
				c0-0.2,0.1-0.6,0.2-1.1s0.2-1.1,0.3-1.8c0.2-1.2,0.8-2.3,1.9-3.4c0.3-0.2,0.5-0.6,0.8-1.2c0.3-0.3,0.7-0.6,1.2-0.9
				c0.6-0.4,1.2-0.4,1.9,0.1c1.2,0.5,2,1.4,2.2,2.6l0.1,1.2c0,0.2,0.1,0.6,0.4,1.3c0,0.3,0,0.7,0.1,1.4c0,0.4,0.1,0.8,0.3,1.4
				l0.6,3.5c0.1,0.2,0.2,0.5,0.3,0.9l0.3,1.3c0.1,0.7,0.2,1.3,0.3,1.7c0.1,0.4,0.3,0.9,0.4,1.4s0.3,1.2,0.6,2
				c0.2,0.8,0.4,1.5,0.6,2.2s0.4,1.3,0.7,1.9c0.1-0.1,0.1-0.5,0.1-1.2L100.7,174.1z"/>
			<path d="M120.4,153.3l0.9-0.4c0.1,0,0.2,0,0.4-0.1c0.7-0.3,1.6-0.6,2.7-0.7c0.2-0.3,0.6-0.2,1.1,0.2c0.3,0.1,0.4,0.2,0.5,0.2
				s0.2,0.1,0.4,0.4c0.2,0.2,0.3,0.4,0.4,0.6l0.5,0.4c0.4,0.2,0.6,0.4,0.7,0.6c0.1,0.1,0.1,0.4,0,0.8c0,0.4-0.2,0.7-0.4,1
				c-0.2,0.3-0.5,0.5-0.7,0.6c-1.1,0.4-1.8,0.6-2.2,0.6c-0.4,0-0.8,0.2-1.4,0.5c-0.5,0.3-1,0.5-1.3,0.6c-0.4,0.1-0.6,0.1-0.8,0.2
				c-0.2,0.1-0.4,0.3-0.7,0.5c-0.8,0.4-1.5,0.7-2.3,0.9c0.1,0,0,0.2-0.1,0.5s-0.2,0.7-0.3,1.3c-0.1,0.5-0.3,1.1-0.5,1.9l-0.6,2.6
				c-0.1,0.6-0.1,0.9,0,0.9s0.2-0.1,0.2-0.2c1.8-0.7,2.8-1.2,3.1-1.6c0.3-0.4,0.8-0.5,1.5-0.5l0.6-0.1c0.1-0.1,0.3-0.1,0.6-0.1
				c0.6-0.2,1.3,0.2,2.3,1.2l-0.1,0.5c-0.2,0.3-0.4,0.7-0.8,1.1c-0.4,0.4-0.6,0.6-0.8,0.7c-0.2,0.1-0.4,0.2-0.5,0.2
				s-0.2,0.1-0.2,0.1h-0.1c-0.2,0.2-0.4,0.4-0.6,0.5c-0.3,0.3-0.5,0.4-0.8,0.6c-0.3,0.1-0.5,0.3-0.7,0.4c-0.2,0.1-0.4,0.2-0.5,0.3
				s-0.2,0.1-0.4,0.2c-0.2,0.1-0.3,0.2-0.6,0.3c-0.2,0.1-0.3,0.2-0.4,0.2s-0.4,0.3-1.1,0.9c-0.2,0-0.5-0.1-0.8-0.3
				c-0.4-0.2-0.6-0.4-0.8-0.6c-0.2,0-0.2,0.4-0.1,1.3c0,0.2-0.1,0.6-0.2,1.2c-0.1,1.2-0.1,2.4,0,3.6c0.1,1.2,0.2,1.9,0.4,2.2
				c0.2,0.3,0.4,0.4,0.6,0.4c0.5-0.1,0.8-0.2,1.1-0.4c0.3-0.2,0.5-0.3,0.7-0.3s0.5-0.2,0.7-0.4c0.3-0.2,0.5-0.3,0.6-0.3
				s0.6-0.4,1.4-1.2c0.1-0.2,0.3-0.3,0.6-0.5c0.3-0.2,0.5-0.3,0.5-0.4c0.1-0.1,0.3-0.3,0.7-0.6c0.4-0.2,0.9-0.4,1.4-0.5
				c0.6-0.1,1,0,1.3,0.1c0.5,0.3,1.1,0.8,1.9,1.5c0.2,0.3,0.2,0.8,0,1.7c-0.2,0.8-0.5,1.5-0.8,1.8l-0.4,0.4c-0.5,0.6-1.3,1.3-2.4,2
				c-0.8,0.4-1.3,0.7-1.3,0.7c-0.2,0.2-0.3,0.3-0.3,0.3c-0.2,0.3-0.3,0.4-0.4,0.3c-0.1-0.1-0.4-0.1-0.9,0s-0.9,0.1-1.2,0
				c-0.2-0.1-0.4-0.1-0.7-0.1c-0.3,0.2-1.4-0.4-3.2-1.6c-0.3-0.2-0.4-0.3-0.5-0.3s-0.3,0-0.6-0.1c-0.3-0.1-0.6-0.3-0.9-0.4
				c-1.1-0.6-1.7-1-1.9-1.2c-0.2-0.2-0.4-0.4-0.7-0.6c-0.3-0.2-0.4-0.3-0.4-0.5s-0.1-0.4-0.3-0.6c0-0.1-0.1-0.4-0.3-0.9
				c-0.3-0.4-0.3-0.7-0.2-0.9c0-0.2,0-0.3,0-0.5c-0.1-0.1-0.1-1-0.2-2.8c-0.1-1.7,0-2.7,0.1-2.9s0.2-0.5,0.2-1.2
				c-0.1-0.6,0-1,0.3-1.3c0.2-0.3,0.3-0.7,0.3-1.1c0-0.5,0-0.8,0.1-1.1c0.1-0.1,0.2-0.6,0.3-1.5l0.2-0.9c0.4-0.8,0.6-1.3,0.6-1.6
				s0.1-0.6,0.2-1c0-0.1,0.2-0.6,0.6-1.6l0.3-0.7l0.1-0.6c0.8-1.6,1.3-2.6,1.5-2.8c0-0.1,0.2-0.7,0.6-1.8c0-0.5,0.2-0.8,0.8-1
				c0.5-0.2,1-0.2,1.5,0.1s0.7,0.4,0.8,0.5c0.1,0.1,0.3,0.2,0.6,0.4C119,153.5,119.5,153.5,120.4,153.3z"/>
			<path d="M146.2,181.4c-0.5-0.2-1.2-0.6-2-1.4c-0.2-0.2-0.6-0.6-1.2-1.2c-0.6-0.4-1.4-1.1-2.4-2.3c0,0-0.1-0.3-0.3-0.8
				c-0.4-0.4-0.8-1.1-1.1-2.1c0,0-0.1-0.1-0.1-0.2c-0.1-0.1-0.2-0.2-0.3-0.5s-0.3-0.6-0.5-1.1s-0.5-1.1-1-1.7H137
				c0,0.2,0,0.5-0.1,0.8v1l-0.3,2.8l-0.7,4.7c0.1,0.3,0.1,0.7,0,1.3c0,0.3-0.1,0.7-0.2,1.2c-0.2,0.6-0.4,1-0.7,1.2s-0.9,0.2-1.9,0.1
				c-0.3-0.1-0.8-0.6-1.3-1.3c-0.2-0.1-0.5-0.6-1-1.5c0.1-0.6,0.1-0.9,0-1.1c0-0.1,0-0.3,0-0.6c0-0.2,0-0.4,0-0.4
				c-0.1,0.1-0.1-0.3,0-1V177c0-0.1,0.1-0.6,0.3-1.5c0-0.7,0-1.1,0-1.4c0-0.3,0.1-0.6,0.3-1v-1.3v-1.3c0.2-0.6,0.3-1.2,0.3-2
				c0.1-0.4,0.1-0.8,0.1-1.1c0-0.4,0.1-0.8,0.2-1.2c0-0.7,0-1.2,0.1-1.6c0.1-0.4,0.2-0.6,0.2-0.8c0-0.1,0-0.4,0.1-0.7l0.3-2.1l0.1-3
				l-0.6-0.4c-1-0.4-1.7-0.8-2.2-1.2c-0.2-0.1-0.2-0.3-0.2-0.7s0.3-0.7,0.6-1c0.4,0,1.1-0.3,2-0.8c0.1,0,0.4-0.2,0.9-0.5l0.9-0.3
				c0.1-0.1,0.5-0.3,1.2-0.5c0.2,0,0.4-0.1,0.8-0.3c0.4-0.2,0.7-0.3,1.1-0.3c0.3,0,1-0.1,1.9-0.3c1-0.1,1.8-0.1,2.5,0.1
				c0.4,0,0.9,0.1,1.3,0.2c0.8,0,1.6,0.3,2.6,0.8c0.2,0,0.5,0.1,1,0.4l0.9,0.4l1.2,1c0.7,0.5,1.3,1.2,1.8,2.1
				c0.4,0.4,0.5,0.9,0.4,1.5c-0.4,2.8-2.4,5.6-5.8,8.3l-1.4,0.6l-2.4,1.5c0.8,1.1,1.8,2.4,3.1,3.9c0.1,0.2,0.5,0.7,1.1,1.3l1.6,2
				l0.6,0.9l1.3,1.4c0.1,0.2,0.4,0.5,0.8,0.8l0.8,0.8c0.7,0.6,1,1.2,0.9,2c-0.1,0.7-0.6,1.1-1.3,1.2l-1.2-0.1l-2.3-0.6L146.2,181.4z
				 M138.1,160.1c0,1.5-0.2,3.5-0.6,6c0.2-0.2,0.5-0.4,0.9-0.8c0.4-0.4,1.3-1.1,2.7-2l0.7-0.5l1.4-0.7l1.6-1.1
				c-0.1-0.1,0-0.2,0.2-0.5c0.6-1.1,1-2,1.1-2.8c0-0.4-0.1-0.7-0.2-0.9c-0.1-0.2-0.5-0.3-1.2-0.4c-0.1-0.1-0.4-0.1-0.9-0.2
				c-1.3,0-2.2,0.1-2.6,0.2c-0.4,0.2-0.8,0.2-1,0.2l-0.7,0.2h-0.8l-0.2,1.3c0,0-0.1,0.4-0.2,1C138.2,159.4,138.2,159.7,138.1,160.1z
				"/>
			<path d="M159.6,152.9c0.7-0.4,1.2-0.7,1.7-0.9c1.3-0.5,3.1-0.5,5.2,0.1c0.4,0.1,0.9,0.4,1.5,0.8c0.1,0,0.1,0,0.2,0.1
				c0.4,0.2,0.6,0.3,0.7,0.4c0.5,0.3,1.1,0.9,1.8,2c0.6,1,1,1.7,1,2.1c0,0.4,0.2,1.1,0.6,2.1c0.5,1.2,0.7,2,0.7,2.7
				c0,0.6,0.1,1.4,0.3,2.4c0.2,0.9,0.3,1.7,0.3,2.2c0,4.5-0.4,7.7-1.3,9.9c-0.2,1.4-0.5,2.4-1,2.7c-0.2,1.6-0.8,2.6-1.8,3.1
				c-0.1,0.1-0.8,0.3-2,0.5c-1.9,0.4-3.1,0.6-3.9,0.7c-0.7,0.1-1.5,0-2.3-0.2s-1.3-0.3-1.6-0.4c-0.2,0-0.6-0.2-1.2-0.5
				c-1.1-0.7-1.8-1.2-2-1.6l-0.5-0.8c-0.1-0.2-0.1-0.3-0.2-0.5c-0.4-0.4-0.7-1-1-1.8c-0.1-0.7-0.3-1.2-0.5-1.4
				c-0.2-0.4-0.4-0.8-0.5-1.1c0-0.2,0-0.6,0-1.2v-0.5c-0.2-0.5-0.1-1,0-1.4c0-0.2,0-0.5,0-0.8s0-0.8,0.1-1.5v-0.6
				c0.3-0.9,0.4-1.5,0.3-1.9c0-0.4,0-1,0.1-1.7s0.1-1.3,0.1-1.7s0-0.8,0.2-1.1c0.1-0.3,0.2-0.6,0.2-0.6c0-0.1,0-0.2,0.1-0.3
				c-0.1-0.8,0.1-1.6,0.6-2.3c0.4-1.1,0.6-1.7,0.7-1.8l0.6-1.4c0.5-1.2,1-2.2,1.4-2.7C158.6,153.6,159,153.3,159.6,152.9z
				 M160.1,170.8c0.2,2.3,0.3,3.7,0.3,4.3c0.6,1.8,1.4,3,2.4,3.7c0.1,0.1,0.5,0.3,1.1,0.5l1.2,0.2c0.2,0,0.4-0.1,0.5-0.2
				c0.2,0,0.3-0.1,0.5-0.3c0.2-0.3,0.4-0.5,0.7-0.8c0.2-0.2,0.3-0.3,0.2-0.3c0.1-0.1,0.2-0.3,0.1-0.6c0.1-0.1,0.2-0.3,0.4-0.7
				c0.3-1.8,0.6-2.9,0.9-3.5c0.1-1.6,0.1-2.5,0.1-2.7c0-1.4-0.4-3.1-1.2-4.9c-0.3-0.3-0.6-1.7-0.7-4.2c-0.2-0.5-0.3-0.9-0.3-1.3
				c0-0.4-0.2-0.8-0.4-1.3s-0.4-0.8-0.5-1s-0.2-0.3-0.2-0.4c-0.1-0.5-0.3-0.9-0.7-1c-0.5-0.2-1.1,0.4-1.8,1.7l-0.4,0.6
				c0,0.2-0.2,0.4-0.4,0.8c0,0.1-0.1,0.7-0.4,1.8c-0.3,1.1-0.5,1.9-0.6,2.3c-0.1,0.4-0.1,0.6-0.1,0.8c0,0.1-0.1,0.8-0.5,2v1.1
				c0,0.1,0,0.4-0.1,1C160.1,169.2,160.1,169.9,160.1,170.8z"/>
			<path d="M177.9,168.6l0.3-3.6c0-0.2,0.1-0.5,0.2-0.9c0.1-0.4,0.2-0.6,0.3-0.7c0-0.1,0-0.2,0.1-0.3c0-0.9,0.2-1.6,0.7-2.3
				c0.7-1.7,1.3-3,1.7-3.8s0.8-1.5,1.2-2.1c0-0.2,0.4-0.4,1-0.8c1.3-0.7,2.5-1.1,3.7-1.1s2.3,0.2,3.3,0.5c0.4,0.1,0.8,0.3,1.4,0.7
				c0.6,0.4,0.9,0.6,1,0.7c0.5,0.3,1.1,1,1.7,2c0.6,1,0.9,1.8,1,2.3c0,0.5,0.2,1.2,0.6,2.3c0.3,1,0.5,1.8,0.5,2.3s0.1,1.2,0.3,2.2
				s0.2,1.8,0.2,2.4c-0.2,4.5-0.8,7.8-1.7,9.8c-0.2,1.4-0.6,2.3-1.1,2.7l-0.1,0.7c0,0.4-0.2,0.8-0.6,1.3c-0.3,0.5-0.8,0.8-1.3,1.1
				c-0.1,0.1-0.7,0.2-1.9,0.4c-1.7,0.3-2.8,0.5-3.4,0.5c-0.7,0.2-1.6,0.2-2.7-0.1c-1.1-0.3-1.7-0.5-1.8-0.5c-0.2,0-0.5-0.2-1-0.5
				s-0.9-0.6-1-0.8c-0.5-0.4-0.8-0.7-0.9-0.9L179,181c-0.4-0.4-0.7-1-0.9-1.8s-0.3-1.3-0.5-1.5c-0.2-0.4-0.3-0.7-0.4-1.1
				c0-0.2,0-0.6,0-1.2v-0.5c-0.1-0.5-0.1-0.9,0.1-1.4c0-0.2,0.1-0.5,0.1-0.8s0.1-0.8,0.1-1.5v-0.6C177.8,169.6,178,169,177.9,168.6z
				 M183.4,172.1l0.1,4.3c0.5,1.8,1.3,3.1,2.3,3.8c0.2,0.2,0.5,0.3,1.1,0.5l1.2,0.3c0.2,0,0.3-0.1,0.5-0.2c0.2-0.1,0.4-0.1,0.5-0.2
				c0.2-0.3,0.4-0.5,0.7-0.8c0.2-0.2,0.3-0.3,0.3-0.3c0.1-0.1,0.2-0.3,0.1-0.6c0.1-0.1,0.2-0.3,0.4-0.6c0.4-1.8,0.7-2.9,1.1-3.5
				c0.1-1.4,0.2-2.3,0.2-2.7c0-1.3-0.4-3-1.1-4.9c-0.4-0.4-0.6-1.9-0.6-4.3c-0.2-0.5-0.3-0.9-0.3-1.3c0-0.4-0.1-0.8-0.3-1.3
				s-0.3-0.8-0.4-0.9c-0.1-0.2-0.2-0.3-0.2-0.5c0-0.1-0.1-0.3-0.2-0.6c-0.5-0.8-1.3-0.4-2.4,1.2l-0.8,1.4c0,0.1-0.2,0.7-0.5,1.8
				c-0.5,1.8-0.8,2.8-0.7,3c0,0.2-0.2,0.9-0.6,2c0,0.1,0,0.3,0,0.7s0,0.8-0.2,1.5C183.5,170.6,183.4,171.3,183.4,172.1z"/>
		</g>
	</g>
	<g>
		<g id="Group_291">
			<g id="Path_590">
				<path class="st1" d="M92.2,61.9l-10.9,4.8c-3.6,1.6-6.1,4.8-6.7,8.8C73,86,72.2,95.8,72.8,104.7c-10.4,0-14,11.5-4.9,8.7
					c-5.4,8.1-0.7,14.5,4.4,7.7c3.3,9.7,6.2,11.7,8.7,6.5c16.4,7.2,33.6,7.5,51.9,0c2.5,5.1,5.4,3.1,8.7-6.5c5,7,9.8,0.6,4.4-7.7
					c9,2.8,5.4-8.7-4.9-8.7c0.6-9.9-0.4-20.8-2.2-32.4c-0.3-1.8-1.5-3.4-3.2-4.2L121.8,62C117.6,60.1,96.6,60,92.2,61.9z"/>
				<path d="M106.5,133.4c-8.6,0-17.1-1.7-25.3-5.3c-1,1.8-2,2.7-3.2,2.6c-1.9-0.1-3.9-3-5.9-8.8c-2.2,2.8-4.3,2.9-5.5,2
					c-1.9-1.4-2.3-5.3,0.4-9.9c-1.8,0.4-3.3,0.1-4.1-0.8c-0.8-0.9-0.8-2.1-0.2-3.6c1.2-2.6,4.7-5.3,9.6-5.5
					c-0.5-8,0.1-17.4,1.7-28.8c0.6-4.1,3.2-7.5,6.9-9.1l10.9-4.8c4.5-2,25.5-2,29.9,0l13.9,6.1c1.8,0.8,3.1,2.5,3.4,4.5
					c2,13,2.8,23.3,2.2,32.1c4.9,0.2,8.4,2.9,9.6,5.5c0.7,1.5,0.6,2.7-0.2,3.6s-2.2,1.2-4.1,0.8c2.7,4.6,2.3,8.5,0.4,9.9
					c-1.3,0.9-3.3,0.7-5.5-2c-2,5.8-4,8.7-5.9,8.8c-1.2,0.1-2.2-0.8-3.1-2.6C124,131.6,115.2,133.4,106.5,133.4z M81.1,127.2
					c0.1,0,0.1,0,0.2,0c16.5,7.2,33.8,7.2,51.6,0c0.2-0.1,0.5,0,0.6,0.2c0.6,1.2,1.5,2.6,2.5,2.5s2.9-1.6,5.4-9
					c0.1-0.2,0.2-0.3,0.3-0.3c0.2,0,0.3,0,0.4,0.2c1.7,2.4,3.6,3.4,4.8,2.5c1.5-1,2-4.7-1.2-9.6c-0.1-0.2-0.1-0.4,0-0.5
					c0.1-0.1,0.3-0.2,0.5-0.2c2,0.6,3.6,0.6,4.3-0.2c0.5-0.6,0.5-1.6,0-2.6c-1.1-2.4-4.5-5-9.3-5c-0.1,0-0.2,0-0.3-0.1
					c-0.1-0.1-0.1-0.2-0.1-0.3c0.6-8.8-0.2-19.1-2.2-32.3c-0.3-1.7-1.4-3.1-2.9-3.9l-13.9-6.1c-4.3-1.9-25.1-1.9-29.3,0l0,0
					l-10.9,4.8c-3.5,1.6-5.9,4.7-6.4,8.4c-1.6,11.4-2.2,20.9-1.7,29c0,0.1,0,0.2-0.1,0.3c-0.1,0.1-0.2,0.1-0.3,0.1
					c-4.8,0-8.1,2.6-9.3,5c-0.5,1.1-0.5,2,0,2.6c0.7,0.8,2.2,0.9,4.3,0.2c0.2-0.1,0.4,0,0.5,0.2c0.1,0.1,0.1,0.3,0,0.5
					c-3.3,4.8-2.6,8.6-1.2,9.6c1.3,0.9,3.1-0.1,4.8-2.5c0.1-0.1,0.3-0.2,0.4-0.2c0.2,0,0.3,0.1,0.3,0.3c2.5,7.4,4.3,8.9,5.4,9
					c0.9,0.1,1.6-0.8,2.5-2.5C80.8,127.2,81,127.2,81.1,127.2z M92.2,61.9L92.2,61.9L92.2,61.9z"/>
			</g>
			<g id="Ellipse_142">
				<ellipse class="st2" cx="87.9" cy="99" rx="7.4" ry="3.5"/>
				<path d="M87.9,102.9c-4.4,0-7.8-1.7-7.8-4c0-2.2,3.4-4,7.8-4s7.8,1.7,7.8,4C95.7,101.2,92.2,102.9,87.9,102.9z M87.9,95.9
					c-3.8,0-6.9,1.5-6.9,3.1s3.2,3.1,6.9,3.1c3.8,0,6.9-1.5,6.9-3.1S91.6,95.9,87.9,95.9z"/>
			</g>
			<g id="Path_592">
				<path class="st3" d="M118.7,108.5c0,5.4-4.7,9.8-10.4,9.8s-10.4-4.4-10.4-9.8s4.7-9.8,10.4-9.8S118.7,103,118.7,108.5"/>
				<path d="M108.3,118.6c-5.9,0-10.8-4.6-10.8-10.2s4.8-10.2,10.8-10.2s10.8,4.6,10.8,10.2C119,114.1,114.2,118.6,108.3,118.6z
					 M108.3,99.1c-5.4,0-9.9,4.2-9.9,9.4c0,5.1,4.5,9.4,9.9,9.4s9.9-4.2,9.9-9.4C118.2,103.3,113.7,99.1,108.3,99.1z"/>
			</g>
			<g id="Path_594">
				<path d="M117.3,103.9c0,2.7-5.3,2.7-8.1,2.7c-2.8,0-9.2,0-9.2-2.7c0-2.7,5.6-5.1,8.4-5.1C111.2,98.8,117.3,101.2,117.3,103.9"/>
			</g>
			<g id="Path_595">
				<path class="st1" d="M63.7,58.1c-4.9-10.9-3.8-22,2.4-24.8c6.2-2.8,15.4,3.6,20.3,14.4c3.3,7.4,5.8,14.7,2.7,19.1
					C88.6,67.6,87.1,68,85,69c-1.3,0.6-4.9,4.3-5.1,4.2C75.2,70.2,67.7,66.8,63.7,58.1"/>
				<path d="M80,73.7c-0.1,0-0.2,0-0.3-0.1c-0.7-0.4-1.5-0.9-2.2-1.4c-4.7-2.8-10.8-6.4-14.1-13.9c0,0,0,0,0-0.1
					c-5-11-3.8-22.4,2.7-25.4c6.5-2.9,15.9,3.7,20.8,14.6c3.2,7,6,14.8,2.7,19.5c-0.5,0.7-1.6,1.2-3,1.7c-0.4,0.2-0.9,0.4-1.4,0.6
					c-0.7,0.3-2.4,1.8-3.5,2.9C80.6,73.4,80.2,73.7,80,73.7z M64.1,57.9L64.1,57.9c3.4,7.4,9.2,10.9,13.9,13.7
					c0.7,0.4,1.4,0.9,2,1.3c0.3-0.2,0.8-0.7,1.2-1.1c1.3-1.2,2.9-2.6,3.7-3c0.5-0.2,1-0.4,1.4-0.6c1.3-0.6,2.2-1,2.6-1.5
					c3.1-4.4,0.1-12.3-2.8-18.6C81.2,37.4,72.3,31,66.2,33.8C60.3,36.5,59.3,47.2,64.1,57.9z"/>
			</g>
			<g id="Path_597">
				<path class="st1" d="M150,60.7c7.6-10.4,8.8-22.3,2.9-26.6c-6-4.4-17,0.4-24.5,10.8c-5.1,7-9.3,14.2-7.1,19.5
					c0.4,1,1.9,1.8,3.9,3.2c1.2,0.9,4.3,5.6,4.5,5.5C135.2,70.9,143.8,68.9,150,60.7"/>
				<path d="M129.4,73.5c-0.2,0-0.5-0.3-1.5-1.7c-1-1.4-2.4-3.4-3.1-3.9c-0.5-0.3-0.9-0.6-1.3-0.9c-1.4-1-2.4-1.6-2.7-2.5
					c-2.4-5.6,2.2-13.2,7.1-19.9c7.7-10.5,19-15.3,25.1-10.9c3,2.2,4.4,6.3,3.8,11.4s-2.9,10.7-6.6,15.7l0,0
					c-5.2,7.2-12.3,9.6-17.9,11.5c-1,0.3-1.8,0.6-2.6,1C129.6,73.4,129.5,73.5,129.4,73.5z M147.4,32.9c-5.8,0-13.3,4.6-18.9,12.2
					c-4.5,6.1-9.3,13.8-7,19c0.3,0.6,1.3,1.3,2.4,2.1c0.4,0.3,0.8,0.6,1.3,0.9c0.7,0.5,1.9,2.1,3.3,4.1c0.4,0.5,0.8,1.1,1,1.4
					c0.8-0.3,1.6-0.6,2.4-0.9c5.5-1.9,12.5-4.3,17.5-11.2l0,0c3.6-4.9,5.9-10.4,6.4-15.3c0.5-4.8-0.7-8.7-3.5-10.7
					C151.1,33.4,149.4,32.9,147.4,32.9z M150,60.7L150,60.7L150,60.7z"/>
			</g>
			<g id="Path_599">
				<path class="st4" d="M64.8,58.8c-4.7-10.3-3.6-20.7,2.3-23.4s14.5,3.4,19.2,13.7c3.1,7,5.4,14,2.6,18c-0.5,0.8-2,1.2-3.9,2.1
					c-1.2,0.6-4.7,4.1-4.8,4C75.6,70.3,68.6,67.1,64.8,58.8"/>
				<path d="M80.2,73.6c-0.1,0-0.2,0-0.2-0.1c-0.7-0.4-1.4-0.9-2.1-1.3c-4.6-2.7-10.1-6-13.4-13.1L64.4,59c-2.3-5-3.3-10.3-2.8-14.7
					c0.5-4.6,2.3-7.8,5.4-9.2c6.1-2.8,15,3.4,19.8,13.9c3,6.6,5.6,14,2.5,18.4c-0.5,0.7-1.5,1.1-2.8,1.6c-0.4,0.2-0.8,0.4-1.3,0.6
					c-0.7,0.3-2.3,1.7-3.4,2.7C80.8,73.3,80.5,73.6,80.2,73.6z M65.2,58.6L65.2,58.6c3.2,7,8.7,10.3,13.2,12.9
					c0.7,0.4,1.3,0.8,1.9,1.2c0.2-0.2,0.7-0.6,1.1-1c1.6-1.4,2.8-2.5,3.6-2.9c0.5-0.2,0.9-0.4,1.3-0.6c1.2-0.5,2.1-0.9,2.4-1.4
					c2.9-4.1,0.1-11.5-2.6-17.5c-4.6-10-13-16.1-18.7-13.5c-2.7,1.3-4.5,4.3-4.9,8.5C62,48.7,62.9,53.7,65.2,58.6z"/>
			</g>
			<g id="Path_601">
				<path class="st4" d="M148.3,61.4c7.1-9.6,8.2-20.7,2.6-24.8c-5.6-4.1-15.8,0.4-22.9,10c-4.7,6.5-8.6,13.2-6.6,18.1
					c0.4,0.9,1.8,1.6,3.6,3c1.1,0.9,4,5.2,4.2,5.1C134.7,70.9,142.7,69.1,148.3,61.4"/>
				<path d="M129.3,73.3c-0.3,0-0.6-0.4-1.6-1.8c-0.9-1.3-2.1-2.9-2.7-3.4c-0.4-0.3-0.9-0.6-1.2-0.9c-1.3-0.9-2.2-1.6-2.5-2.3
					c-2.2-5.2,2-12.3,6.6-18.5c3.5-4.7,7.8-8.3,12.1-10.3c4.5-1.9,8.4-1.9,11.2,0.2c5.7,4.2,4.7,15.5-2.4,25.2c0,0.1,0,0.1-0.1,0.2
					c-4.9,6.7-11.5,8.9-16.8,10.8c-0.9,0.3-1.6,0.6-2.4,0.9C129.4,73.3,129.3,73.3,129.3,73.3z M146,35.5c-1.7,0-3.7,0.5-5.7,1.4
					c-4.3,1.8-8.4,5.4-11.8,10c-4.2,5.6-8.6,12.8-6.5,17.6c0.2,0.5,1.2,1.2,2.2,1.9c0.4,0.3,0.8,0.6,1.3,0.9
					c0.7,0.5,1.9,2.2,2.9,3.6c0.4,0.6,0.9,1.2,1.1,1.5c0.7-0.3,1.5-0.5,2.2-0.8c5.1-1.7,11.4-3.9,16.3-10.3c0-0.1,0-0.1,0.1-0.2
					c6.9-9.4,8.1-20.3,2.7-24.2C149.4,36,147.8,35.5,146,35.5z"/>
			</g>
			<g id="Path_603">
				<path d="M91.4,98.7c-0.1,1.6-1.6,2.9-3.3,2.7c-1.6-0.1-2.9-1.6-2.7-3.3c0.1-1.6,1.5-2.7,3-2.7C90.2,95.5,91.5,97,91.4,98.7"/>
			</g>
			<g id="Ellipse_143">
				<ellipse class="st2" cx="129.2" cy="99" rx="7.4" ry="3.5"/>
				<path d="M129.2,102.9c-4.4,0-7.8-1.7-7.8-4c0-2.2,3.4-4,7.8-4c4.4,0,7.8,1.7,7.8,4C137,101.2,133.6,102.9,129.2,102.9z
					 M129.2,95.9c-3.8,0-6.9,1.5-6.9,3.1s3.2,3.1,6.9,3.1c3.8,0,6.9-1.5,6.9-3.1C136.2,97.3,133,95.9,129.2,95.9z"/>
			</g>
			<g id="Path_605">
				<path d="M125.7,98.7c0.1,1.6,1.6,2.9,3.3,2.7c1.6-0.1,2.9-1.6,2.7-3.3c-0.1-1.6-1.5-2.7-3-2.7C127,95.5,125.6,97,125.7,98.7"/>
			</g>
			<g id="Path_606">
				<path class="st2" d="M92,97.9c0,0.5-0.5,0.9-1.1,0.9c-0.6,0-1.1-0.4-1.1-0.9c0-0.5,0.5-0.9,1.1-0.9C91.5,97,92,97.4,92,97.9"/>
			</g>
			<g id="Path_607">
				<path class="st2" d="M127.6,97.6c0,0.5-0.5,0.9-1.1,0.9c-0.6,0-1.1-0.4-1.1-0.9c0-0.5,0.5-0.9,1.1-0.9
					C127.1,96.7,127.6,97.1,127.6,97.6"/>
			</g>
			<g id="Path_608">
				<path class="st4" d="M123,86.9c0.1-0.9,1.6-1.8,1.8-2c0.7-0.4,1.6-0.6,2.3-0.6c1.6,0,3.2,0.6,4.6,1.5l1.6,1c1.1,0.7,2,1.4,3,2.1
					c0.1,0,0.1,0.1,0.1,0.2s-0.1,0.2-0.2,0.2h-0.1c-1.8-0.4-4.6-1.6-6.4-1.7c-2.3-0.4-3.9,0.6-6.2,0.2c-0.3,0-0.6-0.3-0.6-0.6
					C123,87.1,123,87,123,86.9L123,86.9z"/>
				<path d="M136.2,89.8L136.2,89.8c-0.9-0.2-1.7-0.5-2.7-0.8c-1.3-0.4-2.6-0.9-3.7-1c-1.1-0.2-2,0-3,0.1c-1,0.2-2,0.3-3.2,0.1
					c-0.5,0-1-0.5-0.9-1.1c0-0.1,0-0.1,0-0.2l0,0c0.2-1.1,1.8-2.2,2.1-2.3c0.8-0.4,1.6-0.6,2.5-0.6c1.7,0,3.4,0.6,4.8,1.6l1.6,1
					c1.1,0.7,2,1.4,3,2.1c0.1,0.1,0.3,0.3,0.3,0.5C136.8,89.5,136.6,89.8,136.2,89.8L136.2,89.8z M136.1,89.3L136.1,89.3L136.1,89.3
					z M128.6,87c0.4,0,0.8,0,1.3,0.1c1.1,0.2,2.5,0.6,3.8,1.1c0.5,0.2,1.1,0.3,1.5,0.5c-0.7-0.5-1.4-1-2.1-1.5l-1.6-1
					c-1.3-0.9-2.8-1.4-4.4-1.5c-0.7,0-1.5,0.2-2.1,0.5c-0.4,0.2-1.6,1.2-1.6,1.7c0,0,0,0,0,0.1s0.1,0.2,0.2,0.2c1.2,0.2,2,0.1,3-0.1
					C127.3,87.1,128,87,128.6,87z M123,87L123,87L123,87z"/>
			</g>
			<g id="Path_609">
				<path class="st4" d="M94.5,86.9c-0.1-0.9-1.6-1.8-1.8-2c-0.7-0.4-1.5-0.6-2.3-0.6c-1.6,0-3.2,0.6-4.6,1.5l-1.6,1
					c-1.1,0.7-2,1.4-3,2.1c-0.1,0-0.1,0.1-0.1,0.2s0.1,0.2,0.2,0.2h0.1c1.8-0.4,4.6-1.6,6.4-1.7c2.3-0.4,3.9,0.6,6.2,0.2
					c0.2,0,0.3-0.1,0.4-0.2C94.5,87.4,94.5,87.2,94.5,86.9z"/>
				<path d="M81.4,89.8c-0.4,0-0.7-0.3-0.7-0.6c0-0.3,0.1-0.4,0.3-0.6c1-0.8,1.9-1.5,3-2.1l1.6-1c1.4-1,3.1-1.6,4.8-1.6
					c0.9,0,1.7,0.2,2.5,0.6c0.2,0.1,1.9,1.3,2.1,2.3c0.1,0.3,0,0.7-0.2,0.9c-0.2,0.2-0.5,0.3-0.7,0.3c-1.2,0.2-2.2,0-3.2-0.1
					c-1-0.2-1.8-0.3-3-0.1c-1.1,0.2-2.4,0.6-3.7,1C83.1,89.3,82.2,89.6,81.4,89.8C81.4,89.8,81.4,89.8,81.4,89.8z M81.5,89.3
					C81.4,89.3,81.4,89.3,81.5,89.3C81.4,89.3,81.4,89.3,81.5,89.3z M90.3,84.8c-1.6,0-3.1,0.5-4.4,1.5l-1.6,1
					c-0.7,0.5-1.5,1-2.1,1.5c0.5-0.1,1-0.3,1.5-0.5c1.4-0.4,2.7-0.9,3.9-1.1c1.3-0.2,2.2-0.1,3.2,0.1c1,0.2,1.8,0.3,3,0.1
					c0.1,0,0.1,0,0.2-0.1c0,0,0-0.1,0-0.2l0,0c-0.1-0.6-1.3-1.6-1.6-1.7C91.8,85,91,84.8,90.3,84.8z"/>
			</g>
			<g id="Path_610">
				<path class="st1" d="M110,61.8c4.7-3.3,0.4-6.5-5-2.9c1.8-6-5.8-3.6-5.8,3.3"/>
			</g>
			<g id="Path_611">
				<path d="M99.2,62.6c-0.2,0-0.4-0.2-0.4-0.4c0-3.5,1.9-6,3.8-6.8c1-0.5,1.9-0.4,2.5,0.1c0.4,0.4,0.9,1.1,0.6,2.5
					c3-1.6,5.5-1.4,6.5-0.1c0.7,1,0.5,2.5-1.8,4.2c-0.2,0.1-0.5,0.1-0.6-0.1c-0.1-0.2-0.1-0.5,0.1-0.6c1.6-1.1,2.1-2.2,1.6-3
					c-0.7-1-3.2-1.2-6.2,0.8c-0.2,0.1-0.4,0.1-0.5,0c-0.1-0.1-0.2-0.3-0.2-0.5c0.4-1.3,0.4-2.2-0.1-2.6c-0.3-0.3-1-0.3-1.6,0
					c-1.6,0.7-3.3,2.9-3.3,6C99.7,62.4,99.5,62.6,99.2,62.6z"/>
			</g>
			<g id="Path_612">
				<path class="st5" d="M103,113.6c-0.7-0.9,0.4-2.5,1.4-1.7c2.1,1.6,6.6,1.7,8.8,1c0.6-0.2,1,0.6,0.7,1.1
					c-0.6,0.9-1.4,1.6-2.2,2.3c-2.4,1.6-5.7,1.2-7.6-1.1L103,113.6z"/>
				<path d="M108.5,117.6c-1.7,0-3.5-0.8-4.7-2.2l-1.2-1.6c-0.5-0.7-0.3-1.6,0.3-2.2c0.5-0.5,1.2-0.6,1.7-0.1c1.9,1.5,6.2,1.6,8.4,1
					c0.4-0.1,0.8,0,1.1,0.3c0.3,0.4,0.4,1,0.1,1.4c-0.6,1-1.4,1.7-2.3,2.4C110.9,117.3,109.6,117.6,108.5,117.6z M103.8,112
					c-0.1,0-0.2,0-0.4,0.2c-0.3,0.3-0.4,0.8-0.2,1.1l0,0l1.2,1.6c1.6,2,4.7,2.5,7,1c0.9-0.6,1.6-1.3,2.1-2.1c0.1-0.1,0-0.3-0.1-0.4
					s-0.1-0.1-0.1-0.1c-2.2,0.7-6.9,0.7-9.2-1.1C104.1,112.1,104,112,103.8,112z"/>
			</g>
			<g id="Path_613">
				<path class="st6" d="M107.9,114.6c-1.2,0-2.3,0.3-3.4,0.9c1.8,2,4.9,2.4,7.3,0.9c0.2-0.1,0.3-0.2,0.5-0.3
					C110.9,114.9,109.4,114.5,107.9,114.6z"/>
				<path d="M108.6,117.6c-1.6,0-3.3-0.7-4.5-1.9c-0.1-0.1-0.1-0.2-0.1-0.4s0.1-0.2,0.2-0.3c1.1-0.6,2.3-0.9,3.6-0.9h0.1
					c1.6,0,3.1,0.5,4.4,1.5c0.1,0.1,0.2,0.2,0.2,0.3c0,0.1-0.1,0.3-0.2,0.3l-0.1,0.1c-0.1,0.1-0.2,0.2-0.4,0.3
					C110.9,117.3,109.7,117.6,108.6,117.6z M105.2,115.4c1.7,1.6,4.3,1.7,6.2,0.4c-1.1-0.7-2.3-1-3.5-1l0,0
					C106.9,114.9,106,115.1,105.2,115.4z"/>
			</g>
		</g>
		<g id="Group_293">
			<g id="Rectangle_71">
				<path class="st7" d="M125.4,89.4h2.9c0.8,0,1.5,0.7,1.5,1.5l0,0c0,0.8-0.7,1.5-1.5,1.5h-2.9c-0.8,0-1.5-0.7-1.5-1.5l0,0
					C124,90,124.7,89.4,125.4,89.4z"/>
				<path d="M128.3,92.7h-2.9c-1.1,0-1.8-0.9-1.8-1.8c0-1.1,0.9-1.8,1.8-1.8h2.9c1.1,0,1.8,0.9,1.8,1.8
					C130.2,91.9,129.3,92.7,128.3,92.7z M125.4,89.8c-0.6,0-1.1,0.5-1.1,1.1c0,0.6,0.5,1.1,1.1,1.1h2.9c0.6,0,1.1-0.5,1.1-1.1
					c0-0.6-0.5-1.1-1.1-1.1H125.4z"/>
			</g>
			<g id="Rectangle_72">
				<path class="st8" d="M123.7,90.8h27.7c1.9,0,3.6,1.6,3.6,3.6l0,0v14.1c0,1.9-1.6,3.6-3.6,3.6h-27.7c-1.9,0-3.6-1.6-3.6-3.6l0,0
					V94.4C120.1,92.5,121.7,90.8,123.7,90.8z"/>
				<path d="M151.4,112.5h-27.7c-2.2,0-4-1.8-4-4V94.4c0-2.2,1.8-4,4-4h27.7c2.2,0,4,1.8,4,4v14.1
					C155.4,110.8,153.5,112.5,151.4,112.5z M123.7,91.2c-1.7,0-3.2,1.5-3.2,3.2v14.1c0,1.7,1.5,3.2,3.2,3.2h27.7
					c1.7,0,3.2-1.5,3.2-3.2V94.4c0-1.7-1.5-3.2-3.2-3.2H123.7z"/>
			</g>
			<g id="Group_292">
				<g id="Rectangle_73">
					<path class="st7" d="M124.5,92.9h6.8c0.8,0,1.5,0.7,1.5,1.5l0,0c0,0.8-0.7,1.5-1.5,1.5h-6.8c-0.8,0-1.5-0.7-1.5-1.5l0,0
						C123,93.4,123.7,92.9,124.5,92.9z"/>
					<path d="M131.3,96.1h-6.8c-1.1,0-1.8-0.9-1.8-1.8c0-1.1,0.9-1.8,1.8-1.8h6.8c1.1,0,1.8,0.9,1.8,1.8S132.2,96.1,131.3,96.1z
						 M124.5,93.2c-0.6,0-1.1,0.5-1.1,1.1c0,0.6,0.5,1.1,1.1,1.1h6.8c0.6,0,1.1-0.5,1.1-1.1c0-0.6-0.5-1.1-1.1-1.1H124.5z"/>
				</g>
				<g id="Rectangle_74">
					<path class="st9" d="M126.4,92.9h2.9c0.8,0,1.5,0.7,1.5,1.5l0,0c0,0.8-0.7,1.5-1.5,1.5h-2.9c-0.8,0-1.5-0.7-1.5-1.5l0,0
						C125,93.4,125.6,92.9,126.4,92.9z"/>
					<path d="M129.3,96.1h-2.9c-1.1,0-1.8-0.9-1.8-1.8c0-1.1,0.9-1.8,1.8-1.8h2.9c1.1,0,1.8,0.9,1.8,1.8S130.3,96.1,129.3,96.1z
						 M126.4,93.2c-0.6,0-1.1,0.5-1.1,1.1c0,0.6,0.5,1.1,1.1,1.1h2.9c0.6,0,1.1-0.5,1.1-1.1c0-0.6-0.5-1.1-1.1-1.1H126.4z"/>
				</g>
			</g>
			<g id="Path_614">
				<path class="st10" d="M135.6,92.4c0.2,0.2,0.2,0.6,0,0.9c-0.2,0.2-0.6,0.2-0.9,0c-0.2-0.2-0.2-0.6,0-0.9
					C134.9,92.2,135.3,92.2,135.6,92.4z"/>
				<path d="M135.1,93.8c-0.3,0-0.5-0.1-0.7-0.3c-0.2-0.2-0.3-0.5-0.3-0.7c0-0.3,0.1-0.5,0.3-0.7c0.2-0.2,0.5-0.3,0.7-0.3l0,0
					c0.3,0,0.5,0.1,0.7,0.3l0,0c0.4,0.4,0.4,1.1,0,1.5C135.7,93.7,135.4,93.8,135.1,93.8z M135.1,92.7L135.1,92.7
					C135.1,92.7,135,92.7,135.1,92.7c-0.2,0.2-0.2,0.3-0.1,0.4c0.1,0.1,0.2,0.1,0.3,0c0.1-0.1,0.1-0.2,0-0.3
					C135.2,92.7,135.2,92.7,135.1,92.7z"/>
			</g>
			<g id="Path_361">
				<path d="M142.9,104.8c-1.8,0-3.3-1.6-3.3-3.4s1.6-3.3,3.4-3.3s3.3,1.6,3.3,3.3C146.3,103.2,144.7,104.8,142.9,104.8L142.9,104.8
					z M142.2,99.3c-0.4,0-0.8,0.4-0.8,0.8c0,0.4,0.4,0.8,0.8,0.8c0.4,0,0.8-0.3,0.8-0.8l0,0C143,99.7,142.7,99.4,142.2,99.3
					L142.2,99.3z M143.8,102.3c-0.2,0-0.4,0.2-0.4,0.4l0,0l0,0c0,0.2,0.2,0.4,0.4,0.4s0.4-0.2,0.4-0.4l0,0
					C144.2,102.4,144,102.3,143.8,102.3L143.8,102.3L143.8,102.3z"/>
			</g>
			<g id="Path_362">
				<path d="M148.4,102.1l1.3,0.9c0.4,0.3,0.8,0.5,1.2,0.8c0.1,0,0.1,0.1,0.1,0.2l0,0c-0.8,2.5-2.7,4.5-5.2,5.3h-0.1l0.1-1.2
					c0.1-0.7,0.1-1.3,0.2-1.9c0-0.1,0-0.1,0.1-0.2C147.3,105.2,148.2,103.7,148.4,102.1z"/>
			</g>
			<g id="Path_363">
				<path d="M137.3,100.4l-2.4-1.7c0.9-2.5,2.7-4.5,5.2-5.3c0,0.3-0.1,0.6-0.1,0.9c-0.1,0.6-0.1,1.2-0.2,1.8c0,0.2,0,0.3-0.1,0.5
					c0,0.1-0.1,0.1-0.1,0.2c-0.9,0.6-1.6,1.5-2,2.5C137.5,99.6,137.4,100,137.3,100.4z"/>
			</g>
			<g id="Path_364">
				<path d="M148.3,95l-2.8,1.3c-0.1,0-0.1,0-0.2,0c-0.7-0.3-1.5-0.5-2.1-0.5c-0.8,0-1.5,0.1-2.2,0.4c0-0.5,0.1-0.9,0.1-1.4
					c0.1-0.5,0.1-0.9,0.1-1.4c0-0.2,0.1-0.3,0.3-0.3c0.6,0,1.2-0.1,1.8-0.1c1.5,0.1,2.9,0.5,4.2,1.4C147.6,94.5,147.9,94.7,148.3,95
					z"/>
			</g>
			<g id="Path_365">
				<path d="M144.6,106.3l-0.2,3c-2.5,0.6-5.2,0-7.3-1.6l0.9-0.4l1.6-0.8c0.1-0.1,0.3-0.1,0.4-0.2c0.1,0,0.2,0,0.2,0
					c1,0.5,2.1,0.6,3.2,0.4C143.8,106.6,144.2,106.5,144.6,106.3z"/>
			</g>
			<g id="Path_366">
				<path d="M134.2,99.7l2.6,1.7c0.1,0,0.1,0.1,0.1,0.2c0.1,0.8,0.3,1.5,0.7,2.1c0.4,0.7,0.9,1.2,1.5,1.6l-1.3,0.6l-1.2,0.6
					c-0.2,0.1-0.3,0.1-0.4-0.1c-0.4-0.5-0.7-1-1.1-1.5c-0.7-1.3-1.1-2.7-1.1-4.2C134.2,100.5,134.2,100.2,134.2,99.7z"/>
			</g>
			<g id="Path_367">
				<path d="M146.1,96.7l1.4-0.7l1.3-0.6c0.1-0.1,0.2,0,0.2,0l0,0l0,0c1.7,1.9,2.5,4.6,2,7.2c0,0,0,0,0,0.1l-1-0.7l-1.6-1.2
					c-0.1,0-0.1-0.1-0.1-0.2C148.1,99.2,147.3,97.8,146.1,96.7z"/>
			</g>
		</g>
	</g>
</g>
</svg>
