<svg id="Layer_1" data-name="Layer 1" xmlns="http://www.w3.org/2000/svg" viewBox="0 0 32 28.45"><defs><style>.cls-1{fill:#fff;}</style></defs><path id="Icon_awesome-shopping-cart" data-name="Icon awesome-shopping-cart" class="cls-1" d="M29.34,18.51,32,7a1.34,1.34,0,0,0-1-1.6,1.43,1.43,0,0,0-.29,0H8.85L8.34,2.84A1.34,1.34,0,0,0,7,1.78H1.33A1.33,1.33,0,0,0,0,3.11V4A1.34,1.34,0,0,0,1.33,5.33H5.22l3.9,19.08a3.1,3.1,0,1,0,3.72.48H24.49a3.11,3.11,0,1,0,4.4,0,3.2,3.2,0,0,0-.87-.62L28.33,23a1.35,1.35,0,0,0-1-1.6,1.53,1.53,0,0,0-.3,0H12.12l-.37-1.78H28A1.34,1.34,0,0,0,29.34,18.51Z" transform="translate(0 -1.78)"/></svg>