<svg id="Layer_1" data-name="Layer 1" xmlns="http://www.w3.org/2000/svg" viewBox="0 0 24 22.02"><defs><style>.cls-1{fill-rule:evenodd;}</style></defs><g id="iconfinder_volume-24_103167" data-name="iconfinder volume-24 103167"><g id="Group_361" data-name="Group 361"><path id="Path_853" data-name="Path 853" class="cls-1" d="M690.06,375.33,689,377a9,9,0,0,1,1.32,12.65A9.22,9.22,0,0,1,689,391l1.11,1.66A11,11,0,0,0,692,377.22a11.27,11.27,0,0,0-1.89-1.89Zm-2.23,3.34-1.12,1.68a5,5,0,0,1,.24,7l-.24.25,1.12,1.68a7,7,0,0,0,.77-9.86A5.6,5.6,0,0,0,687.83,378.67ZM682.28,373a1.66,1.66,0,0,0-1.54.68,42.26,42.26,0,0,1-5.16,4.85A2.66,2.66,0,0,1,674,379h-1.73a2,2,0,0,0-2,2v6a2,2,0,0,0,2,2H674a2.61,2.61,0,0,1,1.56.47,41.63,41.63,0,0,1,5.17,4.85,1.66,1.66,0,0,0,1.54.68,2,2,0,0,0,2-2V375A2,2,0,0,0,682.28,373Z" transform="translate(-670.28 -372.97)"/></g></g></svg>