<svg id="Layer_1" data-name="Layer 1" xmlns="http://www.w3.org/2000/svg" viewBox="0 0 43.73 38.29"><defs><style>.cls-1{fill:#e98824;}.cls-1,.cls-3,.cls-4{stroke:#231f20;stroke-miterlimit:10;}.cls-2{fill:#cb6728;opacity:0.33;isolation:isolate;}.cls-3{fill:none;}.cls-4{fill:#54b148;}</style></defs><g id="Group_323" data-name="Group 323"><g id="Group_10" data-name="Group 10"><path id="Path_17" data-name="Path 17" class="cls-1" d="M674.37,377l-1.55,1.56a7.12,7.12,0,0,0,0,10.05,7.39,7.39,0,0,0,2.06,1.43l27,12.44a1.59,1.59,0,0,0,1.79-.32h0a2.22,2.22,0,0,0,.14-3l-17.6-21.59A8,8,0,0,0,675,376.46h0A7.7,7.7,0,0,0,674.37,377Z" transform="translate(-661.12 -364.83)"/><path id="Path_18" data-name="Path 18" class="cls-2" d="M703,402.56c-12-7.47-34.21-11.25-32.25-20.95a49.6,49.6,0,0,1,6-6.23c-5.64,13,14.75,15.83,26.9,26.44Z" transform="translate(-661.12 -364.83)"/><path id="Path_19" data-name="Path 19" class="cls-3" d="M674.37,377l-1.55,1.56a7.12,7.12,0,0,0,0,10.05,7.39,7.39,0,0,0,2.06,1.43l27,12.44a1.59,1.59,0,0,0,1.79-.32h0a2.22,2.22,0,0,0,.14-3l-17.6-21.59A8,8,0,0,0,675,376.46h0A7.7,7.7,0,0,0,674.37,377Z" transform="translate(-661.12 -364.83)"/><g id="Group_8" data-name="Group 8"><path id="Path_20" data-name="Path 20" class="cls-4" d="M672.93,378s-2.61-2.48-4.95-1.6-5.89,3.68-6.32,1.45,2.36-6.05,5.4-5.57,6.43,5.18,6.43,5.18Z" transform="translate(-661.12 -364.83)"/></g><g id="Group_9" data-name="Group 9"><path id="Path_21" data-name="Path 21" class="cls-4" d="M674,376.65s-2.48-2.61-1.6-4.95,3.67-5.89,1.45-6.32-6.06,2.36-5.57,5.4,5.18,6.43,5.18,6.43Z" transform="translate(-661.12 -364.83)"/></g><line id="Line_1" data-name="Line 1" class="cls-3" x1="27.45" y1="15.33" x2="23.37" y2="19.59"/><line id="Line_2" data-name="Line 2" class="cls-3" x1="29.23" y1="17.12" x2="25.15" y2="21.38"/><line id="Line_3" data-name="Line 3" class="cls-3" x1="30.92" y1="18.81" x2="26.84" y2="23.07"/></g></g></svg>